<svg width="578" height="522" viewBox="0 0 578 522" fill="none" xmlns="http://www.w3.org/2000/svg">
<g filter="url(#filter0_d_105_752)">
<rect x="14" y="14" width="550" height="494" rx="8" fill="white"/>
</g>
<path d="M186.026 408.41L206.769 387.664" stroke="black" stroke-width="5.62" stroke-miterlimit="10"/>
<path d="M459.256 267.674V268.01C459.256 268.704 459.256 269.421 459.236 270.116C459.236 270.873 459.216 271.651 459.196 272.409C459.172 273.103 459.132 273.817 459.109 274.512C459.069 275.269 459.025 276.051 458.985 276.805C458.941 277.503 458.901 278.217 458.857 278.911C458.794 279.689 458.73 280.447 458.646 281.204C458.562 281.962 458.542 282.616 458.458 283.31C458.395 284.068 458.311 284.823 458.207 285.58C458.103 286.338 458.059 286.992 457.952 287.686C457.868 288.444 457.764 289.222 457.637 289.98C457.553 290.674 457.425 291.368 457.322 292.086C457.218 292.803 457.07 293.598 456.922 294.379C456.815 295.073 456.691 295.787 456.544 296.482C456.416 297.239 456.249 297.997 456.101 298.755C455.953 299.449 455.806 300.163 455.638 300.861C455.491 301.639 455.303 302.397 455.132 303.154C454.961 303.912 454.797 304.563 454.605 305.257C454.418 306.035 454.206 306.793 453.995 307.55C453.784 308.308 453.64 308.962 453.428 309.656C453.217 310.414 452.986 311.192 452.758 311.95C452.547 312.644 452.339 313.358 452.107 314.052C451.876 314.81 451.621 315.568 451.37 316.326C451.138 317.02 450.887 317.737 450.632 318.431C450.38 319.189 450.105 319.967 449.814 320.725C449.522 321.483 449.287 322.133 449.012 322.827C448.741 323.605 448.422 324.363 448.107 325.121C447.835 325.815 447.54 326.533 447.265 327.227C446.93 327.985 446.595 328.763 446.259 329.52C445.944 330.214 445.629 330.929 445.314 331.623C444.956 332.381 444.598 333.138 444.241 333.896C443.905 334.614 443.57 335.308 443.208 336.002C442.829 336.78 442.43 337.538 442.031 338.296C441.632 339.053 441.313 339.704 440.914 340.398C440.515 341.179 440.093 341.937 439.65 342.692C439.275 343.389 438.872 344.103 438.453 344.797C438.011 345.555 437.548 346.333 437.112 347.091C436.669 347.785 436.23 348.503 435.787 349.197C435.301 349.955 434.818 350.709 434.312 351.467C433.873 352.184 433.41 352.879 432.924 353.573C432.397 354.351 431.871 355.108 431.324 355.866C430.842 356.58 430.335 357.275 429.809 357.972C429.262 358.75 428.695 359.508 428.105 360.266C427.579 360.96 427.052 361.674 426.506 362.368C425.896 363.126 425.285 363.904 424.655 364.662C424.025 365.419 423.478 366.073 422.888 366.767C422.257 367.545 421.583 368.283 420.909 369.041C420.299 369.755 419.669 370.449 419.035 371.143C418.321 371.921 417.607 372.679 416.889 373.437C416.171 374.195 415.548 374.849 414.827 375.543C414.092 376.321 413.311 377.078 412.513 377.836C411.775 378.55 411.041 379.268 410.283 379.939C409.462 380.72 408.607 381.474 407.778 382.212C407 382.93 406.179 383.624 405.378 384.318C404.475 385.096 403.547 385.854 402.621 386.611C401.759 387.326 400.874 388.02 399.972 388.714C398.983 389.492 397.96 390.25 396.954 391.008C395.985 391.725 395.02 392.439 394.03 393.113C392.914 393.911 391.797 394.669 390.677 395.407C389.604 396.145 388.511 396.839 387.418 397.513C386.177 398.291 384.933 399.048 383.672 399.783C382.412 400.517 381.231 401.215 379.967 401.889C378.559 402.687 377.127 403.444 375.695 404.182C374.263 404.92 372.835 405.614 371.383 406.285C369.706 407.086 367.993 407.844 366.29 408.581C364.586 409.319 362.839 410.03 361.092 410.684C358.986 411.505 356.864 412.263 354.721 412.978C352.491 413.735 350.218 414.429 347.948 415.083C320.577 422.8 291.606 422.8 264.236 415.083C261.962 414.413 259.692 413.742 257.459 412.978C255.313 412.263 253.187 411.505 251.088 410.684C249.341 410.013 247.614 409.316 245.89 408.581C244.167 407.847 242.48 407.086 240.797 406.285C239.345 405.614 237.913 404.896 236.485 404.182C235.056 403.468 233.621 402.687 232.213 401.889C230.969 401.218 229.728 400.52 228.524 399.783C227.321 399.045 226.02 398.291 224.779 397.513C223.686 396.842 222.589 396.121 221.516 395.407C220.38 394.669 219.266 393.891 218.163 393.113C217.157 392.443 216.185 391.725 215.216 391.008C214.247 390.29 213.204 389.492 212.198 388.714C211.316 388.02 210.431 387.326 209.545 386.611C208.66 385.897 207.715 385.096 206.813 384.318C205.991 383.647 205.19 382.93 204.392 382.212C203.594 381.495 202.715 380.72 201.887 379.939C201.129 379.245 200.395 378.55 199.657 377.836C198.919 377.122 198.101 376.321 197.343 375.543C196.646 374.849 195.952 374.154 195.281 373.437C194.61 372.719 193.849 371.921 193.132 371.143C192.501 370.449 191.871 369.755 191.261 369.041C190.59 368.283 189.919 367.545 189.282 366.767C188.692 366.073 188.105 365.379 187.515 364.662C186.925 363.944 186.274 363.126 185.684 362.368C185.138 361.674 184.591 360.96 184.065 360.266C183.495 359.508 182.948 358.73 182.388 357.972V357.949C163.244 331.73 152.927 300.105 152.927 267.641C152.927 235.177 163.244 203.552 182.388 177.333C182.767 176.81 183.146 176.304 183.521 175.777C184.112 175.019 184.702 174.242 185.292 173.484C185.838 172.79 186.405 172.075 186.968 171.378C187.579 170.6 188.209 169.842 188.86 169.084C189.45 168.37 190.06 167.676 190.67 166.982C191.324 166.204 192.012 165.446 192.682 164.708C193.353 163.971 193.99 163.3 194.641 162.603C195.355 161.825 196.092 161.067 196.85 160.309L198.956 158.207C199.734 157.429 200.532 156.671 201.354 155.913C202.111 155.199 202.869 154.501 203.647 153.807C204.489 153.029 205.351 152.292 206.216 151.537C207.034 150.84 207.855 150.125 208.697 149.431C209.646 148.653 210.612 147.896 211.561 147.138C212.51 146.38 213.391 145.726 214.297 145.032C215.346 144.254 216.379 143.496 217.452 142.738C218.458 142.024 219.464 141.33 220.47 140.636C221.627 139.858 222.817 139.077 223.984 138.342C225.151 137.608 226.18 136.901 227.321 136.23C228.625 135.432 229.929 134.674 231.257 133.956C232.585 133.239 233.822 132.528 235.127 131.854C236.622 131.053 238.145 130.295 239.674 129.56C241.203 128.826 242.692 128.129 244.241 127.455C246.048 126.657 247.882 125.879 249.733 125.161C251.584 124.444 253.499 123.709 255.413 123.059C257.727 122.214 260.084 121.459 262.455 120.765C265.04 119.984 267.673 119.29 270.325 118.659C293.805 113.075 318.268 113.075 341.748 118.659C344.4 119.29 347.029 119.984 349.618 120.765C351.995 121.459 354.352 122.214 356.659 123.059C358.574 123.709 360.468 124.4 362.36 125.161C364.19 125.879 366.021 126.657 367.832 127.455C369.368 128.125 370.904 128.823 372.399 129.56C373.895 130.298 375.45 131.053 376.943 131.854C378.247 132.525 379.531 133.222 380.815 133.956C382.1 134.691 383.468 135.432 384.752 136.23C385.909 136.901 387.046 137.618 388.159 138.336C389.359 139.07 390.506 139.851 391.697 140.629C392.702 141.323 393.708 142.018 394.714 142.732C395.72 143.446 396.82 144.247 397.85 145.025C398.775 145.719 399.68 146.414 400.586 147.131C401.555 147.889 402.5 148.647 403.449 149.425C404.291 150.119 405.126 150.813 405.931 151.53C406.736 152.248 407.658 153.023 408.499 153.801C409.277 154.495 410.035 155.192 410.793 155.906C411.614 156.664 412.412 157.422 413.19 158.2C413.908 158.894 414.622 159.608 415.296 160.302C416.054 161.06 416.788 161.818 417.506 162.596C418.156 163.293 418.81 163.988 419.461 164.702C420.111 165.416 420.802 166.197 421.473 166.975C422.103 167.669 422.693 168.363 423.28 169.078C423.951 169.835 424.564 170.593 425.175 171.371C425.765 172.069 426.311 172.783 426.851 173.477C427.462 174.235 428.032 175.013 428.618 175.771C429.145 176.465 429.651 177.159 430.154 177.876C430.724 178.634 431.251 179.392 431.777 180.17C432.28 180.864 432.783 181.558 433.229 182.272C433.755 183.03 434.235 183.788 434.745 184.546C435.184 185.24 435.626 185.934 436.069 186.652C436.512 187.369 437.015 188.164 437.477 188.945C437.9 189.639 438.319 190.354 438.721 191.048C439.161 191.805 439.603 192.583 440.002 193.341C440.405 194.035 440.804 194.729 441.163 195.447C441.582 196.205 441.981 196.963 442.36 197.741C442.739 198.435 443.097 199.129 443.433 199.843C443.768 200.557 444.17 201.359 444.529 202.116C444.864 202.811 445.2 203.528 445.535 204.222C445.891 204.98 446.229 205.758 446.541 206.516C446.856 207.21 447.151 207.924 447.446 208.618C447.762 209.376 448.077 210.134 448.392 210.912C448.667 211.606 448.939 212.303 449.193 213.018C449.509 213.775 449.78 214.533 450.055 215.311C450.33 216.005 450.582 216.723 450.793 217.417C451.085 218.171 451.339 218.929 451.571 219.687C451.822 220.381 452.034 221.099 452.265 221.793C452.496 222.551 452.728 223.329 452.959 224.086C453.17 224.781 453.378 225.495 453.569 226.192C453.781 226.947 453.988 227.705 454.18 228.482C454.367 229.18 454.559 229.874 454.726 230.588C454.894 231.303 455.105 232.104 455.296 232.882C455.44 233.576 455.611 234.27 455.759 234.988C455.906 235.705 456.074 236.503 456.222 237.261C456.369 237.955 456.517 238.669 456.621 239.364C456.788 240.121 456.916 240.899 457.04 241.657C457.164 242.415 457.295 243.069 457.399 243.763C457.526 244.541 457.63 245.299 457.714 246.056C457.841 246.751 457.925 247.465 458.009 248.159C458.113 248.917 458.2 249.675 458.26 250.432C458.368 251.126 458.452 251.821 458.492 252.538C458.532 253.256 458.663 254.054 458.703 254.832C458.787 255.526 458.83 256.24 458.871 256.934C458.934 257.692 458.978 258.47 459.018 259.228C459.058 259.986 459.102 260.639 459.126 261.334C459.146 262.091 459.189 262.869 459.209 263.627C459.209 264.321 459.229 265.035 459.229 265.73C459.229 266.424 459.256 267.004 459.256 267.674Z" fill="#E6AA31"/>
<path d="M349.621 120.755H262.462C265.047 119.974 267.679 119.28 270.332 118.649H341.754C344.403 119.28 347.029 119.974 349.621 120.755Z" fill="#FFE600"/>
<path d="M362.373 125.164H249.73C251.601 124.407 253.496 123.713 255.41 123.062H356.676C358.587 123.699 360.482 124.393 362.373 125.164Z" fill="#FFE600"/>
<path d="M372.413 129.55H239.67C241.186 128.813 242.688 128.119 244.237 127.445H367.845C369.381 128.119 370.917 128.813 372.413 129.55Z" fill="#FFE600"/>
<path d="M380.829 133.946H231.254C232.538 133.212 233.819 132.518 235.123 131.844H376.963C378.26 132.518 379.555 133.212 380.829 133.946Z" fill="#FFE600"/>
<path d="M388.173 138.326H223.911C225.044 137.608 226.181 136.894 227.317 136.22H384.766C385.926 136.9 387.059 137.608 388.173 138.326Z" fill="#FFE600"/>
<path d="M394.738 142.722H217.355C218.361 142.007 219.367 141.313 220.373 140.619H391.687C392.719 141.313 393.729 142.007 394.738 142.722Z" fill="#FFE600"/>
<path d="M400.609 147.121H211.49C212.392 146.404 213.321 145.709 214.226 145.015H397.89C398.799 145.709 399.704 146.404 400.609 147.121Z" fill="#FFE600"/>
<path d="M405.954 151.52H206.128C206.947 150.823 207.768 150.109 208.61 149.415H403.473C404.314 150.109 405.133 150.803 405.954 151.52Z" fill="#FFE600"/>
<path d="M410.817 155.896H201.267C202.024 155.182 202.782 154.485 203.56 153.791H408.523C409.301 154.485 410.069 155.182 410.817 155.896Z" fill="#FFE600"/>
<path d="M415.32 160.292H196.763L198.869 158.19H413.214C413.932 158.884 414.646 159.598 415.32 160.292Z" fill="#FFE600"/>
<path d="M419.484 164.692H192.595C193.249 163.978 193.903 163.283 194.553 162.586H417.54C418.18 163.283 418.834 163.978 419.484 164.692Z" fill="#FFE600"/>
<path d="M423.294 169.068H188.786C189.376 168.353 189.987 167.659 190.597 166.965H421.486C422.117 167.659 422.707 168.353 423.294 169.068Z" fill="#FFE600"/>
<path d="M426.871 173.467H185.211C185.758 172.773 186.325 172.059 186.888 171.361H425.181C425.778 172.059 426.325 172.779 426.871 173.467Z" fill="#FFE600"/>
<path d="M430.188 177.866H182.308V175.76H428.639C429.182 176.468 429.671 177.139 430.188 177.866Z" fill="#FFE600"/>
<path d="M433.249 182.262H182.308V180.156H431.784C432.3 180.854 432.786 181.548 433.249 182.262Z" fill="#FFE600"/>
<path d="M436.089 186.642H182.308V184.536H434.765C435.217 185.23 435.647 185.924 436.089 186.642Z" fill="#FFE600"/>
<path d="M438.742 191.038H182.308V188.935H437.484C437.92 189.629 438.339 190.344 438.742 191.038Z" fill="#FFE600"/>
<path d="M441.183 195.437H182.318V193.331H440.033C440.425 194.025 440.824 194.719 441.183 195.437Z" fill="#FFE600"/>
<path d="M443.453 199.833H182.308V197.73H442.38C442.759 198.425 443.118 199.119 443.453 199.833Z" fill="#FFE600"/>
<path d="M445.539 204.212H182.314V202.106H444.556C444.885 202.801 445.223 203.518 445.539 204.212Z" fill="#FFE600"/>
<path d="M447.453 208.608H182.308V206.506H446.538C446.863 207.2 447.158 207.914 447.453 208.608Z" fill="#FFE600"/>
<path d="M449.2 213.017H182.308V210.912H448.399C448.674 211.596 448.945 212.293 449.2 213.017Z" fill="#FFE600"/>
<path d="M450.8 217.407H182.308V215.301H450.062C450.337 215.995 450.588 216.706 450.8 217.407Z" fill="#FFE600"/>
<path d="M452.272 221.783H182.308V219.677H451.568C451.829 220.371 452.04 221.089 452.272 221.783Z" fill="#FFE600"/>
<path d="M453.576 226.182H182.304V224.083H452.962C453.177 224.771 453.385 225.485 453.576 226.182Z" fill="#FFE600"/>
<path d="M454.733 230.578H182.308V228.472H454.186C454.374 229.17 454.565 229.864 454.733 230.578Z" fill="#FFE600"/>
<path d="M455.766 234.978H182.308V232.872H455.303C455.447 233.566 455.618 234.26 455.766 234.978Z" fill="#FFE600"/>
<path d="M456.627 239.353H182.308V237.251H456.228C456.376 237.945 456.524 238.659 456.627 239.353Z" fill="#FFE600"/>
<path d="M457.405 243.753H182.308V241.647H457.047C457.174 242.361 457.301 243.059 457.405 243.753Z" fill="#FFE600"/>
<path d="M458.019 248.149H182.308V246.046H457.721C457.848 246.74 457.932 247.455 458.019 248.149Z" fill="#FFE600"/>
<path d="M458.499 252.528H182.308V250.422H458.274C458.374 251.116 458.458 251.811 458.499 252.528Z" fill="#FFE600"/>
<path d="M458.877 256.924H182.308V254.822H458.71C458.794 255.516 458.837 256.23 458.877 256.924Z" fill="#FFE600"/>
<path d="M459.132 261.324H182.308V259.218H459.025C459.069 259.935 459.109 260.633 459.132 261.324Z" fill="#FFE600"/>
<path d="M459.236 265.719H182.308V263.617H459.216C459.216 264.321 459.236 265.025 459.236 265.719Z" fill="#FFE600"/>
<path d="M459.256 268.01C459.256 268.704 459.256 269.421 459.236 270.116H182.308V268.01H459.256Z" fill="#FFE600"/>
<path d="M459.196 272.392C459.173 273.086 459.132 273.8 459.109 274.495H182.308V272.392H459.196Z" fill="#FFE600"/>
<path d="M458.985 276.788C458.941 277.486 458.901 278.2 458.857 278.894H182.308V276.788H458.985Z" fill="#FFE600"/>
<path d="M458.646 281.188C458.606 281.902 458.542 282.599 458.458 283.294H182.308V281.188H458.646Z" fill="#FFE600"/>
<path d="M458.207 285.563C458.143 286.281 458.06 286.975 457.952 287.669H182.321V285.563H458.207Z" fill="#FFE600"/>
<path d="M457.637 289.963C457.553 290.657 457.426 291.351 457.322 292.069H182.308V289.963H457.637Z" fill="#FFE600"/>
<path d="M456.923 294.362C456.815 295.056 456.691 295.771 456.544 296.465H182.308V294.362H456.923Z" fill="#FFE600"/>
<path d="M456.101 298.738C455.953 299.432 455.806 300.147 455.638 300.844H182.308V298.738H456.101Z" fill="#FFE600"/>
<path d="M455.132 303.137C454.964 303.852 454.797 304.546 454.605 305.24H182.308V303.137H455.132Z" fill="#FFE600"/>
<path d="M453.995 307.534C453.828 308.251 453.64 308.945 453.429 309.639H182.308V307.534H453.995Z" fill="#FFE600"/>
<path d="M452.755 311.936C452.543 312.63 452.335 313.345 452.104 314.039H182.308V311.936H452.755Z" fill="#FFE600"/>
<path d="M451.366 316.295C451.135 316.99 450.883 317.707 450.629 318.401H182.308V316.295H451.366Z" fill="#FFE600"/>
<path d="M449.81 320.708C449.556 321.422 449.284 322.117 449.009 322.811H182.308V320.708H449.81Z" fill="#FFE600"/>
<path d="M448.104 325.104C447.832 325.798 447.537 326.516 447.262 327.21H182.308V325.104H448.104Z" fill="#FFE600"/>
<path d="M446.253 329.504C445.938 330.198 445.622 330.912 445.307 331.606H182.308V329.504H446.253Z" fill="#FFE600"/>
<path d="M444.234 333.879C443.899 334.597 443.563 335.291 443.201 335.985H182.324V333.879H444.234Z" fill="#FFE600"/>
<path d="M442.024 338.279C441.666 338.993 441.307 339.687 440.908 340.381H182.308V338.279H442.024Z" fill="#FFE600"/>
<path d="M439.644 342.675C439.268 343.372 438.866 344.086 438.447 344.781H182.308V342.675H439.644Z" fill="#FFE600"/>
<path d="M437.099 347.074C436.656 347.768 436.217 348.486 435.774 349.18H182.308V347.074H437.099Z" fill="#FFE600"/>
<path d="M434.299 351.45C433.859 352.168 433.397 352.862 432.91 353.556H182.308V351.45H434.299Z" fill="#FFE600"/>
<path d="M431.311 355.863C430.828 356.577 430.322 357.271 429.795 357.969H182.308V355.863H431.311Z" fill="#FFE600"/>
<path d="M428.092 360.249C427.565 360.943 427.039 361.657 426.492 362.351H185.61C185.064 361.657 184.517 360.943 183.991 360.249H428.092Z" fill="#FFE600"/>
<path d="M424.642 364.645C424.051 365.363 423.465 366.057 422.874 366.751H189.209C188.618 366.057 188.032 365.363 187.441 364.645H424.642Z" fill="#FFE600"/>
<path d="M420.896 369.024C420.286 369.738 419.656 370.433 419.022 371.127H193.058C192.428 370.433 191.797 369.738 191.187 369.024H420.896Z" fill="#FFE600"/>
<path d="M416.875 373.42C416.205 374.138 415.534 374.832 414.813 375.526H197.269C196.572 374.832 195.878 374.138 195.207 373.42H416.875Z" fill="#FFE600"/>
<path d="M412.5 377.82C411.762 378.534 411.027 379.251 410.27 379.922H201.813C201.055 379.228 200.321 378.534 199.583 377.82H412.5Z" fill="#FFE600"/>
<path d="M407.765 382.196C406.987 382.913 406.166 383.607 405.364 384.301H206.739C205.917 383.631 205.116 382.913 204.318 382.196H407.765Z" fill="#FFE600"/>
<path d="M402.608 386.595C401.746 387.309 400.861 388.003 399.959 388.697H212.124C211.242 388.003 210.357 387.309 209.472 386.595H402.608Z" fill="#FFE600"/>
<path d="M396.928 390.991C395.958 391.708 394.993 392.423 394.004 393.097H218.103C217.097 392.426 216.124 391.708 215.155 390.991H396.928Z" fill="#FFE600"/>
<path d="M390.62 395.39C389.547 396.128 388.454 396.822 387.361 397.496H224.708C223.615 396.825 222.519 396.104 221.446 395.39H390.62Z" fill="#FFE600"/>
<path d="M383.629 399.766C382.408 400.504 381.188 401.198 379.924 401.872H232.159C230.915 401.201 229.674 400.504 228.471 399.766H383.629Z" fill="#FFE600"/>
<path d="M375.652 404.165C374.223 404.88 372.792 405.597 371.34 406.268H240.734C239.282 405.597 237.85 404.88 236.421 404.165H375.652Z" fill="#FFE600"/>
<path d="M366.246 408.565C364.519 409.299 362.796 410.013 361.049 410.667H251.034C249.287 409.996 247.56 409.299 245.837 408.565H366.246Z" fill="#FFE600"/>
<path d="M354.671 412.961C352.441 413.719 350.168 414.413 347.897 415.067H264.185C261.912 414.396 259.642 413.725 257.409 412.961H354.671Z" fill="#FFE600"/>
<path d="M440.042 377.43C407.158 420.016 355.593 447.448 297.623 447.448" stroke="black" stroke-width="5.62" stroke-miterlimit="10"/>
<path d="M477.437 267.674C477.499 307.401 464.344 346.02 440.042 377.447" stroke="#808490" stroke-width="1.87" stroke-miterlimit="10" stroke-linecap="round"/>
<path d="M469.806 215.67C474.881 232.528 477.452 250.039 477.437 267.644" stroke="black" stroke-width="5.62" stroke-miterlimit="10"/>
<path d="M415.846 132.206C441.315 154.411 460.015 183.34 469.805 215.68" stroke="#333333" stroke-width="1.87" stroke-miterlimit="10"/>
<path d="M297.623 87.8671C341.106 87.8082 383.126 103.568 415.846 132.206" stroke="#808490" stroke-width="1.87" stroke-miterlimit="10" stroke-linecap="round"/>
<path d="M202.075 115.336C230.69 97.3381 263.818 87.8141 297.623 87.8672" stroke="black" stroke-width="5.62" stroke-miterlimit="10"/>
<path d="M145.523 171.774C159.929 148.979 179.252 129.696 202.075 115.336" stroke="#808490" stroke-width="1.87" stroke-miterlimit="10" stroke-linecap="round"/>
<path d="M117.829 267.674C117.777 233.728 127.382 200.466 145.523 171.774" stroke="#808490" stroke-width="0.94" stroke-miterlimit="10"/>
<path d="M122.252 307.443C119.307 294.392 117.824 281.054 117.83 267.674" stroke="#4D4D4D" stroke-width="1.87" stroke-miterlimit="10"/>
<path d="M170.189 394.498C146.335 370.568 129.715 340.394 122.239 307.443" stroke="black" stroke-width="5.62" stroke-miterlimit="10"/>
<path d="M297.623 447.448C247.835 447.448 202.762 427.198 170.203 394.498" stroke="#808490" stroke-width="0.94" stroke-miterlimit="10"/>
<path d="M450.84 267.674C450.84 352.288 382.241 420.871 297.623 420.871C277.5 420.89 257.57 416.94 238.975 409.248C220.38 401.556 203.484 390.272 189.255 376.043C175.025 361.814 163.742 344.918 156.05 326.323C148.357 307.727 144.408 287.798 144.427 267.674C144.427 183.081 213.029 114.478 297.623 114.478C317.749 114.454 337.682 118.4 356.28 126.09C374.879 133.781 391.778 145.064 406.01 159.294C420.242 173.524 431.527 190.422 439.22 209.019C446.912 227.617 450.861 247.549 450.84 267.674Z" fill="#FFE600"/>
<path d="M444.338 223.362L189.041 375.737C168.715 355.346 154.555 329.635 148.186 301.558L398.349 152.235C420.055 171.154 435.993 195.804 444.338 223.362Z" fill="#FFF7C0"/>
<path d="M428.742 267.674C428.747 277.652 427.622 287.598 425.389 297.323C411.93 355.444 359.848 398.784 297.623 398.784C286.97 398.795 276.355 397.501 266.016 394.931C218.351 383.148 180.98 345.27 169.867 297.333C165.402 277.811 165.41 257.531 169.891 238.012C183.337 179.858 235.418 136.565 297.623 136.565C314.846 136.545 331.904 139.922 347.82 146.504C363.737 153.086 378.198 162.742 390.377 174.921C402.555 187.1 412.212 201.561 418.794 217.477C425.375 233.393 428.753 250.451 428.732 267.674H428.742Z" fill="black"/>
<path d="M428.743 267.674C428.747 277.652 427.622 287.598 425.389 297.323C411.93 355.444 359.848 398.783 297.623 398.783C286.97 398.795 276.355 397.501 266.016 394.931C221.419 381.907 186.788 345.542 176.225 299.942C171.841 280.659 171.848 260.638 176.245 241.359C189.524 183.952 240.962 141.193 302.378 141.193C320.49 141.162 338.406 144.944 354.96 152.292C371.515 159.641 386.337 170.391 398.463 183.845C418.078 207.371 428.796 237.044 428.743 267.674Z" fill="#FFE600"/>
<path d="M428.742 267.674C428.747 277.652 427.622 287.598 425.389 297.323H169.867C165.402 277.801 165.41 257.521 169.891 238.002H425.376C427.623 247.732 428.753 257.688 428.742 267.674Z" fill="black"/>
<path d="M212.942 283.89V253.172H200.915V248.813H229.93V253.172H217.902V283.89H212.942Z" fill="#E3E4E9"/>
<path d="M253.234 284.293C250.69 284.32 248.164 283.865 245.79 282.952C243.579 282.099 241.56 280.813 239.852 279.169C238.182 277.549 236.854 275.611 235.945 273.469C234.072 268.909 234.072 263.794 235.945 259.235C236.854 257.093 238.182 255.155 239.852 253.534C241.554 251.899 243.563 250.618 245.763 249.765C250.551 247.968 255.827 247.959 260.621 249.738C262.827 250.587 264.843 251.865 266.553 253.497C268.232 255.11 269.562 257.05 270.459 259.198C272.297 263.799 272.297 268.931 270.459 273.533C269.562 275.68 268.232 277.621 266.553 279.233C264.848 280.864 262.838 282.141 260.638 282.992C258.274 283.888 255.762 284.33 253.234 284.293ZM253.234 279.833C255.077 279.849 256.906 279.507 258.619 278.827C260.233 278.186 261.7 277.222 262.928 275.994C264.153 274.769 265.124 273.314 265.785 271.712C267.159 268.267 267.159 264.426 265.785 260.982C265.124 259.38 264.153 257.925 262.928 256.7C261.699 255.473 260.233 254.509 258.619 253.866C255.135 252.529 251.279 252.529 247.795 253.866C246.176 254.513 244.702 255.477 243.46 256.7C242.223 257.92 241.243 259.376 240.579 260.982C239.21 264.427 239.21 268.266 240.579 271.712C241.245 273.32 242.227 274.778 243.466 276.001C244.706 277.223 246.178 278.184 247.795 278.827C249.526 279.51 251.373 279.852 253.234 279.833Z" fill="#E3E4E9"/>
<path d="M281.998 283.89V248.813H287.027V283.89H281.998ZM286.407 275.424L286.156 269.307L306.053 248.813H311.754L296.396 265.049L293.589 268.157L286.407 275.424ZM306.861 283.89L292.48 267.155L295.833 263.446L312.719 283.9L306.861 283.89Z" fill="#E3E4E9"/>
<path d="M325.545 279.531H346V283.89H320.539V248.813H345.296V253.172H325.549L325.545 279.531ZM325.096 263.946H343.136V268.204H325.096V263.946Z" fill="#E3E4E9"/>
<path d="M356.616 283.89V248.813H360.727L383.927 277.627H381.775V248.813H386.784V283.89H382.677L359.473 255.076H361.629V283.89H356.616Z" fill="#E3E4E9"/>
<path d="M292.6 227.57L268.068 188.989L292.6 150.407L317.135 188.989L292.6 227.57Z" fill="white"/>
<path d="M302.663 151.577L326.471 188.989L302.663 226.4L278.876 188.989L302.663 151.577ZM302.663 150.407L278.131 188.989L302.663 227.57L327.198 188.989L302.663 150.407Z" fill="black"/>
<path d="M261.235 343.121V318.398H265.97L280.556 336.2H278.259V318.398H283.912V343.121H279.218L264.591 325.349H266.888V343.121H261.235Z" fill="black"/>
<path d="M297.261 343.121H291.541V318.398H310.224V323.002H297.261V343.121ZM296.839 329.524H308.705V334.114H296.839V329.524Z" fill="black"/>
<path d="M321.173 343.121V323.059H313.263V318.398H334.807V323.059H326.91V343.121H321.173Z" fill="black"/>
<path d="M358.229 324.923L359.959 328.427L363.825 328.99L361.025 331.72L361.686 335.569L358.229 333.752L354.768 335.569L355.429 331.72L352.629 328.99L356.498 328.427L358.229 324.923Z" fill="black"/>
<path d="M236.797 324.923L238.527 328.427L242.393 328.99L239.597 331.72L240.257 335.569L236.797 333.752L233.336 335.569L233.997 331.72L231.2 328.99L235.066 328.427L236.797 324.923Z" fill="black"/>
<path d="M228.444 358.317V350.229H229.668L234.738 356.456H234.127V350.229H235.616V358.317H234.396L229.332 352.091H229.943V358.317H228.444Z" fill="black"/>
<path d="M241.592 358.431C240.996 358.438 240.405 358.332 239.848 358.119C239.333 357.924 238.863 357.627 238.463 357.248C238.07 356.877 237.758 356.428 237.548 355.93C237.119 354.866 237.119 353.677 237.548 352.614C237.76 352.117 238.072 351.668 238.463 351.296C238.863 350.917 239.334 350.621 239.848 350.424C240.968 350.008 242.199 350.008 243.319 350.424C243.831 350.622 244.301 350.918 244.7 351.296C245.091 351.668 245.401 352.117 245.612 352.614C246.046 353.679 246.046 354.871 245.612 355.937C245.405 356.435 245.094 356.884 244.7 357.254C244.3 357.629 243.83 357.923 243.319 358.119C242.768 358.332 242.182 358.438 241.592 358.431ZM241.592 357.114C241.98 357.118 242.364 357.048 242.725 356.906C243.063 356.774 243.37 356.571 243.624 356.312C243.879 356.052 244.081 355.746 244.221 355.41C244.507 354.678 244.507 353.865 244.221 353.133C244.081 352.798 243.879 352.493 243.624 352.235C243.369 351.976 243.063 351.772 242.725 351.638C242.364 351.497 241.979 351.427 241.592 351.43C241.206 351.426 240.824 351.497 240.465 351.638C240.128 351.775 239.821 351.978 239.564 352.234C239.306 352.491 239.101 352.797 238.963 353.133C238.677 353.863 238.677 354.674 238.963 355.403C239.099 355.742 239.301 356.051 239.556 356.312C239.812 356.571 240.12 356.773 240.458 356.906C240.816 357.047 241.197 357.117 241.582 357.114H241.592Z" fill="black"/>
<path d="M247.53 358.317V350.229H248.781L253.854 356.456H253.241V350.229H254.733V358.317H253.475L248.402 352.091H249.016V358.317H247.53Z" fill="black"/>
<path d="M256.557 354.827V353.626H259.733V354.827H256.557Z" fill="black"/>
<path d="M263.072 358.317H261.57V350.229H267.475V351.504H263.072V358.317ZM262.945 353.958H266.968V355.229H262.945V353.958Z" fill="black"/>
<path d="M272.408 358.431C271.933 358.459 271.457 358.39 271.009 358.23C270.562 358.069 270.151 357.819 269.802 357.496C269.174 356.872 268.86 355.971 268.86 354.793V350.229H270.362V354.736C270.362 355.568 270.542 356.172 270.902 356.55C271.322 356.91 271.857 357.108 272.411 357.108C272.964 357.108 273.499 356.91 273.92 356.55C274.275 356.172 274.453 355.568 274.453 354.736V350.229H275.942V354.793C275.942 355.969 275.628 356.87 275 357.496C274.653 357.818 274.244 358.067 273.799 358.228C273.354 358.389 272.88 358.458 272.408 358.431Z" fill="black"/>
<path d="M278.047 358.317V350.229H279.295L284.368 356.456H283.758V350.229H285.247V358.317H283.989L278.919 352.091H279.529V358.317H278.047Z" fill="black"/>
<path d="M291.185 358.432C290.591 358.439 290.001 358.336 289.445 358.126C288.932 357.931 288.463 357.637 288.063 357.261C287.669 356.883 287.358 356.426 287.151 355.92C286.722 354.853 286.722 353.661 287.151 352.594C287.359 352.086 287.672 351.629 288.07 351.252C288.473 350.876 288.946 350.582 289.461 350.387C290.019 350.178 290.61 350.073 291.205 350.079C291.84 350.071 292.471 350.184 293.063 350.414C293.597 350.629 294.073 350.965 294.454 351.397L293.505 352.322C293.219 352.021 292.872 351.783 292.488 351.623C292.104 351.464 291.691 351.387 291.275 351.397C290.874 351.393 290.475 351.464 290.099 351.605C289.75 351.736 289.432 351.937 289.163 352.195C288.899 352.449 288.692 352.756 288.556 353.097C288.409 353.46 288.336 353.848 288.341 354.24C288.337 354.627 288.41 355.012 288.556 355.37C288.692 355.712 288.899 356.022 289.163 356.279C289.426 356.538 289.74 356.74 290.085 356.872C290.462 357.016 290.862 357.087 291.265 357.08C291.66 357.081 292.052 357.017 292.426 356.892C292.822 356.751 293.185 356.533 293.495 356.249L294.35 357.372C293.911 357.718 293.41 357.978 292.875 358.14C292.329 358.321 291.76 358.42 291.185 358.432ZM292.929 357.208V354.19H294.35V357.416L292.929 357.208Z" fill="black"/>
<path d="M296.326 358.317V350.229H297.828V358.317H296.326Z" fill="black"/>
<path d="M300.011 358.317V350.229H303.8C304.772 350.229 305.51 350.421 306.02 350.8C306.263 350.973 306.459 351.203 306.592 351.47C306.725 351.738 306.79 352.034 306.781 352.332C306.796 352.708 306.699 353.081 306.503 353.403C306.307 353.724 306.019 353.981 305.678 354.139C305.339 354.307 304.966 354.392 304.588 354.387L304.796 353.972C305.217 353.966 305.634 354.05 306.02 354.22C306.369 354.376 306.668 354.627 306.881 354.944C307.102 355.296 307.212 355.706 307.197 356.121C307.21 356.436 307.144 356.749 307.005 357.032C306.866 357.315 306.659 357.558 306.402 357.741C305.869 358.123 305.081 358.317 304.031 358.317H300.011ZM301.513 357.137H303.941C304.389 357.163 304.836 357.068 305.235 356.862C305.374 356.76 305.488 356.626 305.566 356.472C305.644 356.318 305.684 356.148 305.684 355.975C305.684 355.802 305.644 355.632 305.566 355.478C305.488 355.324 305.374 355.19 305.235 355.088C304.838 354.875 304.39 354.777 303.941 354.803H301.399V353.636H303.639C304.059 353.662 304.478 353.567 304.846 353.361C304.977 353.264 305.084 353.138 305.157 352.992C305.23 352.847 305.269 352.686 305.269 352.523C305.269 352.36 305.23 352.199 305.157 352.054C305.084 351.908 304.977 351.782 304.846 351.685C304.479 351.478 304.06 351.382 303.639 351.406H301.513V357.137Z" fill="black"/>
<path d="M308.803 358.317V350.229H310.305V357.047H314.533V358.317H308.803Z" fill="black"/>
<path d="M317.226 357.057H321.79V358.317H315.724V350.229H321.629V351.504H317.226V357.057ZM317.112 353.589H321.136V354.827H317.112V353.589Z" fill="black"/>
<path d="M328.295 358.317V351.504H325.612V350.233H332.476V351.504H329.794V358.321L328.295 358.317Z" fill="black"/>
<path d="M337.285 358.431C336.689 358.438 336.097 358.332 335.541 358.119C335.025 357.924 334.553 357.627 334.153 357.248C333.761 356.876 333.45 356.428 333.241 355.93C332.812 354.866 332.812 353.677 333.241 352.614C333.452 352.117 333.762 351.668 334.153 351.296C334.554 350.917 335.026 350.621 335.541 350.424C336.66 350.008 337.892 350.008 339.012 350.424C339.524 350.622 339.994 350.918 340.393 351.296C340.784 351.668 341.094 352.117 341.305 352.614C341.739 353.679 341.739 354.871 341.305 355.937C341.098 356.435 340.787 356.884 340.393 357.254C339.992 357.629 339.523 357.923 339.012 358.119C338.461 358.332 337.875 358.438 337.285 358.431ZM337.285 357.114C337.671 357.118 338.055 357.048 338.415 356.906C338.754 356.774 339.061 356.571 339.317 356.312C339.572 356.052 339.774 355.746 339.914 355.41C340.195 354.677 340.195 353.866 339.914 353.133C339.774 352.798 339.571 352.493 339.317 352.235C339.061 351.975 338.753 351.772 338.415 351.638C338.055 351.497 337.671 351.427 337.285 351.43C336.899 351.426 336.517 351.497 336.158 351.638C335.82 351.773 335.513 351.977 335.256 352.235C334.998 352.491 334.794 352.797 334.656 353.133C334.37 353.863 334.37 354.674 334.656 355.403C334.791 355.743 334.993 356.052 335.249 356.312C335.505 356.571 335.813 356.773 336.151 356.906C336.509 357.047 336.89 357.117 337.275 357.114H337.285Z" fill="black"/>
<path d="M343.223 358.317V350.229H344.725V358.317H343.223ZM344.564 356.409L344.484 354.632L348.722 350.229H350.399L346.875 353.972L346.043 354.884L344.564 356.409ZM348.863 358.317L345.765 354.629L346.771 353.529L350.63 358.314L348.863 358.317Z" fill="black"/>
<path d="M353.149 357.057H357.712V358.317H351.646V350.229H357.551V351.504H353.149V357.057ZM353.035 353.589H357.059V354.827H353.035V353.589Z" fill="black"/>
<path d="M359.389 358.317V350.229H360.626L365.696 356.456H365.086V350.229H366.575V358.317H365.341L360.267 352.091H360.881V358.317H359.389Z" fill="black"/>
<path d="M466.727 148.077C487.143 148.077 503.693 131.527 503.693 111.111C503.693 90.696 487.143 74.146 466.727 74.146C446.312 74.146 429.762 90.696 429.762 111.111C429.762 131.527 446.312 148.077 466.727 148.077Z" fill="white"/>
<path d="M461.315 131.824C459.323 131.153 457.758 130.292 456.621 129.239L458.123 126.07C459.347 127.124 460.763 127.931 462.294 128.447C463.968 129.054 465.735 129.364 467.515 129.363C469.871 129.363 471.633 128.963 472.8 128.162C473.342 127.827 473.787 127.357 474.093 126.798C474.4 126.239 474.556 125.611 474.547 124.973C474.563 124.532 474.487 124.092 474.323 123.682C474.159 123.272 473.911 122.901 473.594 122.593C472.921 121.963 472.121 121.485 471.247 121.191C470.315 120.856 468.99 120.5 467.284 120.091C465.525 119.692 463.794 119.177 462.103 118.549C460.803 118.042 459.645 117.227 458.73 116.175C457.795 115.102 457.327 113.658 457.325 111.842C457.307 110.384 457.725 108.954 458.525 107.735C459.43 106.429 460.693 105.413 462.163 104.811C463.786 104.076 465.808 103.711 468.199 103.711C469.875 103.71 471.543 103.929 473.162 104.361C474.656 104.736 476.073 105.368 477.35 106.229L476.009 109.485C474.824 108.729 473.537 108.148 472.186 107.758C470.892 107.372 469.549 107.173 468.199 107.168C465.899 107.168 464.173 107.587 463.022 108.426C462.486 108.781 462.047 109.266 461.745 109.834C461.443 110.403 461.289 111.038 461.295 111.681C461.279 112.124 461.357 112.565 461.525 112.975C461.693 113.385 461.946 113.754 462.267 114.059C462.965 114.696 463.789 115.18 464.685 115.481C465.973 115.908 467.283 116.267 468.608 116.557C470.361 116.954 472.086 117.471 473.769 118.103C475.058 118.605 476.208 119.41 477.122 120.45C478.054 121.503 478.521 122.924 478.524 124.712C478.535 126.166 478.112 127.591 477.306 128.803C476.393 130.119 475.109 131.136 473.618 131.723C471.968 132.445 469.936 132.806 467.522 132.806C465.413 132.817 463.317 132.485 461.315 131.824Z" fill="#FFE600"/>
<path d="M468.867 98.1044H466.439V138.913H468.867V98.1044Z" fill="#FFE600"/>
<path d="M485.301 93.715H484.378C484.133 93.7141 483.898 93.6163 483.725 93.443C483.552 93.2696 483.454 93.0347 483.453 92.7895V91.8674C483.458 91.6481 483.386 91.4339 483.251 91.261C483.116 91.0881 482.926 90.9671 482.712 90.9185C482.577 90.8912 482.438 90.8942 482.304 90.9272C482.17 90.9602 482.046 91.0223 481.939 91.1092C481.832 91.1961 481.746 91.3055 481.687 91.4296C481.627 91.5538 481.596 91.6895 481.595 91.8272V92.7895C481.595 93.0344 481.498 93.2693 481.325 93.4428C481.153 93.6162 480.918 93.7141 480.673 93.715H479.751C479.531 93.7102 479.317 93.7812 479.143 93.9162C478.97 94.0512 478.848 94.2419 478.799 94.4561C478.771 94.5912 478.774 94.7308 478.808 94.8647C478.841 94.9985 478.903 95.1234 478.991 95.2302C479.078 95.337 479.188 95.4231 479.312 95.4823C479.437 95.5416 479.573 95.5724 479.711 95.5727H480.673C480.918 95.5727 481.152 95.6698 481.325 95.8427C481.498 96.0157 481.595 96.2502 481.595 96.4948V97.4169C481.591 97.637 481.663 97.8517 481.799 98.0251C481.934 98.1985 482.125 98.32 482.34 98.3692C482.475 98.3966 482.614 98.3935 482.748 98.3604C482.882 98.3272 483.006 98.2647 483.113 98.1774C483.219 98.0901 483.305 97.9801 483.364 97.8556C483.423 97.731 483.453 97.5949 483.453 97.4571V96.4948C483.454 96.2499 483.552 96.0154 483.725 95.8425C483.899 95.6697 484.134 95.5727 484.378 95.5727H485.341C485.478 95.5719 485.614 95.5407 485.738 95.4813C485.862 95.4218 485.972 95.3356 486.059 95.2289C486.146 95.1221 486.208 94.9975 486.241 94.8639C486.274 94.7302 486.277 94.591 486.249 94.4561C486.201 94.2421 486.08 94.0516 485.907 93.9165C485.734 93.7815 485.52 93.7103 485.301 93.715Z" fill="#4D4D4D"/>
<path d="M459.126 87.9811H458.042C457.754 87.9811 457.478 87.8666 457.274 87.6629C457.07 87.4591 456.956 87.1828 456.956 86.8946V85.8082C456.96 85.5496 456.876 85.2972 456.717 85.0934C456.557 84.8896 456.333 84.7466 456.081 84.6883C455.922 84.656 455.757 84.6595 455.6 84.6984C455.442 84.7373 455.295 84.8108 455.169 84.9135C455.044 85.0161 454.942 85.1454 454.873 85.292C454.803 85.4387 454.767 85.5989 454.766 85.7613V86.8946C454.766 87.1828 454.652 87.4591 454.448 87.6629C454.244 87.8666 453.968 87.9811 453.68 87.9811H452.593C452.335 87.9766 452.083 88.0606 451.88 88.2192C451.676 88.3779 451.532 88.6015 451.474 88.8529C451.441 89.012 451.445 89.1763 451.484 89.3339C451.523 89.4915 451.596 89.6385 451.699 89.7643C451.801 89.89 451.931 89.9914 452.077 90.0611C452.224 90.1308 452.384 90.1671 452.547 90.1674H453.68C453.968 90.1682 454.245 90.2834 454.448 90.4877C454.652 90.692 454.766 90.9687 454.766 91.2571V92.3402C454.762 92.5989 454.847 92.8512 455.006 93.055C455.165 93.2588 455.39 93.4019 455.642 93.4602C455.801 93.4918 455.965 93.4879 456.122 93.4487C456.279 93.4095 456.426 93.336 456.552 93.2335C456.677 93.1309 456.779 93.0019 456.849 92.8556C456.918 92.7093 456.955 92.5493 456.956 92.3872V91.2571C456.956 90.9687 457.07 90.692 457.274 90.4877C457.478 90.2834 457.754 90.1682 458.042 90.1674H459.176C459.338 90.1672 459.498 90.131 459.645 90.0612C459.791 89.9915 459.92 89.89 460.023 89.7642C460.125 89.6383 460.198 89.4913 460.237 89.3336C460.275 89.176 460.278 89.0118 460.245 88.8529C460.187 88.6012 460.044 88.3772 459.84 88.2185C459.636 88.0597 459.384 87.9759 459.126 87.9811Z" fill="#4D4D4D"/>
<path d="M187.143 400.792H77.6215C76.3919 400.792 75.395 401.789 75.395 403.019V455.995C75.395 457.225 76.3919 458.222 77.6215 458.222H187.143C188.373 458.222 189.369 457.225 189.369 455.995V403.019C189.369 401.789 188.373 400.792 187.143 400.792Z" fill="white"/>
<path d="M94.7126 411.448H89.6426V423.061H94.7126V411.448Z" fill="black"/>
<path d="M101.996 411.448H96.9258V423.061H101.996V411.448Z" fill="black"/>
<path d="M109.279 411.448H104.209V423.061H109.279V411.448Z" fill="#FFE600"/>
<path d="M116.565 411.448H111.495V423.061H116.565V411.448Z" fill="#FFE600"/>
<path d="M123.848 411.448H118.778V423.061H123.848V411.448Z" fill="#FFE600"/>
<path d="M144.038 411.448H138.968V423.061H144.038V411.448Z" fill="black"/>
<path d="M151.321 411.448H146.251V423.061H151.321V411.448Z" fill="black"/>
<path d="M158.604 411.448H153.534V423.061H158.604V411.448Z" fill="black"/>
<path d="M165.89 411.448H160.82V423.061H165.89V411.448Z" fill="black"/>
<path d="M173.174 411.448H168.104V423.061H173.174V411.448Z" fill="black"/>
<path d="M133.324 417.43H129.012V418.436H133.324V417.43Z" fill="#4D4D4D"/>
<path d="M183.304 404.749L204.05 384.006" stroke="black" stroke-width="5.62" stroke-miterlimit="10"/>
<path d="M125.907 431.829H89.8706V435.481H125.907V431.829Z" fill="#E3E4E9"/>
<path d="M141.878 439.904H89.8706V443.555H141.878V439.904Z" fill="#E3E4E9"/>
<path d="M130.307 447.978H89.8706V451.63H130.307V447.978Z" fill="#E3E4E9"/>
<path d="M174.062 447.978H139.491V451.63H174.062V447.978Z" fill="#E3E4E9"/>
<path d="M158.624 135.385H81.166V93.9597L85.1462 89.9561H162.605V131.395L158.624 135.385Z" fill="white"/>
<path d="M105.376 107.886H154.168L121.736 96.4849L123.674 103.55H105.376C104.802 103.55 104.252 103.778 103.846 104.183C103.441 104.589 103.213 105.139 103.213 105.713C103.212 105.998 103.267 106.28 103.375 106.544C103.483 106.807 103.642 107.047 103.843 107.249C104.044 107.451 104.283 107.611 104.546 107.72C104.809 107.829 105.091 107.886 105.376 107.886Z" fill="black"/>
<path d="M137.12 115.682H89.9478L122.38 127.082L120.445 120.021H137.12C137.404 120.021 137.685 119.965 137.948 119.856C138.21 119.747 138.449 119.588 138.65 119.387C138.85 119.186 139.01 118.948 139.118 118.686C139.227 118.423 139.283 118.142 139.283 117.858C139.285 117.573 139.23 117.29 139.122 117.026C139.014 116.762 138.855 116.522 138.654 116.32C138.453 116.118 138.214 115.957 137.951 115.848C137.688 115.738 137.405 115.682 137.12 115.682Z" fill="#FFE600"/>
<path d="M158.758 128.679C158.758 129.266 158.584 129.839 158.258 130.327C157.932 130.815 157.469 131.196 156.926 131.42C156.384 131.645 155.788 131.704 155.212 131.589C154.636 131.475 154.107 131.192 153.692 130.777C153.277 130.362 152.995 129.833 152.88 129.258C152.766 128.682 152.825 128.085 153.049 127.543C153.274 127.001 153.654 126.537 154.142 126.211C154.63 125.885 155.204 125.711 155.791 125.711C156.578 125.711 157.333 126.024 157.889 126.58C158.446 127.137 158.758 127.892 158.758 128.679V128.679Z" stroke="black" stroke-width="5.62" stroke-miterlimit="10"/>
<path d="M162.353 132.585C162.877 132.586 163.39 132.742 163.825 133.034C164.261 133.325 164.601 133.74 164.801 134.225C165.001 134.709 165.053 135.243 164.95 135.757C164.848 136.271 164.595 136.743 164.224 137.114C163.853 137.485 163.38 137.737 162.866 137.839C162.351 137.941 161.818 137.888 161.334 137.687C160.849 137.487 160.435 137.147 160.144 136.711C159.853 136.274 159.697 135.762 159.697 135.237C159.698 134.534 159.978 133.859 160.476 133.362C160.974 132.864 161.649 132.585 162.353 132.585ZM162.353 132.27C161.765 132.27 161.191 132.444 160.703 132.771C160.214 133.098 159.834 133.562 159.61 134.105C159.386 134.648 159.328 135.245 159.443 135.821C159.559 136.397 159.843 136.926 160.259 137.34C160.676 137.755 161.206 138.036 161.782 138.149C162.359 138.262 162.956 138.202 163.498 137.975C164.04 137.748 164.502 137.366 164.827 136.876C165.151 136.386 165.323 135.811 165.32 135.224C165.32 134.437 165.008 133.682 164.451 133.126C163.895 132.569 163.14 132.256 162.353 132.256V132.27Z" fill="#3A3E4E"/>
<path d="M171.879 141.796C171.879 142.383 171.705 142.957 171.379 143.445C171.053 143.933 170.59 144.313 170.048 144.538C169.505 144.762 168.909 144.821 168.333 144.707C167.757 144.592 167.229 144.31 166.814 143.895C166.398 143.48 166.116 142.951 166.001 142.375C165.887 141.799 165.946 141.203 166.17 140.661C166.395 140.118 166.775 139.655 167.263 139.329C167.751 139.003 168.325 138.829 168.912 138.829C169.699 138.829 170.454 139.141 171.01 139.698C171.567 140.254 171.879 141.009 171.879 141.796Z" fill="#4D4D4D"/>
<path d="M470.187 406.587L453.547 423.227L453.927 423.606L470.567 406.966L470.187 406.587Z" fill="#666666"/>
<path d="M471.475 407.874L454.835 424.514L455.215 424.894L471.855 408.254L471.475 407.874Z" fill="#666666"/>
<path d="M472.763 409.161L456.123 425.802L456.502 426.181L473.142 409.541L472.763 409.161Z" fill="#666666"/>
<path d="M506.948 416.8H465.252L463.039 414.587V372.89L465.252 370.681H506.948L509.158 372.89V414.587L506.948 416.8Z" fill="black"/>
<path d="M503.049 411.76H469.152L468.079 410.69V376.79L469.152 375.72H503.049L504.122 376.79V410.69L503.049 411.76Z" fill="#FFE600"/>
<path d="M474.731 367.301H473.058V372.32H474.731V367.301Z" fill="#666666"/>
<path d="M478.802 367.301H477.129V372.32H478.802V367.301Z" fill="#666666"/>
<path d="M482.87 367.301H481.196V372.32H482.87V367.301Z" fill="#666666"/>
<path d="M486.937 367.301H485.264V372.32H486.937V367.301Z" fill="#666666"/>
<path d="M491.004 367.301H489.331V372.32H491.004V367.301Z" fill="#666666"/>
<path d="M495.072 367.301H493.398V372.32H495.072V367.301Z" fill="#666666"/>
<path d="M499.139 367.301H497.466V372.32H499.139V367.301Z" fill="#666666"/>
<path d="M474.731 415.157H473.058V420.177H474.731V415.157Z" fill="#666666"/>
<path d="M478.802 415.157H477.129V420.177H478.802V415.157Z" fill="#666666"/>
<path d="M482.87 415.157H481.196V420.177H482.87V415.157Z" fill="#666666"/>
<path d="M486.937 415.157H485.264V420.177H486.937V415.157Z" fill="#666666"/>
<path d="M491.004 415.157H489.331V420.177H491.004V415.157Z" fill="#666666"/>
<path d="M495.072 415.157H493.398V420.177H495.072V415.157Z" fill="#666666"/>
<path d="M499.139 415.157H497.466V420.177H499.139V415.157Z" fill="#666666"/>
<path d="M512.538 382.373V380.7H507.518V382.373H512.538Z" fill="#666666"/>
<path d="M512.538 386.441V384.767H507.518V386.441H512.538Z" fill="#666666"/>
<path d="M512.538 390.508V388.835H507.518V390.508H512.538Z" fill="#666666"/>
<path d="M512.538 394.575V392.902H507.518V394.575H512.538Z" fill="#666666"/>
<path d="M512.538 398.646V396.973H507.518V398.646H512.538Z" fill="#666666"/>
<path d="M512.538 402.714V401.04H507.518V402.714H512.538Z" fill="#666666"/>
<path d="M512.538 406.781V405.108H507.518V406.781H512.538Z" fill="#666666"/>
<path d="M464.682 382.373V380.7H459.662V382.373H464.682Z" fill="#666666"/>
<path d="M464.682 386.441V384.767H459.662V386.441H464.682Z" fill="#666666"/>
<path d="M464.682 390.508V388.835H459.662V390.508H464.682Z" fill="#666666"/>
<path d="M464.682 394.575V392.902H459.662V394.575H464.682Z" fill="#666666"/>
<path d="M464.682 398.646V396.973H459.662V398.646H464.682Z" fill="#666666"/>
<path d="M464.682 402.714V401.04H459.662V402.714H464.682Z" fill="#666666"/>
<path d="M464.682 406.781V405.108H459.662V406.781H464.682Z" fill="#666666"/>
<path d="M461.131 448.803H432.327L430.798 447.277V418.473L432.327 416.944H461.131L462.656 418.473V447.277L461.131 448.803Z" fill="black"/>
<path d="M458.438 445.322H435.019L434.278 444.581V421.166L435.019 420.425H458.438L459.176 421.166V444.581L458.438 445.322Z" fill="#FFE600"/>
<path d="M438.876 414.611H437.719V418.078H438.876V414.611Z" fill="#B3B3B3"/>
<path d="M441.686 414.611H440.529V418.078H441.686V414.611Z" fill="#B3B3B3"/>
<path d="M444.496 414.611H443.339V418.078H444.496V414.611Z" fill="#B3B3B3"/>
<path d="M447.309 414.611H446.152V418.078H447.309V414.611Z" fill="#B3B3B3"/>
<path d="M450.119 414.611H448.962V418.078H450.119V414.611Z" fill="#B3B3B3"/>
<path d="M452.929 414.611H451.772V418.078H452.929V414.611Z" fill="#B3B3B3"/>
<path d="M455.739 414.611H454.582V418.078H455.739V414.611Z" fill="#B3B3B3"/>
<path d="M438.876 447.669H437.719V451.137H438.876V447.669Z" fill="#B3B3B3"/>
<path d="M441.686 447.669H440.529V451.137H441.686V447.669Z" fill="#B3B3B3"/>
<path d="M444.496 447.669H443.339V451.137H444.496V447.669Z" fill="#B3B3B3"/>
<path d="M447.309 447.669H446.152V451.137H447.309V447.669Z" fill="#B3B3B3"/>
<path d="M450.119 447.669H448.962V451.137H450.119V447.669Z" fill="#B3B3B3"/>
<path d="M452.929 447.669H451.772V451.137H452.929V447.669Z" fill="#B3B3B3"/>
<path d="M455.739 447.669H454.582V451.137H455.739V447.669Z" fill="#B3B3B3"/>
<path d="M464.994 425.022V423.865H461.526V425.022H464.994Z" fill="#B3B3B3"/>
<path d="M464.994 427.832V426.675H461.526V427.832H464.994Z" fill="#B3B3B3"/>
<path d="M464.994 430.642V429.485H461.526V430.642H464.994Z" fill="#B3B3B3"/>
<path d="M464.99 433.452V432.295H461.523V433.452H464.99Z" fill="#B3B3B3"/>
<path d="M464.99 436.262V435.105H461.523V436.262H464.99Z" fill="#B3B3B3"/>
<path d="M464.99 439.072V437.915H461.523V439.072H464.99Z" fill="#B3B3B3"/>
<path d="M464.99 441.882V440.725H461.523V441.882H464.99Z" fill="#B3B3B3"/>
<path d="M431.935 425.022V423.865H428.467V425.022H431.935Z" fill="#B3B3B3"/>
<path d="M431.935 427.832V426.675H428.467V427.832H431.935Z" fill="#B3B3B3"/>
<path d="M431.935 430.642V429.485H428.467V430.642H431.935Z" fill="#B3B3B3"/>
<path d="M431.931 433.452V432.295H428.464V433.452H431.931Z" fill="#B3B3B3"/>
<path d="M431.931 436.262V435.105H428.464V436.262H431.931Z" fill="#B3B3B3"/>
<path d="M431.931 439.072V437.915H428.464V439.072H431.931Z" fill="#B3B3B3"/>
<path d="M431.931 441.882V440.725H428.464V441.882H431.931Z" fill="#B3B3B3"/>
<path d="M89.7465 288.964H63.7795L62.4014 287.586V261.619L63.7795 260.24H89.7465L91.1247 261.619V287.586L89.7465 288.964Z" fill="black"/>
<path d="M87.3191 285.825H66.1941L65.5234 285.155V264.03L66.1941 263.359H87.3191L87.9897 264.03V285.155L87.3191 285.825Z" fill="#FFE600"/>
<path d="M69.6844 258.138H68.6416V261.263H69.6844V258.138Z" fill="#666666"/>
<path d="M72.2162 258.138H71.1733V261.263H72.2162V258.138Z" fill="#666666"/>
<path d="M74.7513 258.138H73.7085V261.263H74.7513V258.138Z" fill="#666666"/>
<path d="M77.2826 258.138H76.2397V261.263H77.2826V258.138Z" fill="#666666"/>
<path d="M79.8177 258.138H78.7749V261.263H79.8177V258.138Z" fill="#666666"/>
<path d="M82.3495 258.138H81.3066V261.263H82.3495V258.138Z" fill="#666666"/>
<path d="M84.8846 258.138H83.8418V261.263H84.8846V258.138Z" fill="#666666"/>
<path d="M69.6844 287.941H68.6416V291.066H69.6844V287.941Z" fill="#666666"/>
<path d="M72.2162 287.941H71.1733V291.066H72.2162V287.941Z" fill="#666666"/>
<path d="M74.7513 287.941H73.7085V291.066H74.7513V287.941Z" fill="#666666"/>
<path d="M77.2826 287.941H76.2397V291.066H77.2826V287.941Z" fill="#666666"/>
<path d="M79.8177 287.941H78.7749V291.066H79.8177V287.941Z" fill="#666666"/>
<path d="M82.3495 287.941H81.3066V291.066H82.3495V287.941Z" fill="#666666"/>
<path d="M84.8846 287.941H83.8418V291.066H84.8846V287.941Z" fill="#666666"/>
<path d="M93.2271 267.527V266.484H90.1019V267.527H93.2271Z" fill="#666666"/>
<path d="M93.2271 270.058V269.016H90.1019V270.058H93.2271Z" fill="#666666"/>
<path d="M93.2271 272.593V271.551H90.1019V272.593H93.2271Z" fill="#666666"/>
<path d="M93.2271 275.125V274.082H90.1019V275.125H93.2271Z" fill="#666666"/>
<path d="M93.2271 277.66V276.617H90.1019V277.66H93.2271Z" fill="#666666"/>
<path d="M93.2271 280.192V279.149H90.1019V280.192H93.2271Z" fill="#666666"/>
<path d="M93.2271 282.727V281.684H90.1019V282.727H93.2271Z" fill="#666666"/>
<path d="M63.4209 267.524V266.481H60.2958V267.524H63.4209Z" fill="#666666"/>
<path d="M63.4243 270.058V269.016H60.2992V270.058H63.4243Z" fill="#666666"/>
<path d="M63.4209 272.59V271.547H60.2957V272.59H63.4209Z" fill="#666666"/>
<path d="M63.4243 275.125V274.082H60.2992V275.125H63.4243Z" fill="#666666"/>
<path d="M63.4209 277.657V276.614H60.2958V277.657H63.4209Z" fill="#666666"/>
<path d="M63.4243 280.192V279.149H60.2991V280.192H63.4243Z" fill="#666666"/>
<path d="M63.4209 282.723V281.681H60.2958V282.723H63.4209Z" fill="#666666"/>
<path d="M344.165 75.0982H322.319L321.159 73.938V52.0921L322.319 50.9319H344.165L345.326 52.0921V73.938L344.165 75.0982Z" fill="black"/>
<path d="M342.123 72.456H324.351L323.792 71.896V54.1242L324.351 53.5642H342.123L342.687 54.1242V71.896L342.123 72.456Z" fill="#FFE600"/>
<path d="M327.285 49.1614H326.41V51.7903H327.285V49.1614Z" fill="black"/>
<path d="M329.418 49.1614H328.543V51.7903H329.418V49.1614Z" fill="black"/>
<path d="M331.548 49.1614H330.672V51.7903H331.548V49.1614Z" fill="black"/>
<path d="M333.68 49.1614H332.805V51.7903H333.68V49.1614Z" fill="black"/>
<path d="M335.813 49.1614H334.938V51.7903H335.813V49.1614Z" fill="black"/>
<path d="M337.942 49.1614H337.067V51.7903H337.942V49.1614Z" fill="black"/>
<path d="M340.074 49.1614H339.199V51.7903H340.074V49.1614Z" fill="black"/>
<path d="M327.285 74.2365H326.41V76.8653H327.285V74.2365Z" fill="black"/>
<path d="M329.418 74.2365H328.543V76.8653H329.418V74.2365Z" fill="black"/>
<path d="M331.548 74.2365H330.672V76.8653H331.548V74.2365Z" fill="black"/>
<path d="M333.68 74.2365H332.805V76.8653H333.68V74.2365Z" fill="black"/>
<path d="M335.813 74.2365H334.938V76.8653H335.813V74.2365Z" fill="black"/>
<path d="M337.942 74.2365H337.067V76.8653H337.942V74.2365Z" fill="black"/>
<path d="M340.074 74.2365H339.199V76.8653H340.074V74.2365Z" fill="black"/>
<path d="M347.096 57.058V56.1829H344.467V57.058H347.096Z" fill="black"/>
<path d="M347.096 59.1908V58.3157H344.467V59.1908H347.096Z" fill="black"/>
<path d="M347.096 61.3199V60.4447H344.467V61.3199H347.096Z" fill="black"/>
<path d="M347.096 63.4527V62.5775H344.467V63.4527H347.096Z" fill="black"/>
<path d="M347.096 65.5853V64.7101H344.467V65.5853H347.096Z" fill="black"/>
<path d="M347.096 67.7145V66.8394H344.467V67.7145H347.096Z" fill="black"/>
<path d="M347.096 69.8471V68.9719H344.467V69.8471H347.096Z" fill="black"/>
<path d="M322.021 57.0581V56.1829H319.392V57.0581H322.021Z" fill="black"/>
<path d="M322.021 59.1909V58.3157H319.392V59.1909H322.021Z" fill="black"/>
<path d="M322.018 61.3199V60.4447H319.389V61.3199H322.018Z" fill="black"/>
<path d="M322.021 63.4527V62.5775H319.392V63.4527H322.021Z" fill="black"/>
<path d="M322.021 65.5853V64.7101H319.392V65.5853H322.021Z" fill="black"/>
<path d="M322.018 67.7146V66.8394H319.389V67.7146H322.018Z" fill="black"/>
<path d="M322.021 69.8471V68.9719H319.392V69.8471H322.021Z" fill="black"/>
<path d="M228.243 453.725C228.898 453.725 229.43 453.194 229.43 452.538C229.43 451.883 228.898 451.351 228.243 451.351C227.587 451.351 227.056 451.883 227.056 452.538C227.056 453.194 227.587 453.725 228.243 453.725Z" fill="white"/>
<path d="M95.7521 363.991C95.7554 364.26 95.6786 364.524 95.5314 364.75C95.3842 364.975 95.1733 365.152 94.9255 365.257C94.6776 365.363 94.4041 365.392 94.1396 365.342C93.875 365.291 93.6315 365.163 93.4399 364.974C93.2483 364.785 93.1173 364.543 93.0635 364.279C93.0097 364.015 93.0356 363.741 93.1379 363.492C93.2402 363.243 93.4142 363.03 93.6379 362.88C93.8615 362.73 94.1248 362.65 94.3941 362.65C94.5716 362.647 94.7478 362.68 94.9125 362.747C95.0772 362.813 95.227 362.912 95.3533 363.036C95.4797 363.161 95.58 363.31 95.6484 363.474C95.7169 363.637 95.7521 363.813 95.7521 363.991Z" fill="white"/>
<path d="M99.8328 166.445C99.8328 166.741 99.7451 167.03 99.5808 167.276C99.4165 167.522 99.1829 167.714 98.9096 167.827C98.6363 167.94 98.3357 167.97 98.0456 167.912C97.7555 167.855 97.489 167.712 97.2798 167.503C97.0707 167.294 96.9282 167.027 96.8705 166.737C96.8128 166.447 96.8424 166.146 96.9556 165.873C97.0688 165.6 97.2605 165.366 97.5064 165.202C97.7524 165.038 98.0415 164.95 98.3373 164.95C98.5337 164.95 98.7282 164.989 98.9096 165.064C99.0911 165.139 99.2559 165.249 99.3948 165.388C99.5337 165.527 99.6438 165.692 99.719 165.873C99.7942 166.055 99.8328 166.249 99.8328 166.445Z" fill="white"/>
<path d="M45.7228 219.332C45.7234 219.601 45.6442 219.865 45.495 220.089C45.3458 220.313 45.1334 220.488 44.8847 220.592C44.636 220.695 44.3622 220.723 44.0978 220.671C43.8335 220.618 43.5907 220.489 43.3999 220.299C43.2092 220.109 43.0792 219.866 43.0264 219.602C42.9736 219.338 43.0004 219.064 43.1033 218.815C43.2062 218.566 43.3807 218.353 43.6047 218.203C43.8286 218.054 44.092 217.974 44.3614 217.974C44.7219 217.974 45.0676 218.117 45.3228 218.371C45.5781 218.626 45.7219 218.971 45.7228 219.332Z" fill="white"/>
<path d="M220.561 69.646C220.561 69.9418 220.473 70.231 220.309 70.4769C220.144 70.7228 219.911 70.9145 219.638 71.0277C219.364 71.1409 219.064 71.1705 218.774 71.1128C218.483 71.0551 218.217 70.9127 218.008 70.7035C217.799 70.4944 217.656 70.2279 217.599 69.9378C217.541 69.6477 217.57 69.347 217.684 69.0737C217.797 68.8005 217.989 68.5669 218.234 68.4026C218.48 68.2382 218.77 68.1505 219.065 68.1505C219.462 68.1505 219.842 68.3081 220.123 68.5885C220.403 68.869 220.561 69.2494 220.561 69.646Z" fill="white"/>
<path d="M393.501 87.1831C393.501 87.506 393.405 87.8218 393.226 88.0903C393.046 88.3588 392.791 88.5681 392.493 88.6917C392.194 88.8153 391.866 88.8477 391.549 88.7847C391.232 88.7217 390.942 88.5661 390.713 88.3378C390.485 88.1094 390.329 87.8184 390.266 87.5016C390.203 87.1849 390.236 86.8565 390.359 86.5581C390.483 86.2597 390.692 86.0047 390.961 85.8253C391.229 85.6458 391.545 85.55 391.868 85.55C392.301 85.55 392.716 85.7221 393.023 86.0283C393.329 86.3346 393.501 86.75 393.501 87.1831Z" fill="white"/>
<path d="M515.181 166.855C516.007 166.855 516.676 166.185 516.676 165.359C516.676 164.533 516.007 163.864 515.181 163.864C514.355 163.864 513.685 164.533 513.685 165.359C513.685 166.185 514.355 166.855 515.181 166.855Z" fill="white"/>
<path d="M481.87 206.553C482.47 206.553 482.957 206.066 482.957 205.466C482.957 204.866 482.47 204.38 481.87 204.38C481.27 204.38 480.784 204.866 480.784 205.466C480.784 206.066 481.27 206.553 481.87 206.553Z" fill="white"/>
<path d="M522.115 314.91C522.115 315.153 522.043 315.389 521.909 315.59C521.774 315.792 521.583 315.949 521.359 316.041C521.136 316.134 520.89 316.158 520.652 316.111C520.415 316.064 520.197 315.947 520.025 315.776C519.854 315.605 519.738 315.387 519.691 315.149C519.643 314.912 519.668 314.666 519.76 314.442C519.853 314.218 520.01 314.027 520.211 313.893C520.412 313.758 520.649 313.687 520.891 313.687C521.215 313.687 521.527 313.815 521.756 314.045C521.986 314.275 522.115 314.586 522.115 314.91Z" fill="white"/>
<path d="M394.044 444.749C394.644 444.749 395.13 444.263 395.13 443.663C395.13 443.063 394.644 442.576 394.044 442.576C393.444 442.576 392.958 443.063 392.958 443.663C392.958 444.263 393.444 444.749 394.044 444.749Z" fill="white"/>
<path d="M312.739 478.465C312.74 478.735 312.66 479 312.51 479.224C312.36 479.449 312.146 479.624 311.897 479.727C311.647 479.83 311.372 479.856 311.107 479.802C310.842 479.749 310.599 479.617 310.409 479.425C310.219 479.233 310.091 478.988 310.041 478.723C309.99 478.457 310.02 478.183 310.126 477.934C310.232 477.686 310.409 477.474 310.636 477.327C310.863 477.18 311.128 477.103 311.398 477.107C311.755 477.111 312.097 477.257 312.348 477.511C312.599 477.765 312.739 478.108 312.739 478.465Z" fill="#666666"/>
<path d="M162.916 483.619C162.917 483.942 162.822 484.258 162.643 484.527C162.463 484.796 162.208 485.006 161.91 485.13C161.611 485.254 161.283 485.287 160.966 485.224C160.649 485.161 160.357 485.006 160.129 484.777C159.9 484.548 159.745 484.257 159.682 483.94C159.619 483.623 159.651 483.294 159.775 482.996C159.899 482.697 160.109 482.442 160.378 482.263C160.647 482.084 160.963 481.989 161.287 481.989C161.719 481.99 162.133 482.162 162.438 482.468C162.744 482.773 162.915 483.187 162.916 483.619Z" fill="#666666"/>
<path d="M108.806 321.996C108.806 322.238 108.734 322.475 108.6 322.676C108.465 322.877 108.274 323.034 108.051 323.127C107.827 323.219 107.581 323.243 107.344 323.196C107.106 323.149 106.888 323.032 106.717 322.861C106.546 322.69 106.429 322.472 106.382 322.235C106.335 321.997 106.359 321.751 106.452 321.528C106.544 321.304 106.701 321.113 106.902 320.978C107.104 320.844 107.34 320.772 107.582 320.772C107.907 320.772 108.218 320.901 108.448 321.13C108.677 321.36 108.806 321.671 108.806 321.996Z" fill="#666666"/>
<path d="M45.9942 303.218C45.9942 303.46 45.9224 303.697 45.7879 303.898C45.6535 304.099 45.4623 304.256 45.2387 304.349C45.015 304.441 44.7689 304.466 44.5315 304.418C44.2941 304.371 44.076 304.255 43.9049 304.083C43.7337 303.912 43.6171 303.694 43.5699 303.457C43.5227 303.219 43.5469 302.973 43.6396 302.75C43.7322 302.526 43.8891 302.335 44.0903 302.2C44.2916 302.066 44.5282 301.994 44.7703 301.994C45.0949 301.994 45.4062 302.123 45.6357 302.353C45.8653 302.582 45.9942 302.893 45.9942 303.218Z" fill="#666666"/>
<path d="M192.146 90.1741C192.822 90.1741 193.37 89.6262 193.37 88.9502C193.37 88.2743 192.822 87.7263 192.146 87.7263C191.47 87.7263 190.922 88.2743 190.922 88.9502C190.922 89.6262 191.47 90.1741 192.146 90.1741Z" fill="#666666"/>
<path d="M389.95 44.0846C389.95 44.3267 389.878 44.5633 389.744 44.7646C389.609 44.9659 389.418 45.1227 389.194 45.2154C388.971 45.308 388.725 45.3323 388.487 45.285C388.25 45.2378 388.032 45.1212 387.86 44.9501C387.689 44.7789 387.573 44.5608 387.525 44.3234C387.478 44.086 387.502 43.8399 387.595 43.6163C387.688 43.3926 387.845 43.2015 388.046 43.067C388.247 42.9325 388.484 42.8607 388.726 42.8607C388.887 42.8603 389.046 42.8916 389.195 42.953C389.343 43.0143 389.479 43.1045 389.592 43.2182C389.706 43.332 389.796 43.467 389.858 43.6157C389.919 43.7644 389.95 43.9238 389.95 44.0846Z" fill="#666666"/>
<path d="M516.405 148.499C516.405 148.741 516.333 148.978 516.199 149.179C516.064 149.381 515.873 149.537 515.649 149.63C515.426 149.723 515.18 149.747 514.942 149.7C514.705 149.652 514.487 149.536 514.315 149.365C514.144 149.194 514.028 148.975 513.981 148.738C513.933 148.501 513.958 148.255 514.05 148.031C514.143 147.807 514.3 147.616 514.501 147.482C514.702 147.347 514.939 147.275 515.181 147.275C515.342 147.275 515.501 147.307 515.649 147.369C515.798 147.43 515.933 147.52 516.046 147.634C516.16 147.748 516.25 147.882 516.312 148.031C516.373 148.179 516.405 148.339 516.405 148.499Z" fill="#666666"/>
<path d="M499.263 282.824C499.263 283.066 499.191 283.303 499.057 283.504C498.923 283.705 498.731 283.862 498.508 283.955C498.284 284.047 498.038 284.072 497.801 284.024C497.563 283.977 497.345 283.861 497.174 283.689C497.003 283.518 496.886 283.3 496.839 283.063C496.792 282.825 496.816 282.579 496.909 282.356C497.001 282.132 497.158 281.941 497.359 281.806C497.561 281.672 497.797 281.6 498.039 281.6C498.2 281.6 498.36 281.631 498.508 281.692C498.657 281.754 498.792 281.844 498.906 281.958C499.019 282.071 499.11 282.206 499.171 282.355C499.232 282.504 499.264 282.663 499.263 282.824Z" fill="#666666"/>
<path d="M495.467 446.107C496.217 446.107 496.825 445.499 496.825 444.749C496.825 443.999 496.217 443.391 495.467 443.391C494.717 443.391 494.109 443.999 494.109 444.749C494.109 445.499 494.717 446.107 495.467 446.107Z" fill="#666666"/>
<path d="M68.1353 222.853H101.087" stroke="#999999" stroke-width="0.94" stroke-miterlimit="10"/>
<path d="M251.584 68.9117H264.863" stroke="#3A3E4E" stroke-width="0.94" stroke-miterlimit="10"/>
<path d="M499.464 229.737H535.37" stroke="#999999" stroke-width="0.94" stroke-miterlimit="10"/>
<path d="M372.573 459.912H398.148" stroke="#999999" stroke-width="0.94" stroke-miterlimit="10"/>
<path d="M169.348 484.943H181.473" stroke="#999999" stroke-width="0.94" stroke-miterlimit="10"/>
<path d="M185.375 484.943H237.708" stroke="#999999" stroke-width="0.94" stroke-miterlimit="10"/>
<path d="M73.7453 183.211H72.6891C72.4081 183.211 72.1385 183.1 71.9398 182.901C71.7411 182.702 71.6295 182.433 71.6295 182.152V181.095C71.6344 180.843 71.5525 180.597 71.3974 180.398C71.2424 180.199 71.0236 180.059 70.7778 180.002C70.6227 179.971 70.4626 179.975 70.3091 180.013C70.1556 180.051 70.0124 180.122 69.8899 180.222C69.7674 180.322 69.6686 180.448 69.6006 180.591C69.5326 180.734 69.4972 180.89 69.4968 181.048V182.168C69.4968 182.449 69.3852 182.719 69.1865 182.918C68.9878 183.116 68.7183 183.228 68.4373 183.228H67.3743C67.1229 183.223 66.8775 183.305 66.6791 183.459C66.4807 183.614 66.3414 183.831 66.2845 184.076C66.2527 184.231 66.2557 184.391 66.2933 184.545C66.331 184.698 66.4023 184.842 66.5021 184.964C66.6019 185.087 66.7277 185.186 66.8705 185.254C67.0132 185.322 67.1692 185.357 67.3273 185.357H68.4305C68.7116 185.357 68.9811 185.469 69.1798 185.668C69.3785 185.866 69.4901 186.136 69.4901 186.417V187.473C69.4852 187.725 69.5671 187.972 69.7222 188.171C69.8773 188.37 70.096 188.509 70.3419 188.566C70.4969 188.598 70.657 188.594 70.8105 188.556C70.9641 188.518 71.1072 188.446 71.2297 188.346C71.3523 188.246 71.4511 188.12 71.519 187.977C71.587 187.834 71.6224 187.678 71.6228 187.52V186.417C71.6228 186.278 71.6502 186.14 71.7034 186.011C71.7567 185.883 71.8347 185.766 71.9331 185.668C72.0315 185.569 72.1483 185.491 72.2769 185.438C72.4054 185.385 72.5432 185.357 72.6824 185.357H73.7856C73.9437 185.357 74.0997 185.322 74.2424 185.254C74.3852 185.186 74.511 185.087 74.6108 184.964C74.7106 184.842 74.7819 184.698 74.8196 184.545C74.8572 184.391 74.8602 184.231 74.8284 184.076C74.7751 183.83 74.6382 183.609 74.4409 183.451C74.2436 183.293 73.9979 183.209 73.7453 183.211Z" fill="black"/>
<path d="M531.688 261.974H530.324C529.961 261.974 529.613 261.83 529.356 261.573C529.1 261.317 528.956 260.969 528.956 260.606V259.241C528.962 258.916 528.856 258.598 528.655 258.342C528.455 258.085 528.173 257.906 527.856 257.833C527.656 257.793 527.451 257.797 527.253 257.846C527.056 257.895 526.872 257.986 526.714 258.114C526.556 258.242 526.428 258.404 526.34 258.587C526.251 258.77 526.205 258.971 526.203 259.174V260.633C526.203 260.995 526.058 261.343 525.802 261.6C525.545 261.856 525.197 262.001 524.834 262.001H523.47C523.144 261.995 522.827 262.101 522.571 262.301C522.314 262.501 522.134 262.783 522.061 263.1C522.021 263.3 522.025 263.506 522.073 263.704C522.122 263.901 522.213 264.086 522.342 264.244C522.47 264.402 522.632 264.53 522.815 264.618C522.998 264.706 523.199 264.752 523.403 264.754H524.828C525.191 264.754 525.539 264.898 525.795 265.154C526.052 265.411 526.196 265.759 526.196 266.122V267.486C526.189 267.812 526.295 268.13 526.495 268.386C526.696 268.643 526.978 268.822 527.296 268.895C527.495 268.935 527.701 268.931 527.899 268.883C528.096 268.834 528.281 268.743 528.439 268.615C528.597 268.486 528.725 268.325 528.813 268.141C528.901 267.958 528.947 267.757 528.949 267.553V266.128C528.949 265.766 529.093 265.418 529.35 265.161C529.606 264.904 529.954 264.76 530.317 264.76H531.742C531.946 264.759 532.146 264.713 532.33 264.624C532.513 264.536 532.675 264.409 532.803 264.25C532.931 264.092 533.023 263.908 533.071 263.71C533.12 263.513 533.124 263.307 533.083 263.107C533.017 262.786 532.843 262.498 532.588 262.291C532.334 262.085 532.016 261.973 531.688 261.974V261.974Z" stroke="#808490" stroke-width="0.94" stroke-miterlimit="10"/>
<path d="M267.653 477.543H266.288C266.108 477.543 265.93 477.508 265.764 477.439C265.598 477.37 265.448 477.269 265.321 477.142C265.194 477.015 265.093 476.864 265.024 476.698C264.955 476.532 264.92 476.354 264.92 476.175V474.81C264.927 474.485 264.821 474.167 264.62 473.91C264.42 473.654 264.137 473.474 263.82 473.402C263.621 473.361 263.415 473.365 263.217 473.414C263.019 473.462 262.835 473.554 262.677 473.682C262.519 473.81 262.391 473.972 262.303 474.155C262.215 474.339 262.168 474.539 262.167 474.743V476.168C262.167 476.531 262.023 476.879 261.766 477.135C261.51 477.392 261.162 477.536 260.799 477.536H259.434C259.109 477.529 258.792 477.635 258.535 477.834C258.279 478.034 258.099 478.316 258.026 478.633C257.985 478.832 257.989 479.038 258.038 479.236C258.086 479.433 258.178 479.618 258.306 479.776C258.434 479.934 258.596 480.062 258.779 480.15C258.963 480.238 259.164 480.284 259.367 480.286H260.792C261.155 480.287 261.503 480.432 261.76 480.689C262.016 480.946 262.16 481.294 262.16 481.657V483.019C262.154 483.344 262.26 483.662 262.46 483.919C262.66 484.176 262.943 484.357 263.26 484.43C263.459 484.47 263.665 484.466 263.863 484.417C264.06 484.368 264.244 484.277 264.402 484.149C264.56 484.02 264.688 483.859 264.776 483.676C264.864 483.493 264.911 483.292 264.913 483.089V481.667C264.913 481.487 264.948 481.309 265.016 481.143C265.085 480.976 265.186 480.825 265.313 480.698C265.44 480.57 265.591 480.469 265.757 480.4C265.923 480.331 266.101 480.296 266.281 480.296H267.706C267.91 480.294 268.111 480.248 268.294 480.16C268.478 480.072 268.639 479.944 268.767 479.786C268.896 479.628 268.987 479.443 269.036 479.246C269.084 479.048 269.088 478.842 269.048 478.643C268.975 478.328 268.797 478.048 268.543 477.848C268.29 477.648 267.976 477.541 267.653 477.543V477.543Z" stroke="#808490" stroke-width="0.94" stroke-miterlimit="10"/>
<path d="M270.402 40.1715H269.038C268.675 40.1715 268.327 40.0274 268.07 39.7708C267.814 39.5142 267.67 39.1662 267.67 38.8034V37.4387C267.676 37.113 267.57 36.795 267.37 36.5381C267.169 36.2811 266.887 36.1007 266.57 36.027C266.37 35.987 266.165 35.9915 265.967 36.0402C265.77 36.0889 265.586 36.1806 265.428 36.3087C265.27 36.4368 265.142 36.5982 265.054 36.7814C264.965 36.9645 264.919 37.1649 264.917 37.3682V38.7933C264.917 39.1562 264.772 39.5042 264.516 39.7607C264.259 40.0173 263.911 40.1614 263.549 40.1614H262.194C261.869 40.1553 261.552 40.2608 261.296 40.4604C261.039 40.66 260.859 40.9415 260.786 41.2579C260.745 41.4574 260.749 41.6633 260.797 41.861C260.846 42.0587 260.938 42.2432 261.066 42.4012C261.194 42.5593 261.356 42.687 261.539 42.7751C261.723 42.8633 261.923 42.9097 262.127 42.911H263.535C263.898 42.911 264.246 43.0552 264.503 43.3118C264.759 43.5683 264.903 43.9163 264.903 44.2791V45.6439C264.897 45.9693 265.002 46.2871 265.203 46.5436C265.403 46.8002 265.686 46.9798 266.003 47.0522C266.203 47.0928 266.408 47.0888 266.606 47.0403C266.804 46.9919 266.988 46.9002 267.146 46.772C267.304 46.6437 267.432 46.4821 267.52 46.2986C267.608 46.1152 267.655 45.9145 267.656 45.7109V44.2858C267.656 43.923 267.8 43.575 268.057 43.3185C268.313 43.0619 268.661 42.9177 269.024 42.9177H270.449C270.653 42.9164 270.854 42.87 271.037 42.7818C271.221 42.6937 271.382 42.566 271.51 42.4079C271.639 42.2499 271.73 42.0654 271.779 41.8677C271.827 41.67 271.831 41.4641 271.791 41.2646C271.717 40.9522 271.54 40.6741 271.288 40.4755C271.035 40.2769 270.723 40.1698 270.402 40.1715V40.1715Z" stroke="black" stroke-width="0.94" stroke-miterlimit="10"/>
<defs>
<filter id="filter0_d_105_752" x="0" y="0" width="578" height="522" filterUnits="userSpaceOnUse" color-interpolation-filters="sRGB">
<feFlood flood-opacity="0" result="BackgroundImageFix"/>
<feColorMatrix in="SourceAlpha" type="matrix" values="0 0 0 0 0 0 0 0 0 0 0 0 0 0 0 0 0 0 127 0" result="hardAlpha"/>
<feOffset/>
<feGaussianBlur stdDeviation="7"/>
<feComposite in2="hardAlpha" operator="out"/>
<feColorMatrix type="matrix" values="0 0 0 0 0 0 0 0 0 0 0 0 0 0 0 0 0 0 0.15 0"/>
<feBlend mode="normal" in2="BackgroundImageFix" result="effect1_dropShadow_105_752"/>
<feBlend mode="normal" in="SourceGraphic" in2="effect1_dropShadow_105_752" result="shape"/>
</filter>
</defs>
</svg>
