<svg width="33" height="30" viewBox="0 0 33 30" fill="none" xmlns="http://www.w3.org/2000/svg">
<path d="M30 4.77L12.885 21.9L6.525 15.54L8.64 13.425L12.885 17.67L27.885 2.67L30 4.77ZM15 27C8.385 27 3 21.615 3 15C3 8.385 8.385 3 15 3C17.355 3 19.56 3.69 21.42 4.875L23.595 2.7C21.15 1.005 18.195 0 15 0C6.72 0 0 6.72 0 15C0 23.28 6.72 30 15 30C17.595 30 20.04 29.34 22.17 28.17L19.92 25.92C18.42 26.61 16.755 27 15 27ZM25.5 19.5H21V22.5H25.5V27H28.5V22.5H33V19.5H28.5V15H25.5V19.5Z" fill="black"/>
</svg>
