<svg width="620" height="453" viewBox="0 0 620 453" fill="none" xmlns="http://www.w3.org/2000/svg">
<g filter="url(#filter0_d_66_1152)">
<rect x="14" y="14" width="525" height="425" rx="8" fill="white"/>
</g>
<path d="M14 22C14 17.5817 17.5817 14 22 14H531.268C535.686 14 539.268 17.5817 539.268 22V59.5764H14V22Z" fill="#F5F5F5"/>
<circle cx="43.6245" cy="36.7882" r="6.83646" fill="#FC655E"/>
<circle cx="66.4129" cy="36.7882" r="6.83646" fill="#F6C046"/>
<circle cx="89.201" cy="36.7882" r="6.83646" fill="#36C752"/>
<g filter="url(#filter1_d_66_1152)">
<rect x="430" y="121" width="147.06" height="48.2198" rx="8" fill="white"/>
</g>
<path d="M497.507 141.929L494.212 151H492.866L496.66 141.047H497.528L497.507 141.929ZM500.269 151L496.967 141.929L496.947 141.047H497.815L501.623 151H500.269ZM500.098 147.316V148.396H494.506V147.316H500.098ZM507.208 149.291V143.604H508.479V151H507.269L507.208 149.291ZM507.447 147.733L507.973 147.719C507.973 148.211 507.921 148.667 507.816 149.086C507.716 149.501 507.552 149.861 507.324 150.166C507.096 150.471 506.797 150.711 506.428 150.884C506.059 151.053 505.61 151.137 505.082 151.137C504.722 151.137 504.391 151.084 504.09 150.98C503.794 150.875 503.539 150.713 503.325 150.494C503.111 150.276 502.944 149.991 502.826 149.64C502.712 149.289 502.655 148.867 502.655 148.375V143.604H503.919V148.389C503.919 148.721 503.956 148.997 504.029 149.216C504.106 149.43 504.209 149.601 504.336 149.729C504.469 149.852 504.614 149.938 504.774 149.988C504.938 150.039 505.107 150.064 505.28 150.064C505.818 150.064 506.244 149.961 506.558 149.756C506.873 149.546 507.098 149.266 507.235 148.915C507.376 148.56 507.447 148.165 507.447 147.733ZM515.069 149.565V140.5H516.34V151H515.178L515.069 149.565ZM510.092 147.384V147.24C510.092 146.675 510.161 146.163 510.297 145.702C510.439 145.237 510.637 144.839 510.892 144.506C511.152 144.173 511.459 143.918 511.815 143.74C512.175 143.558 512.576 143.467 513.018 143.467C513.483 143.467 513.889 143.549 514.235 143.713C514.586 143.873 514.882 144.107 515.124 144.417C515.37 144.722 515.563 145.092 515.705 145.525C515.846 145.957 515.944 146.447 515.999 146.994V147.623C515.948 148.165 515.85 148.653 515.705 149.086C515.563 149.519 515.37 149.888 515.124 150.193C514.882 150.499 514.586 150.734 514.235 150.898C513.884 151.057 513.474 151.137 513.004 151.137C512.571 151.137 512.175 151.043 511.815 150.857C511.459 150.67 511.152 150.408 510.892 150.07C510.637 149.733 510.439 149.337 510.297 148.881C510.161 148.421 510.092 147.922 510.092 147.384ZM511.364 147.24V147.384C511.364 147.753 511.4 148.099 511.473 148.423C511.551 148.747 511.669 149.031 511.829 149.277C511.988 149.524 512.191 149.717 512.437 149.859C512.683 149.995 512.977 150.064 513.319 150.064C513.738 150.064 514.082 149.975 514.351 149.797C514.625 149.619 514.843 149.385 515.007 149.093C515.171 148.801 515.299 148.484 515.39 148.143V146.495C515.335 146.245 515.256 146.003 515.151 145.771C515.051 145.534 514.918 145.324 514.754 145.142C514.595 144.955 514.397 144.807 514.16 144.697C513.927 144.588 513.652 144.533 513.333 144.533C512.986 144.533 512.688 144.606 512.437 144.752C512.191 144.893 511.988 145.089 511.829 145.34C511.669 145.586 511.551 145.873 511.473 146.201C511.4 146.525 511.364 146.871 511.364 147.24ZM519.683 143.604V151H518.412V143.604H519.683ZM518.316 141.642C518.316 141.437 518.377 141.263 518.5 141.122C518.628 140.981 518.815 140.91 519.061 140.91C519.303 140.91 519.487 140.981 519.615 141.122C519.747 141.263 519.813 141.437 519.813 141.642C519.813 141.838 519.747 142.006 519.615 142.148C519.487 142.284 519.303 142.353 519.061 142.353C518.815 142.353 518.628 142.284 518.5 142.148C518.377 142.006 518.316 141.838 518.316 141.642ZM521.378 147.384V147.227C521.378 146.693 521.456 146.199 521.611 145.743C521.766 145.283 521.989 144.884 522.281 144.547C522.572 144.205 522.926 143.941 523.34 143.754C523.755 143.563 524.22 143.467 524.735 143.467C525.254 143.467 525.722 143.563 526.136 143.754C526.556 143.941 526.911 144.205 527.203 144.547C527.499 144.884 527.724 145.283 527.879 145.743C528.034 146.199 528.112 146.693 528.112 147.227V147.384C528.112 147.917 528.034 148.412 527.879 148.867C527.724 149.323 527.499 149.722 527.203 150.064C526.911 150.401 526.558 150.665 526.143 150.857C525.733 151.043 525.268 151.137 524.749 151.137C524.229 151.137 523.762 151.043 523.347 150.857C522.932 150.665 522.577 150.401 522.281 150.064C521.989 149.722 521.766 149.323 521.611 148.867C521.456 148.412 521.378 147.917 521.378 147.384ZM522.643 147.227V147.384C522.643 147.753 522.686 148.102 522.773 148.43C522.86 148.753 522.989 149.04 523.163 149.291C523.34 149.542 523.561 149.74 523.826 149.886C524.09 150.027 524.398 150.098 524.749 150.098C525.095 150.098 525.398 150.027 525.658 149.886C525.922 149.74 526.141 149.542 526.314 149.291C526.487 149.04 526.617 148.753 526.704 148.43C526.795 148.102 526.84 147.753 526.84 147.384V147.227C526.84 146.862 526.795 146.518 526.704 146.194C526.617 145.866 526.485 145.577 526.307 145.326C526.134 145.071 525.915 144.871 525.651 144.725C525.391 144.579 525.086 144.506 524.735 144.506C524.389 144.506 524.083 144.579 523.819 144.725C523.559 144.871 523.34 145.071 523.163 145.326C522.989 145.577 522.86 145.866 522.773 146.194C522.686 146.518 522.643 146.862 522.643 147.227Z" fill="#8B959E"/>
<path d="M480.253 149.273C481.902 149.273 483.234 147.935 483.234 146.277V140.284C483.234 138.626 481.902 137.288 480.253 137.288C478.603 137.288 477.272 138.626 477.272 140.284V146.277C477.272 147.935 478.603 149.273 480.253 149.273Z" fill="black"/>
<path d="M485.221 146.277C485.221 149.034 482.995 151.271 480.253 151.271C477.51 151.271 475.285 149.034 475.285 146.277H473.297C473.297 149.803 475.891 152.699 479.259 153.189V156.265H481.247V153.189C484.615 152.699 487.208 149.803 487.208 146.277H485.221Z" fill="black"/>
<g filter="url(#filter2_d_66_1152)">
<rect x="443" y="283" width="147.06" height="48.2198" rx="8" fill="white"/>
</g>
<path d="M508.238 302.047V312H506.918V302.047H508.238ZM511.704 306.073V312H510.432V304.604H511.635L511.704 306.073ZM511.444 308.021L510.856 308.001C510.861 307.495 510.927 307.028 511.054 306.6C511.182 306.167 511.371 305.791 511.622 305.472C511.872 305.153 512.184 304.907 512.558 304.733C512.932 304.556 513.365 304.467 513.857 304.467C514.203 304.467 514.522 304.517 514.814 304.617C515.106 304.713 515.359 304.866 515.573 305.075C515.787 305.285 515.953 305.554 516.072 305.882C516.19 306.21 516.25 306.606 516.25 307.071V312H514.985V307.133C514.985 306.745 514.919 306.436 514.787 306.203C514.659 305.971 514.477 305.802 514.24 305.697C514.003 305.588 513.725 305.533 513.406 305.533C513.032 305.533 512.72 305.599 512.469 305.731C512.219 305.864 512.018 306.046 511.868 306.278C511.717 306.511 511.608 306.777 511.54 307.078C511.476 307.374 511.444 307.689 511.444 308.021ZM516.236 307.324L515.388 307.584C515.393 307.178 515.459 306.789 515.586 306.415C515.719 306.041 515.908 305.709 516.154 305.417C516.404 305.125 516.712 304.895 517.077 304.727C517.441 304.553 517.858 304.467 518.328 304.467C518.724 304.467 519.075 304.519 519.38 304.624C519.69 304.729 519.95 304.891 520.16 305.109C520.374 305.324 520.536 305.599 520.645 305.937C520.754 306.274 520.809 306.675 520.809 307.14V312H519.538V307.126C519.538 306.711 519.472 306.39 519.339 306.162C519.212 305.93 519.029 305.768 518.792 305.677C518.56 305.581 518.282 305.533 517.958 305.533C517.681 305.533 517.434 305.581 517.22 305.677C517.006 305.772 516.826 305.905 516.68 306.073C516.534 306.237 516.423 306.426 516.345 306.641C516.272 306.855 516.236 307.083 516.236 307.324ZM527.084 310.735V306.928C527.084 306.636 527.025 306.383 526.907 306.169C526.793 305.95 526.62 305.782 526.387 305.663C526.155 305.545 525.868 305.485 525.526 305.485C525.207 305.485 524.927 305.54 524.685 305.649C524.448 305.759 524.261 305.902 524.125 306.08C523.992 306.258 523.926 306.449 523.926 306.654H522.662C522.662 306.39 522.73 306.128 522.867 305.868C523.003 305.608 523.199 305.374 523.455 305.164C523.714 304.95 524.024 304.781 524.384 304.658C524.749 304.531 525.154 304.467 525.601 304.467C526.139 304.467 526.613 304.558 527.023 304.74C527.438 304.923 527.761 305.198 527.994 305.567C528.231 305.932 528.349 306.39 528.349 306.941V310.387C528.349 310.633 528.37 310.895 528.411 311.173C528.456 311.451 528.522 311.69 528.609 311.891V312H527.29C527.226 311.854 527.176 311.66 527.139 311.419C527.103 311.173 527.084 310.945 527.084 310.735ZM527.303 307.516L527.317 308.404H526.039C525.679 308.404 525.357 308.434 525.075 308.493C524.792 308.548 524.555 308.632 524.364 308.746C524.172 308.86 524.027 309.004 523.926 309.177C523.826 309.345 523.776 309.544 523.776 309.771C523.776 310.004 523.828 310.216 523.933 310.407C524.038 310.599 524.195 310.751 524.405 310.865C524.619 310.975 524.881 311.029 525.191 311.029C525.578 311.029 525.92 310.947 526.216 310.783C526.513 310.619 526.747 310.419 526.92 310.182C527.098 309.945 527.194 309.715 527.208 309.491L527.748 310.1C527.716 310.291 527.629 310.503 527.488 310.735C527.347 310.968 527.157 311.191 526.92 311.405C526.688 311.615 526.41 311.79 526.086 311.932C525.767 312.068 525.407 312.137 525.006 312.137C524.505 312.137 524.065 312.039 523.687 311.843C523.313 311.647 523.022 311.385 522.812 311.057C522.607 310.724 522.504 310.353 522.504 309.942C522.504 309.546 522.582 309.197 522.737 308.896C522.892 308.591 523.115 308.338 523.407 308.138C523.698 307.933 524.049 307.778 524.459 307.673C524.87 307.568 525.328 307.516 525.833 307.516H527.303ZM535.13 304.604H536.279V311.843C536.279 312.494 536.147 313.05 535.882 313.511C535.618 313.971 535.249 314.32 534.775 314.557C534.306 314.798 533.763 314.919 533.148 314.919C532.893 314.919 532.592 314.878 532.246 314.796C531.904 314.718 531.567 314.584 531.234 314.393C530.906 314.206 530.63 313.953 530.407 313.634L531.07 312.882C531.38 313.256 531.703 313.515 532.041 313.661C532.382 313.807 532.72 313.88 533.052 313.88C533.453 313.88 533.8 313.805 534.091 313.654C534.383 313.504 534.609 313.281 534.768 312.984C534.932 312.693 535.014 312.333 535.014 311.904V306.23L535.13 304.604ZM530.038 308.384V308.24C530.038 307.675 530.104 307.162 530.236 306.702C530.373 306.237 530.566 305.839 530.817 305.506C531.072 305.173 531.38 304.918 531.74 304.74C532.1 304.558 532.505 304.467 532.957 304.467C533.421 304.467 533.827 304.549 534.173 304.713C534.524 304.872 534.82 305.107 535.062 305.417C535.308 305.722 535.502 306.091 535.643 306.524C535.784 306.957 535.882 307.447 535.937 307.994V308.623C535.887 309.165 535.789 309.653 535.643 310.086C535.502 310.519 535.308 310.888 535.062 311.193C534.82 311.499 534.524 311.733 534.173 311.897C533.822 312.057 533.412 312.137 532.943 312.137C532.501 312.137 532.1 312.043 531.74 311.856C531.384 311.67 531.079 311.408 530.824 311.07C530.569 310.733 530.373 310.337 530.236 309.881C530.104 309.421 530.038 308.922 530.038 308.384ZM531.302 308.24V308.384C531.302 308.753 531.339 309.099 531.412 309.423C531.489 309.746 531.605 310.031 531.76 310.277C531.92 310.523 532.123 310.717 532.369 310.858C532.615 310.995 532.909 311.063 533.25 311.063C533.67 311.063 534.016 310.975 534.29 310.797C534.563 310.619 534.779 310.384 534.939 310.093C535.103 309.801 535.231 309.484 535.322 309.143V307.495C535.272 307.244 535.194 307.003 535.089 306.771C534.989 306.534 534.857 306.324 534.693 306.142C534.533 305.955 534.335 305.807 534.098 305.697C533.861 305.588 533.583 305.533 533.264 305.533C532.918 305.533 532.619 305.606 532.369 305.752C532.123 305.893 531.92 306.089 531.76 306.34C531.605 306.586 531.489 306.873 531.412 307.201C531.339 307.525 531.302 307.871 531.302 308.24ZM541.269 312.137C540.754 312.137 540.287 312.05 539.868 311.877C539.453 311.699 539.095 311.451 538.794 311.132C538.498 310.813 538.27 310.435 538.111 309.997C537.951 309.56 537.872 309.081 537.872 308.562V308.274C537.872 307.673 537.96 307.137 538.138 306.668C538.316 306.194 538.557 305.793 538.863 305.465C539.168 305.137 539.514 304.888 539.902 304.72C540.289 304.551 540.69 304.467 541.105 304.467C541.634 304.467 542.089 304.558 542.472 304.74C542.86 304.923 543.176 305.178 543.422 305.506C543.668 305.829 543.851 306.212 543.969 306.654C544.088 307.092 544.147 307.57 544.147 308.09V308.657H538.624V307.625H542.882V307.529C542.864 307.201 542.796 306.882 542.677 306.572C542.563 306.262 542.381 306.007 542.13 305.807C541.88 305.606 541.538 305.506 541.105 305.506C540.818 305.506 540.554 305.567 540.312 305.69C540.07 305.809 539.863 305.987 539.69 306.224C539.517 306.461 539.382 306.75 539.287 307.092C539.191 307.434 539.143 307.828 539.143 308.274V308.562C539.143 308.912 539.191 309.243 539.287 309.553C539.387 309.858 539.53 310.127 539.717 310.359C539.909 310.592 540.139 310.774 540.408 310.906C540.681 311.038 540.991 311.104 541.337 311.104C541.784 311.104 542.162 311.013 542.472 310.831C542.782 310.649 543.053 310.405 543.286 310.1L544.051 310.708C543.892 310.95 543.689 311.18 543.443 311.398C543.197 311.617 542.894 311.795 542.534 311.932C542.178 312.068 541.757 312.137 541.269 312.137Z" fill="#8B959E"/>
<path d="M498.778 299.998V313.981H484.867V299.998H498.778ZM498.778 298H484.867C483.774 298 482.879 298.899 482.879 299.998V313.981C482.879 315.079 483.774 315.978 484.867 315.978H498.778C499.871 315.978 500.765 315.079 500.765 313.981V299.998C500.765 298.899 499.871 298 498.778 298ZM493.949 306.849L490.968 310.715L488.841 308.128L485.86 311.983H497.784L493.949 306.849Z" fill="black"/>
<g filter="url(#filter3_d_66_1152)">
<rect x="456" y="202" width="147.06" height="48.2198" rx="8" fill="white"/>
</g>
<path d="M526.454 229.489L529.387 221.047H530.815L527.131 231H526.112L526.454 229.489ZM523.713 221.047L526.618 229.489L526.98 231H525.962L522.284 221.047H523.713ZM533.338 223.604V231H532.066V223.604H533.338ZM531.971 221.642C531.971 221.437 532.032 221.263 532.155 221.122C532.283 220.981 532.47 220.91 532.716 220.91C532.957 220.91 533.142 220.981 533.27 221.122C533.402 221.263 533.468 221.437 533.468 221.642C533.468 221.838 533.402 222.006 533.27 222.147C533.142 222.284 532.957 222.353 532.716 222.353C532.47 222.353 532.283 222.284 532.155 222.147C532.032 222.006 531.971 221.838 531.971 221.642ZM540.03 229.564V220.5H541.302V231H540.14L540.03 229.564ZM535.054 227.384V227.24C535.054 226.675 535.122 226.162 535.259 225.702C535.4 225.237 535.598 224.839 535.854 224.506C536.113 224.173 536.421 223.918 536.776 223.74C537.136 223.558 537.537 223.467 537.979 223.467C538.444 223.467 538.85 223.549 539.196 223.713C539.547 223.872 539.843 224.107 540.085 224.417C540.331 224.722 540.525 225.091 540.666 225.524C540.807 225.957 540.905 226.447 540.96 226.994V227.623C540.91 228.165 540.812 228.653 540.666 229.086C540.525 229.519 540.331 229.888 540.085 230.193C539.843 230.499 539.547 230.733 539.196 230.897C538.845 231.057 538.435 231.137 537.966 231.137C537.533 231.137 537.136 231.043 536.776 230.856C536.421 230.67 536.113 230.408 535.854 230.07C535.598 229.733 535.4 229.337 535.259 228.881C535.122 228.421 535.054 227.922 535.054 227.384ZM536.325 227.24V227.384C536.325 227.753 536.362 228.099 536.435 228.423C536.512 228.746 536.631 229.031 536.79 229.277C536.95 229.523 537.152 229.717 537.398 229.858C537.645 229.995 537.938 230.063 538.28 230.063C538.7 230.063 539.044 229.975 539.312 229.797C539.586 229.619 539.805 229.384 539.969 229.093C540.133 228.801 540.26 228.484 540.352 228.143V226.495C540.297 226.244 540.217 226.003 540.112 225.771C540.012 225.534 539.88 225.324 539.716 225.142C539.556 224.955 539.358 224.807 539.121 224.697C538.889 224.588 538.613 224.533 538.294 224.533C537.948 224.533 537.649 224.606 537.398 224.752C537.152 224.893 536.95 225.089 536.79 225.34C536.631 225.586 536.512 225.873 536.435 226.201C536.362 226.525 536.325 226.871 536.325 227.24ZM546.34 231.137C545.825 231.137 545.358 231.05 544.938 230.877C544.524 230.699 544.166 230.451 543.865 230.132C543.569 229.813 543.341 229.435 543.182 228.997C543.022 228.56 542.942 228.081 542.942 227.562V227.274C542.942 226.673 543.031 226.137 543.209 225.668C543.387 225.194 543.628 224.793 543.934 224.465C544.239 224.137 544.585 223.888 544.973 223.72C545.36 223.551 545.761 223.467 546.176 223.467C546.704 223.467 547.16 223.558 547.543 223.74C547.93 223.923 548.247 224.178 548.493 224.506C548.739 224.829 548.922 225.212 549.04 225.654C549.159 226.092 549.218 226.57 549.218 227.09V227.657H543.694V226.625H547.953V226.529C547.935 226.201 547.867 225.882 547.748 225.572C547.634 225.262 547.452 225.007 547.201 224.807C546.951 224.606 546.609 224.506 546.176 224.506C545.889 224.506 545.624 224.567 545.383 224.69C545.141 224.809 544.934 224.987 544.761 225.224C544.588 225.461 544.453 225.75 544.357 226.092C544.262 226.434 544.214 226.828 544.214 227.274V227.562C544.214 227.912 544.262 228.243 544.357 228.553C544.458 228.858 544.601 229.127 544.788 229.359C544.979 229.592 545.21 229.774 545.479 229.906C545.752 230.038 546.062 230.104 546.408 230.104C546.855 230.104 547.233 230.013 547.543 229.831C547.853 229.649 548.124 229.405 548.356 229.1L549.122 229.708C548.963 229.95 548.76 230.18 548.514 230.398C548.268 230.617 547.965 230.795 547.604 230.932C547.249 231.068 546.827 231.137 546.34 231.137ZM550.359 227.384V227.227C550.359 226.693 550.437 226.199 550.592 225.743C550.747 225.283 550.97 224.884 551.262 224.547C551.553 224.205 551.907 223.941 552.321 223.754C552.736 223.562 553.201 223.467 553.716 223.467C554.235 223.467 554.702 223.562 555.117 223.754C555.536 223.941 555.892 224.205 556.184 224.547C556.48 224.884 556.705 225.283 556.86 225.743C557.015 226.199 557.093 226.693 557.093 227.227V227.384C557.093 227.917 557.015 228.411 556.86 228.867C556.705 229.323 556.48 229.722 556.184 230.063C555.892 230.401 555.539 230.665 555.124 230.856C554.714 231.043 554.249 231.137 553.729 231.137C553.21 231.137 552.743 231.043 552.328 230.856C551.913 230.665 551.558 230.401 551.262 230.063C550.97 229.722 550.747 229.323 550.592 228.867C550.437 228.411 550.359 227.917 550.359 227.384ZM551.624 227.227V227.384C551.624 227.753 551.667 228.102 551.754 228.43C551.84 228.753 551.97 229.04 552.144 229.291C552.321 229.542 552.542 229.74 552.807 229.886C553.071 230.027 553.379 230.098 553.729 230.098C554.076 230.098 554.379 230.027 554.639 229.886C554.903 229.74 555.122 229.542 555.295 229.291C555.468 229.04 555.598 228.753 555.685 228.43C555.776 228.102 555.821 227.753 555.821 227.384V227.227C555.821 226.862 555.776 226.518 555.685 226.194C555.598 225.866 555.466 225.577 555.288 225.326C555.115 225.071 554.896 224.87 554.632 224.725C554.372 224.579 554.067 224.506 553.716 224.506C553.369 224.506 553.064 224.579 552.8 224.725C552.54 224.87 552.321 225.071 552.144 225.326C551.97 225.577 551.84 225.866 551.754 226.194C551.667 226.518 551.624 226.862 551.624 227.227Z" fill="#8B959E"/>
<path d="M509.79 223.754V233.076H498.198V223.754H509.79ZM510.95 221.423H497.039C496.401 221.423 495.879 221.948 495.879 222.588V234.241C495.879 234.882 496.401 235.406 497.039 235.406H510.95C511.587 235.406 512.109 234.882 512.109 234.241V230.163L516.746 234.824V222.006L512.109 226.667V222.588C512.109 221.948 511.587 221.423 510.95 221.423Z" fill="black"/>
<path d="M197.089 113V88.2727H212.422V91.4844H200.82V99.0185H211.324V102.218H200.82V113H197.089ZM216.721 113V94.4545H220.331V113H216.721ZM218.544 91.593C217.916 91.593 217.377 91.3838 216.926 90.9652C216.483 90.5386 216.262 90.0315 216.262 89.4439C216.262 88.8482 216.483 88.3411 216.926 87.9226C217.377 87.496 217.916 87.2827 218.544 87.2827C219.172 87.2827 219.707 87.496 220.15 87.9226C220.601 88.3411 220.826 88.8482 220.826 89.4439C220.826 90.0315 220.601 90.5386 220.15 90.9652C219.707 91.3838 219.172 91.593 218.544 91.593ZM228.798 88.2727V113H225.188V88.2727H228.798ZM241.647 113.374C239.82 113.374 238.246 112.984 236.926 112.203C235.614 111.414 234.6 110.308 233.884 108.883C233.175 107.45 232.821 105.772 232.821 103.848C232.821 101.948 233.175 100.274 233.884 98.8253C234.6 97.3764 235.598 96.2455 236.878 95.4325C238.166 94.6196 239.671 94.2131 241.394 94.2131C242.44 94.2131 243.454 94.3861 244.436 94.7322C245.418 95.0784 246.3 95.6217 247.081 96.3622C247.861 97.1027 248.477 98.0646 248.928 99.2479C249.379 100.423 249.604 101.852 249.604 103.534V104.814H234.862V102.109H246.066C246.066 101.16 245.873 100.318 245.487 99.5859C245.1 98.8454 244.557 98.2618 243.857 97.8352C243.165 97.4086 242.352 97.1953 241.418 97.1953C240.404 97.1953 239.518 97.4448 238.762 97.9439C238.013 98.4349 237.434 99.0788 237.023 99.8757C236.621 100.665 236.419 101.522 236.419 102.447V104.56C236.419 105.8 236.637 106.854 237.071 107.724C237.514 108.593 238.13 109.257 238.919 109.716C239.707 110.167 240.629 110.392 241.684 110.392C242.368 110.392 242.992 110.295 243.555 110.102C244.118 109.901 244.605 109.603 245.016 109.209C245.426 108.814 245.74 108.327 245.958 107.748L249.375 108.364C249.101 109.37 248.61 110.251 247.902 111.008C247.201 111.756 246.32 112.34 245.257 112.759C244.203 113.169 243 113.374 241.647 113.374ZM261.678 91.4844V88.2727H280.815V91.4844H273.1V113H269.381V91.4844H261.678ZM284.911 119.955C284.372 119.955 283.881 119.91 283.438 119.822C282.995 119.741 282.665 119.653 282.448 119.556L283.317 116.598C283.977 116.775 284.565 116.852 285.08 116.827C285.595 116.803 286.05 116.61 286.444 116.248C286.847 115.886 287.201 115.294 287.507 114.473L287.954 113.241L281.168 94.4545H285.032L289.728 108.847H289.922L294.618 94.4545H298.494L290.851 115.475C290.497 116.441 290.046 117.258 289.499 117.926C288.952 118.602 288.3 119.109 287.543 119.447C286.786 119.786 285.909 119.955 284.911 119.955ZM301.887 119.955V94.4545H305.412V97.4609H305.714C305.924 97.0746 306.225 96.6278 306.62 96.1207C307.014 95.6136 307.562 95.1709 308.262 94.7926C308.962 94.4062 309.888 94.2131 311.039 94.2131C312.536 94.2131 313.872 94.5914 315.047 95.348C316.223 96.1046 317.144 97.1953 317.812 98.62C318.488 100.045 318.826 101.759 318.826 103.763C318.826 105.768 318.492 107.486 317.824 108.919C317.156 110.344 316.239 111.442 315.071 112.215C313.904 112.98 312.572 113.362 311.075 113.362C309.948 113.362 309.026 113.173 308.31 112.795C307.602 112.416 307.046 111.974 306.644 111.467C306.241 110.96 305.932 110.509 305.714 110.114H305.497V119.955H301.887ZM305.424 103.727C305.424 105.031 305.614 106.174 305.992 107.156C306.37 108.138 306.918 108.907 307.634 109.462C308.35 110.01 309.228 110.283 310.266 110.283C311.345 110.283 312.246 109.998 312.971 109.426C313.695 108.847 314.242 108.062 314.613 107.072C314.991 106.082 315.18 104.967 315.18 103.727C315.18 102.504 314.995 101.405 314.625 100.431C314.263 99.4571 313.715 98.6884 312.983 98.125C312.258 97.5616 311.353 97.2798 310.266 97.2798C309.22 97.2798 308.334 97.5495 307.61 98.0888C306.893 98.6281 306.35 99.3807 305.98 100.347C305.61 101.312 305.424 102.439 305.424 103.727ZM330.864 113.374C329.037 113.374 327.463 112.984 326.143 112.203C324.831 111.414 323.817 110.308 323.101 108.883C322.392 107.45 322.038 105.772 322.038 103.848C322.038 101.948 322.392 100.274 323.101 98.8253C323.817 97.3764 324.815 96.2455 326.095 95.4325C327.383 94.6196 328.888 94.2131 330.611 94.2131C331.657 94.2131 332.671 94.3861 333.653 94.7322C334.635 95.0784 335.517 95.6217 336.297 96.3622C337.078 97.1027 337.694 98.0646 338.145 99.2479C338.595 100.423 338.821 101.852 338.821 103.534V104.814H324.079V102.109H335.283C335.283 101.16 335.09 100.318 334.704 99.5859C334.317 98.8454 333.774 98.2618 333.074 97.8352C332.381 97.4086 331.568 97.1953 330.635 97.1953C329.62 97.1953 328.735 97.4448 327.978 97.9439C327.23 98.4349 326.65 99.0788 326.24 99.8757C325.837 100.665 325.636 101.522 325.636 102.447V104.56C325.636 105.8 325.853 106.854 326.288 107.724C326.731 108.593 327.347 109.257 328.135 109.716C328.924 110.167 329.846 110.392 330.9 110.392C331.584 110.392 332.208 110.295 332.772 110.102C333.335 109.901 333.822 109.603 334.233 109.209C334.643 108.814 334.957 108.327 335.174 107.748L338.591 108.364C338.318 109.37 337.827 110.251 337.118 111.008C336.418 111.756 335.537 112.34 334.474 112.759C333.42 113.169 332.216 113.374 330.864 113.374ZM356.723 98.9822L353.451 99.5618C353.314 99.1432 353.097 98.7448 352.799 98.3665C352.509 97.9882 352.115 97.6783 351.616 97.4368C351.117 97.1953 350.493 97.0746 349.745 97.0746C348.722 97.0746 347.869 97.304 347.185 97.7628C346.501 98.2135 346.159 98.7971 346.159 99.5135C346.159 100.133 346.388 100.632 346.847 101.011C347.306 101.389 348.046 101.699 349.068 101.94L352.014 102.616C353.721 103.011 354.993 103.619 355.83 104.44C356.667 105.261 357.085 106.327 357.085 107.639C357.085 108.75 356.764 109.74 356.12 110.609C355.484 111.471 354.594 112.147 353.451 112.638C352.316 113.129 351 113.374 349.503 113.374C347.426 113.374 345.732 112.932 344.42 112.046C343.108 111.153 342.303 109.885 342.005 108.243L345.495 107.712C345.712 108.621 346.159 109.309 346.835 109.776C347.511 110.235 348.392 110.464 349.479 110.464C350.662 110.464 351.608 110.219 352.316 109.728C353.025 109.229 353.379 108.621 353.379 107.905C353.379 107.325 353.161 106.838 352.727 106.444C352.3 106.049 351.644 105.752 350.759 105.55L347.62 104.862C345.889 104.468 344.609 103.84 343.78 102.979C342.959 102.117 342.549 101.027 342.549 99.7067C342.549 98.612 342.854 97.6541 343.466 96.8331C344.078 96.0121 344.923 95.3722 346.002 94.9134C347.08 94.4465 348.316 94.2131 349.708 94.2131C351.713 94.2131 353.29 94.6477 354.441 95.517C355.592 96.3783 356.353 97.5334 356.723 98.9822Z" fill="black"/>
<path d="M225.795 179.545H227.909V192.023C227.909 193.136 227.705 194.082 227.295 194.861C226.886 195.639 226.31 196.23 225.565 196.634C224.821 197.037 223.943 197.239 222.932 197.239C221.977 197.239 221.128 197.065 220.384 196.719C219.639 196.366 219.054 195.866 218.628 195.219C218.202 194.571 217.989 193.801 217.989 192.909H220.068C220.068 193.403 220.19 193.835 220.435 194.205C220.685 194.568 221.026 194.852 221.457 195.057C221.889 195.261 222.381 195.364 222.932 195.364C223.54 195.364 224.057 195.236 224.483 194.98C224.909 194.724 225.233 194.349 225.455 193.855C225.682 193.355 225.795 192.744 225.795 192.023V179.545ZM232.145 197V179.545H238.043C239.412 179.545 240.531 179.793 241.401 180.287C242.276 180.776 242.923 181.438 243.344 182.273C243.764 183.108 243.974 184.04 243.974 185.068C243.974 186.097 243.764 187.031 243.344 187.872C242.929 188.713 242.287 189.384 241.418 189.884C240.548 190.378 239.435 190.625 238.077 190.625H233.849V188.75H238.009C238.946 188.75 239.699 188.588 240.267 188.264C240.835 187.94 241.247 187.503 241.503 186.952C241.764 186.395 241.895 185.767 241.895 185.068C241.895 184.369 241.764 183.744 241.503 183.193C241.247 182.642 240.832 182.21 240.259 181.898C239.685 181.58 238.923 181.42 237.974 181.42H234.259V197H232.145ZM247.379 197V179.545H257.913V181.42H249.493V187.318H257.368V189.193H249.493V195.125H258.05V197H247.379ZM273.655 185C273.467 184.426 273.22 183.912 272.913 183.457C272.612 182.997 272.251 182.605 271.831 182.281C271.416 181.957 270.945 181.71 270.416 181.54C269.888 181.369 269.308 181.284 268.678 181.284C267.643 181.284 266.703 181.551 265.857 182.085C265.01 182.619 264.337 183.406 263.837 184.446C263.337 185.486 263.087 186.761 263.087 188.273C263.087 189.784 263.339 191.06 263.845 192.099C264.351 193.139 265.036 193.926 265.899 194.46C266.763 194.994 267.734 195.261 268.814 195.261C269.814 195.261 270.695 195.048 271.456 194.622C272.223 194.19 272.82 193.582 273.246 192.798C273.678 192.009 273.893 191.08 273.893 190.011L274.541 190.148H269.291V188.273H275.939V190.148C275.939 191.585 275.632 192.835 275.018 193.898C274.411 194.96 273.57 195.784 272.496 196.369C271.428 196.949 270.2 197.239 268.814 197.239C267.268 197.239 265.911 196.875 264.74 196.148C263.575 195.42 262.666 194.386 262.013 193.045C261.365 191.705 261.041 190.114 261.041 188.273C261.041 186.892 261.226 185.651 261.595 184.548C261.97 183.44 262.499 182.497 263.18 181.719C263.862 180.94 264.669 180.344 265.601 179.929C266.533 179.514 267.558 179.307 268.678 179.307C269.598 179.307 270.456 179.446 271.251 179.724C272.053 179.997 272.766 180.386 273.391 180.892C274.021 181.392 274.547 181.991 274.967 182.69C275.388 183.384 275.678 184.153 275.837 185H273.655Z" fill="#8B959E"/>
<path d="M72.2852 113.938V131H70.0586V113.938H72.2852ZM77.7695 113.938V115.789H64.5859V113.938H77.7695ZM84.0625 131.234C83.1797 131.234 82.3789 131.086 81.6602 130.789C80.9492 130.484 80.3359 130.059 79.8203 129.512C79.3125 128.965 78.9219 128.316 78.6484 127.566C78.375 126.816 78.2383 125.996 78.2383 125.105V124.613C78.2383 123.582 78.3906 122.664 78.6953 121.859C79 121.047 79.4141 120.359 79.9375 119.797C80.4609 119.234 81.0547 118.809 81.7188 118.52C82.3828 118.23 83.0703 118.086 83.7812 118.086C84.6875 118.086 85.4688 118.242 86.125 118.555C86.7891 118.867 87.332 119.305 87.7539 119.867C88.1758 120.422 88.4883 121.078 88.6914 121.836C88.8945 122.586 88.9961 123.406 88.9961 124.297V125.27H79.5273V123.5H86.8281V123.336C86.7969 122.773 86.6797 122.227 86.4766 121.695C86.2812 121.164 85.9688 120.727 85.5391 120.383C85.1094 120.039 84.5234 119.867 83.7812 119.867C83.2891 119.867 82.8359 119.973 82.4219 120.184C82.0078 120.387 81.6523 120.691 81.3555 121.098C81.0586 121.504 80.8281 122 80.6641 122.586C80.5 123.172 80.418 123.848 80.418 124.613V125.105C80.418 125.707 80.5 126.273 80.6641 126.805C80.8359 127.328 81.082 127.789 81.4023 128.188C81.7305 128.586 82.125 128.898 82.5859 129.125C83.0547 129.352 83.5859 129.465 84.1797 129.465C84.9453 129.465 85.5938 129.309 86.125 128.996C86.6562 128.684 87.1211 128.266 87.5195 127.742L88.832 128.785C88.5586 129.199 88.2109 129.594 87.7891 129.969C87.3672 130.344 86.8477 130.648 86.2305 130.883C85.6211 131.117 84.8984 131.234 84.0625 131.234ZM92.9922 118.32L95.7695 122.938L98.582 118.32H101.125L96.9766 124.578L101.254 131H98.7461L95.8164 126.242L92.8867 131H90.3672L94.6328 124.578L90.4961 118.32H92.9922ZM108.742 118.32V119.984H101.887V118.32H108.742ZM104.207 115.238H106.375V127.859C106.375 128.289 106.441 128.613 106.574 128.832C106.707 129.051 106.879 129.195 107.09 129.266C107.301 129.336 107.527 129.371 107.77 129.371C107.949 129.371 108.137 129.355 108.332 129.324C108.535 129.285 108.688 129.254 108.789 129.23L108.801 131C108.629 131.055 108.402 131.105 108.121 131.152C107.848 131.207 107.516 131.234 107.125 131.234C106.594 131.234 106.105 131.129 105.66 130.918C105.215 130.707 104.859 130.355 104.594 129.863C104.336 129.363 104.207 128.691 104.207 127.848V115.238Z" fill="#8B959E"/>
<path d="M104.994 162.273H108.568L116.972 182.798H117.261L125.665 162.273H129.239V187H126.438V168.213H126.196L118.469 187H115.764L108.037 168.213H107.795V187H104.994V162.273ZM135.242 187V162.273H143.597C145.537 162.273 147.123 162.623 148.355 163.323C149.594 164.015 150.512 164.953 151.107 166.136C151.703 167.32 152.001 168.64 152.001 170.097C152.001 171.554 151.703 172.878 151.107 174.069C150.52 175.26 149.61 176.21 148.379 176.918C147.147 177.619 145.57 177.969 143.646 177.969H137.657V175.312H143.549C144.877 175.312 145.944 175.083 146.749 174.624C147.554 174.165 148.137 173.546 148.499 172.765C148.87 171.976 149.055 171.087 149.055 170.097C149.055 169.107 148.87 168.221 148.499 167.44C148.137 166.66 147.55 166.048 146.737 165.605C145.924 165.154 144.845 164.929 143.501 164.929H138.237V187H135.242ZM155.81 181.929V179.466L166.677 162.273H168.464V166.088H167.256L159.046 179.08V179.273H173.68V181.929H155.81ZM167.449 187V181.18V180.033V162.273H170.299V187H167.449Z" fill="black"/>
<path d="M123.114 359.545H125.636L131.568 374.034H131.773L137.705 359.545H140.227V377H138.25V363.739H138.08L132.625 377H130.716L125.261 363.739H125.091V377H123.114V359.545ZM144.465 377V359.545H150.363C151.732 359.545 152.852 359.793 153.721 360.287C154.596 360.776 155.244 361.438 155.664 362.273C156.085 363.108 156.295 364.04 156.295 365.068C156.295 366.097 156.085 367.031 155.664 367.872C155.249 368.713 154.607 369.384 153.738 369.884C152.869 370.378 151.755 370.625 150.397 370.625H146.17V368.75H150.329C151.266 368.75 152.019 368.588 152.587 368.264C153.156 367.94 153.567 367.503 153.823 366.952C154.085 366.395 154.215 365.767 154.215 365.068C154.215 364.369 154.085 363.744 153.823 363.193C153.567 362.642 153.153 362.21 152.579 361.898C152.005 361.58 151.244 361.42 150.295 361.42H146.579V377H144.465ZM165.29 377.239C164.165 377.239 163.163 377.045 162.282 376.659C161.407 376.273 160.711 375.736 160.194 375.048C159.683 374.355 159.404 373.551 159.359 372.636H161.506C161.552 373.199 161.745 373.685 162.086 374.094C162.427 374.497 162.873 374.81 163.424 375.031C163.975 375.253 164.586 375.364 165.256 375.364C166.006 375.364 166.671 375.233 167.251 374.972C167.83 374.71 168.285 374.347 168.614 373.881C168.944 373.415 169.109 372.875 169.109 372.261C169.109 371.619 168.95 371.054 168.631 370.565C168.313 370.071 167.847 369.685 167.234 369.406C166.62 369.128 165.87 368.989 164.984 368.989H163.586V367.114H164.984C165.677 367.114 166.285 366.989 166.808 366.739C167.336 366.489 167.748 366.136 168.043 365.682C168.344 365.227 168.495 364.693 168.495 364.08C168.495 363.489 168.364 362.974 168.103 362.537C167.842 362.099 167.472 361.759 166.995 361.514C166.523 361.27 165.967 361.148 165.325 361.148C164.722 361.148 164.154 361.259 163.62 361.48C163.092 361.696 162.66 362.011 162.325 362.426C161.989 362.835 161.808 363.33 161.779 363.909H159.734C159.768 362.994 160.043 362.193 160.56 361.506C161.077 360.812 161.754 360.273 162.589 359.886C163.43 359.5 164.353 359.307 165.359 359.307C166.438 359.307 167.364 359.526 168.137 359.963C168.91 360.395 169.504 360.966 169.918 361.676C170.333 362.386 170.54 363.153 170.54 363.977C170.54 364.96 170.282 365.798 169.765 366.491C169.254 367.185 168.558 367.665 167.677 367.932V368.068C168.779 368.25 169.64 368.719 170.259 369.474C170.879 370.224 171.188 371.153 171.188 372.261C171.188 373.21 170.93 374.062 170.413 374.818C169.901 375.568 169.202 376.159 168.316 376.591C167.43 377.023 166.421 377.239 165.29 377.239Z" fill="#8B959E"/>
<path d="M369.84 368.929L366.545 378H365.198L368.992 368.047H369.86L369.84 368.929ZM372.602 378L369.3 368.929L369.279 368.047H370.147L373.955 378H372.602ZM372.431 374.315V375.396H366.839V374.315H372.431ZM378.973 368.929L375.678 378H374.331L378.125 368.047H378.993L378.973 368.929ZM381.734 378L378.433 368.929L378.412 368.047H379.28L383.088 378H381.734ZM381.563 374.315V375.396H375.972V374.315H381.563ZM390.348 374.835H391.66C391.592 375.464 391.412 376.027 391.12 376.523C390.828 377.02 390.416 377.414 389.883 377.706C389.35 377.993 388.684 378.137 387.887 378.137C387.303 378.137 386.772 378.027 386.294 377.809C385.82 377.59 385.412 377.28 385.07 376.879C384.729 376.473 384.464 375.988 384.277 375.423C384.095 374.853 384.004 374.22 384.004 373.522V372.531C384.004 371.834 384.095 371.203 384.277 370.638C384.464 370.068 384.731 369.58 385.077 369.175C385.428 368.769 385.85 368.457 386.342 368.238C386.834 368.02 387.388 367.91 388.003 367.91C388.755 367.91 389.391 368.051 389.91 368.334C390.43 368.617 390.833 369.008 391.12 369.51C391.412 370.007 391.592 370.583 391.66 371.239H390.348C390.284 370.774 390.165 370.376 389.992 370.043C389.819 369.706 389.573 369.446 389.254 369.264C388.935 369.081 388.518 368.99 388.003 368.99C387.561 368.99 387.171 369.075 386.834 369.243C386.501 369.412 386.221 369.651 385.993 369.961C385.77 370.271 385.601 370.642 385.487 371.075C385.373 371.508 385.316 371.989 385.316 372.518V373.522C385.316 374.01 385.367 374.468 385.467 374.896C385.572 375.325 385.729 375.701 385.938 376.024C386.148 376.348 386.415 376.603 386.738 376.79C387.062 376.972 387.445 377.063 387.887 377.063C388.447 377.063 388.894 376.975 389.227 376.797C389.559 376.619 389.81 376.364 389.979 376.031C390.152 375.699 390.275 375.3 390.348 374.835Z" fill="black"/>
<path d="M234.5 396H229.114V378.545H234.739C236.432 378.545 237.881 378.895 239.085 379.594C240.29 380.287 241.213 381.284 241.855 382.585C242.497 383.881 242.818 385.432 242.818 387.239C242.818 389.057 242.494 390.622 241.847 391.935C241.199 393.241 240.256 394.247 239.017 394.952C237.778 395.651 236.273 396 234.5 396ZM231.227 394.125H234.364C235.807 394.125 237.003 393.847 237.952 393.29C238.901 392.733 239.608 391.94 240.074 390.912C240.54 389.884 240.773 388.659 240.773 387.239C240.773 385.83 240.543 384.616 240.082 383.599C239.622 382.577 238.935 381.793 238.02 381.247C237.105 380.696 235.966 380.42 234.602 380.42H231.227V394.125ZM261.091 387.273C261.091 389.114 260.759 390.705 260.094 392.045C259.429 393.386 258.517 394.42 257.358 395.148C256.199 395.875 254.875 396.239 253.386 396.239C251.898 396.239 250.574 395.875 249.415 395.148C248.256 394.42 247.344 393.386 246.679 392.045C246.014 390.705 245.682 389.114 245.682 387.273C245.682 385.432 246.014 383.841 246.679 382.5C247.344 381.159 248.256 380.125 249.415 379.398C250.574 378.67 251.898 378.307 253.386 378.307C254.875 378.307 256.199 378.67 257.358 379.398C258.517 380.125 259.429 381.159 260.094 382.5C260.759 383.841 261.091 385.432 261.091 387.273ZM259.045 387.273C259.045 385.761 258.793 384.486 258.287 383.446C257.787 382.406 257.108 381.619 256.25 381.085C255.398 380.551 254.443 380.284 253.386 380.284C252.33 380.284 251.372 380.551 250.514 381.085C249.662 381.619 248.983 382.406 248.477 383.446C247.977 384.486 247.727 385.761 247.727 387.273C247.727 388.784 247.977 390.06 248.477 391.099C248.983 392.139 249.662 392.926 250.514 393.46C251.372 393.994 252.33 394.261 253.386 394.261C254.443 394.261 255.398 393.994 256.25 393.46C257.108 392.926 257.787 392.139 258.287 391.099C258.793 390.06 259.045 388.784 259.045 387.273ZM278.69 384H276.577C276.452 383.392 276.233 382.858 275.92 382.398C275.614 381.938 275.239 381.551 274.795 381.239C274.358 380.92 273.872 380.682 273.338 380.523C272.804 380.364 272.247 380.284 271.668 380.284C270.611 380.284 269.653 380.551 268.795 381.085C267.943 381.619 267.264 382.406 266.759 383.446C266.259 384.486 266.009 385.761 266.009 387.273C266.009 388.784 266.259 390.06 266.759 391.099C267.264 392.139 267.943 392.926 268.795 393.46C269.653 393.994 270.611 394.261 271.668 394.261C272.247 394.261 272.804 394.182 273.338 394.023C273.872 393.864 274.358 393.628 274.795 393.315C275.239 392.997 275.614 392.608 275.92 392.148C276.233 391.682 276.452 391.148 276.577 390.545H278.69C278.531 391.437 278.241 392.236 277.821 392.94C277.401 393.645 276.878 394.244 276.253 394.739C275.628 395.227 274.926 395.599 274.148 395.855C273.375 396.111 272.548 396.239 271.668 396.239C270.179 396.239 268.855 395.875 267.696 395.148C266.537 394.42 265.625 393.386 264.96 392.045C264.295 390.705 263.963 389.114 263.963 387.273C263.963 385.432 264.295 383.841 264.96 382.5C265.625 381.159 266.537 380.125 267.696 379.398C268.855 378.67 270.179 378.307 271.668 378.307C272.548 378.307 273.375 378.435 274.148 378.69C274.926 378.946 275.628 379.321 276.253 379.815C276.878 380.304 277.401 380.901 277.821 381.605C278.241 382.304 278.531 383.102 278.69 384Z" fill="#8B959E"/>
<path d="M420.994 406V381.273H429.349C431.289 381.273 432.875 381.623 434.107 382.323C435.346 383.015 436.264 383.953 436.859 385.136C437.455 386.32 437.753 387.64 437.753 389.097C437.753 390.554 437.455 391.878 436.859 393.069C436.272 394.26 435.362 395.21 434.131 395.918C432.899 396.619 431.321 396.969 429.398 396.969H423.409V394.312H429.301C430.629 394.312 431.696 394.083 432.501 393.624C433.306 393.165 433.889 392.546 434.251 391.765C434.622 390.976 434.807 390.087 434.807 389.097C434.807 388.107 434.622 387.221 434.251 386.44C433.889 385.66 433.302 385.048 432.489 384.605C431.676 384.154 430.597 383.929 429.253 383.929H423.989V406H420.994ZM450.207 406H442.576V381.273H450.545C452.944 381.273 454.996 381.768 456.703 382.758C458.409 383.74 459.717 385.152 460.627 386.996C461.536 388.831 461.991 391.028 461.991 393.588C461.991 396.164 461.532 398.381 460.615 400.241C459.697 402.092 458.361 403.517 456.606 404.515C454.851 405.505 452.718 406 450.207 406ZM445.571 403.344H450.014C452.058 403.344 453.753 402.949 455.097 402.161C456.441 401.372 457.443 400.249 458.103 398.792C458.763 397.335 459.093 395.6 459.093 393.588C459.093 391.592 458.767 389.873 458.115 388.433C457.463 386.984 456.489 385.873 455.194 385.1C453.898 384.319 452.284 383.929 450.352 383.929H445.571V403.344ZM467.014 406V381.273H481.841V383.929H470.008V392.284H480.73V394.94H470.008V406H467.014Z" fill="black"/>
<path d="M336.114 159.545H338.636L344.568 174.034H344.773L350.705 159.545H353.227V177H351.25V163.739H351.08L345.625 177H343.716L338.261 163.739H338.091V177H336.114V159.545ZM372.192 168.273C372.192 170.114 371.86 171.705 371.195 173.045C370.531 174.386 369.619 175.42 368.46 176.148C367.3 176.875 365.977 177.239 364.488 177.239C362.999 177.239 361.675 176.875 360.516 176.148C359.357 175.42 358.445 174.386 357.781 173.045C357.116 171.705 356.783 170.114 356.783 168.273C356.783 166.432 357.116 164.841 357.781 163.5C358.445 162.159 359.357 161.125 360.516 160.398C361.675 159.67 362.999 159.307 364.488 159.307C365.977 159.307 367.3 159.67 368.46 160.398C369.619 161.125 370.531 162.159 371.195 163.5C371.86 164.841 372.192 166.432 372.192 168.273ZM370.147 168.273C370.147 166.761 369.894 165.486 369.388 164.446C368.888 163.406 368.21 162.619 367.352 162.085C366.499 161.551 365.545 161.284 364.488 161.284C363.431 161.284 362.474 161.551 361.616 162.085C360.763 162.619 360.085 163.406 359.579 164.446C359.079 165.486 358.829 166.761 358.829 168.273C358.829 169.784 359.079 171.06 359.579 172.099C360.085 173.139 360.763 173.926 361.616 174.46C362.474 174.994 363.431 175.261 364.488 175.261C365.545 175.261 366.499 174.994 367.352 174.46C368.21 173.926 368.888 173.139 369.388 172.099C369.894 171.06 370.147 169.784 370.147 168.273ZM375.642 159.545L380.824 174.239H381.028L386.21 159.545H388.426L382.017 177H379.835L373.426 159.545H375.642Z" fill="#8B959E"/>
<path d="M126.403 246L122.426 231.455H124.216L127.256 243.301H127.398L130.494 231.455H132.483L135.58 243.301H135.722L138.761 231.455H140.551L136.574 246H134.756L131.545 234.409H131.432L128.222 246H126.403ZM142.746 231.455H144.848L149.791 243.528H149.962L154.905 231.455H157.007V246H155.359V234.949H155.217L150.672 246H149.081L144.536 234.949H144.393V246H142.746V231.455ZM161.135 231.455L165.453 243.699H165.624L169.942 231.455H171.789L166.448 246H164.63L159.289 231.455H161.135Z" fill="#8B959E"/>
<path d="M350.754 300.97L342.752 323H339.481L348.695 298.828H350.804L350.754 300.97ZM357.461 323L349.442 300.97L349.393 298.828H351.501L360.748 323H357.461ZM357.046 314.052V316.675H343.466V314.052H357.046ZM370.327 319.331L377.449 298.828H380.919L371.971 323H369.497L370.327 319.331ZM363.67 298.828L370.726 319.331L371.605 323H369.132L360.2 298.828H363.67ZM387.609 298.828V323H384.405V298.828H387.609Z" fill="#8B959E"/>
<path d="M318.645 215.078H315.2V214.206H318.645C319.364 214.206 319.948 214.09 320.396 213.857C320.85 213.619 321.179 213.299 321.384 212.895C321.594 212.491 321.699 212.037 321.699 211.533C321.699 211.041 321.594 210.587 321.384 210.172C321.179 209.757 320.85 209.425 320.396 209.176C319.948 208.921 319.364 208.794 318.645 208.794H315.557V220H314.536V207.914H318.645C319.53 207.914 320.274 208.066 320.877 208.371C321.486 208.675 321.945 209.098 322.255 209.641C322.565 210.183 322.72 210.808 322.72 211.517C322.72 212.258 322.565 212.897 322.255 213.434C321.945 213.965 321.489 214.372 320.886 214.654C320.283 214.937 319.535 215.078 318.645 215.078ZM334.009 207.914V220H332.98L326.032 209.674V220H325.011V207.914H326.032L332.997 218.24V207.914H334.009ZM345.813 214.256V218.556C345.675 218.76 345.437 218.987 345.099 219.236C344.762 219.485 344.308 219.704 343.738 219.892C343.168 220.075 342.459 220.166 341.613 220.166C340.904 220.166 340.254 220.039 339.662 219.784C339.07 219.53 338.555 219.162 338.118 218.68C337.687 218.193 337.352 217.609 337.114 216.929C336.881 216.248 336.765 215.484 336.765 214.638V213.177C336.765 212.347 336.873 211.6 337.089 210.936C337.305 210.266 337.617 209.693 338.027 209.217C338.436 208.741 338.929 208.379 339.504 208.13C340.085 207.875 340.736 207.748 341.455 207.748C342.352 207.748 343.107 207.903 343.721 208.213C344.335 208.523 344.814 208.949 345.157 209.491C345.506 210.028 345.722 210.637 345.805 211.317H344.784C344.706 210.836 344.546 210.393 344.302 209.989C344.059 209.58 343.705 209.25 343.24 209.001C342.78 208.752 342.186 208.628 341.455 208.628C340.868 208.628 340.346 208.736 339.886 208.952C339.432 209.167 339.051 209.475 338.741 209.873C338.431 210.271 338.196 210.75 338.035 211.309C337.875 211.862 337.794 212.479 337.794 213.16V214.638C337.794 215.346 337.883 215.985 338.06 216.555C338.243 217.125 338.503 217.615 338.84 218.024C339.178 218.434 339.582 218.749 340.052 218.971C340.523 219.187 341.046 219.294 341.621 219.294C342.235 219.294 342.758 219.236 343.19 219.12C343.622 219.004 343.967 218.866 344.228 218.705C344.493 218.539 344.684 218.384 344.8 218.24V215.127H341.555V214.256H345.813Z" fill="black"/>
<path d="M206.938 230.023C206.938 229.82 206.906 229.638 206.844 229.477C206.786 229.31 206.677 229.159 206.516 229.023C206.354 228.883 206.128 228.745 205.836 228.609C205.544 228.474 205.167 228.333 204.703 228.188C204.188 228.021 203.698 227.833 203.234 227.625C202.776 227.417 202.37 227.174 202.016 226.898C201.667 226.617 201.391 226.292 201.188 225.922C200.99 225.552 200.891 225.122 200.891 224.633C200.891 224.159 200.995 223.729 201.203 223.344C201.411 222.953 201.703 222.62 202.078 222.344C202.453 222.062 202.896 221.846 203.406 221.695C203.922 221.544 204.487 221.469 205.102 221.469C205.94 221.469 206.672 221.62 207.297 221.922C207.922 222.224 208.406 222.638 208.75 223.164C209.099 223.69 209.273 224.292 209.273 224.969H206.945C206.945 224.635 206.875 224.344 206.734 224.094C206.599 223.839 206.391 223.638 206.109 223.492C205.833 223.346 205.484 223.273 205.062 223.273C204.656 223.273 204.318 223.336 204.047 223.461C203.776 223.581 203.573 223.745 203.438 223.953C203.302 224.156 203.234 224.385 203.234 224.641C203.234 224.833 203.281 225.008 203.375 225.164C203.474 225.32 203.62 225.466 203.812 225.602C204.005 225.737 204.242 225.865 204.523 225.984C204.805 226.104 205.13 226.221 205.5 226.336C206.12 226.523 206.664 226.734 207.133 226.969C207.607 227.203 208.003 227.466 208.32 227.758C208.638 228.049 208.878 228.38 209.039 228.75C209.201 229.12 209.281 229.539 209.281 230.008C209.281 230.503 209.185 230.945 208.992 231.336C208.799 231.727 208.521 232.057 208.156 232.328C207.792 232.599 207.357 232.805 206.852 232.945C206.346 233.086 205.781 233.156 205.156 233.156C204.594 233.156 204.039 233.083 203.492 232.938C202.945 232.786 202.448 232.56 202 232.258C201.557 231.956 201.203 231.57 200.938 231.102C200.672 230.633 200.539 230.078 200.539 229.438H202.891C202.891 229.792 202.945 230.091 203.055 230.336C203.164 230.581 203.318 230.779 203.516 230.93C203.719 231.081 203.958 231.19 204.234 231.258C204.516 231.326 204.823 231.359 205.156 231.359C205.562 231.359 205.896 231.302 206.156 231.188C206.422 231.073 206.617 230.914 206.742 230.711C206.872 230.508 206.938 230.279 206.938 230.023ZM214.977 230.625L217.656 221.625H220.266L216.305 233H214.586L214.977 230.625ZM212.508 221.625L215.18 230.625L215.586 233H213.852L209.914 221.625H212.508ZM230.234 227.055V231.562C230.057 231.776 229.784 232.008 229.414 232.258C229.044 232.503 228.568 232.714 227.984 232.891C227.401 233.068 226.695 233.156 225.867 233.156C225.133 233.156 224.464 233.036 223.859 232.797C223.255 232.552 222.734 232.195 222.297 231.727C221.865 231.258 221.531 230.685 221.297 230.008C221.062 229.326 220.945 228.547 220.945 227.672V226.961C220.945 226.086 221.057 225.307 221.281 224.625C221.51 223.943 221.836 223.367 222.258 222.898C222.68 222.43 223.182 222.073 223.766 221.828C224.349 221.583 224.997 221.461 225.711 221.461C226.701 221.461 227.513 221.622 228.148 221.945C228.784 222.263 229.268 222.706 229.602 223.273C229.94 223.836 230.148 224.482 230.227 225.211H227.953C227.896 224.826 227.786 224.49 227.625 224.203C227.464 223.917 227.232 223.693 226.93 223.531C226.633 223.37 226.247 223.289 225.773 223.289C225.383 223.289 225.034 223.37 224.727 223.531C224.424 223.688 224.169 223.919 223.961 224.227C223.753 224.534 223.594 224.914 223.484 225.367C223.375 225.82 223.32 226.346 223.32 226.945V227.672C223.32 228.266 223.378 228.792 223.492 229.25C223.607 229.703 223.776 230.086 224 230.398C224.229 230.706 224.51 230.938 224.844 231.094C225.177 231.25 225.565 231.328 226.008 231.328C226.378 231.328 226.685 231.297 226.93 231.234C227.18 231.172 227.38 231.096 227.531 231.008C227.688 230.914 227.807 230.826 227.891 230.742V228.727H225.75V227.055H230.234Z" fill="black"/>
<path d="M301.936 350.749L299.229 359H297.048L300.746 349.047H302.134L301.936 350.749ZM304.185 359L301.471 350.749L301.252 349.047H302.653L306.372 359H304.185ZM304.062 355.295V356.901H298.805V355.295H304.062ZM310.323 356.922L312.668 349.047H314.951L311.485 359H309.981L310.323 356.922ZM308.163 349.047L310.501 356.922L310.856 359H309.339L305.894 349.047H308.163ZM318.062 349.047V359H316.018V349.047H318.062ZM322.033 349.047V359H319.982V349.047H322.033ZM325.998 353.299V354.898H321.473V353.299H325.998ZM326.477 349.047V350.653H321.473V349.047H326.477Z" fill="black"/>
<path d="M202.297 324.449L196.648 340H194.34L200.844 322.938H202.332L202.297 324.449ZM207.031 340L201.371 324.449L201.336 322.938H202.824L209.352 340H207.031ZM206.738 333.684V335.535H197.152V333.684H206.738ZM217.93 333.309H213.371V331.469H217.93C218.812 331.469 219.527 331.328 220.074 331.047C220.621 330.766 221.02 330.375 221.27 329.875C221.527 329.375 221.656 328.805 221.656 328.164C221.656 327.578 221.527 327.027 221.27 326.512C221.02 325.996 220.621 325.582 220.074 325.27C219.527 324.949 218.812 324.789 217.93 324.789H213.898V340H211.637V322.938H217.93C219.219 322.938 220.309 323.16 221.199 323.605C222.09 324.051 222.766 324.668 223.227 325.457C223.688 326.238 223.918 327.133 223.918 328.141C223.918 329.234 223.688 330.168 223.227 330.941C222.766 331.715 222.09 332.305 221.199 332.711C220.309 333.109 219.219 333.309 217.93 333.309ZM239.902 322.938V340H237.629L229.039 326.84V340H226.777V322.938H229.039L237.664 336.133V322.938H239.902ZM256.52 331.504V337.75C256.309 338.062 255.973 338.414 255.512 338.805C255.051 339.188 254.414 339.523 253.602 339.812C252.797 340.094 251.758 340.234 250.484 340.234C249.445 340.234 248.488 340.055 247.613 339.695C246.746 339.328 245.992 338.797 245.352 338.102C244.719 337.398 244.227 336.547 243.875 335.547C243.531 334.539 243.359 333.398 243.359 332.125V330.801C243.359 329.527 243.508 328.391 243.805 327.391C244.109 326.391 244.555 325.543 245.141 324.848C245.727 324.145 246.445 323.613 247.297 323.254C248.148 322.887 249.125 322.703 250.227 322.703C251.531 322.703 252.621 322.93 253.496 323.383C254.379 323.828 255.066 324.445 255.559 325.234C256.059 326.023 256.379 326.922 256.52 327.93H254.258C254.156 327.312 253.953 326.75 253.648 326.242C253.352 325.734 252.926 325.328 252.371 325.023C251.816 324.711 251.102 324.555 250.227 324.555C249.438 324.555 248.754 324.699 248.176 324.988C247.598 325.277 247.121 325.691 246.746 326.23C246.371 326.77 246.09 327.422 245.902 328.188C245.723 328.953 245.633 329.816 245.633 330.777V332.125C245.633 333.109 245.746 333.988 245.973 334.762C246.207 335.535 246.539 336.195 246.969 336.742C247.398 337.281 247.91 337.691 248.504 337.973C249.105 338.254 249.77 338.395 250.496 338.395C251.301 338.395 251.953 338.328 252.453 338.195C252.953 338.055 253.344 337.891 253.625 337.703C253.906 337.508 254.121 337.324 254.27 337.152V333.332H250.32V331.504H256.52Z" fill="#8B959E"/>
<path d="M80.7812 297.406L86.4258 277.562H89.1602L87.5781 285.277L81.5039 306H78.7891L80.7812 297.406ZM74.9414 277.562L79.4336 297.016L80.7812 306H78.0859L71.1914 277.562H74.9414ZM96.4648 296.996L100.859 277.562H104.629L97.7539 306H95.0586L96.4648 296.996ZM89.5703 277.562L95.0586 297.406L97.0508 306H94.3359L88.4766 285.277L86.875 277.562H89.5703ZM116.406 306.391C114.935 306.391 113.6 306.143 112.402 305.648C111.217 305.141 110.195 304.431 109.336 303.52C108.49 302.608 107.839 301.527 107.383 300.277C106.927 299.027 106.699 297.66 106.699 296.176V295.355C106.699 293.637 106.953 292.107 107.461 290.766C107.969 289.411 108.659 288.266 109.531 287.328C110.404 286.391 111.393 285.681 112.5 285.199C113.607 284.717 114.753 284.477 115.938 284.477C117.448 284.477 118.75 284.737 119.844 285.258C120.951 285.779 121.855 286.508 122.559 287.445C123.262 288.37 123.783 289.464 124.121 290.727C124.46 291.977 124.629 293.344 124.629 294.828V296.449H108.848V293.5H121.016V293.227C120.964 292.289 120.768 291.378 120.43 290.492C120.104 289.607 119.583 288.878 118.867 288.305C118.151 287.732 117.174 287.445 115.938 287.445C115.117 287.445 114.362 287.621 113.672 287.973C112.982 288.311 112.389 288.819 111.895 289.496C111.4 290.173 111.016 291 110.742 291.977C110.469 292.953 110.332 294.079 110.332 295.355V296.176C110.332 297.178 110.469 298.122 110.742 299.008C111.029 299.88 111.439 300.648 111.973 301.312C112.52 301.977 113.177 302.497 113.945 302.875C114.727 303.253 115.612 303.441 116.602 303.441C117.878 303.441 118.958 303.181 119.844 302.66C120.729 302.139 121.504 301.443 122.168 300.57L124.355 302.309C123.9 302.999 123.32 303.656 122.617 304.281C121.914 304.906 121.048 305.414 120.02 305.805C119.004 306.195 117.799 306.391 116.406 306.391ZM128.828 276H132.461V301.898L132.148 306H128.828V276ZM146.738 295.258V295.668C146.738 297.204 146.556 298.63 146.191 299.945C145.827 301.247 145.293 302.38 144.59 303.344C143.887 304.307 143.027 305.056 142.012 305.59C140.996 306.124 139.831 306.391 138.516 306.391C137.174 306.391 135.996 306.163 134.98 305.707C133.978 305.238 133.132 304.568 132.441 303.695C131.751 302.823 131.198 301.768 130.781 300.531C130.378 299.294 130.098 297.901 129.941 296.352V294.555C130.098 292.992 130.378 291.592 130.781 290.355C131.198 289.118 131.751 288.064 132.441 287.191C133.132 286.306 133.978 285.635 134.98 285.18C135.983 284.711 137.148 284.477 138.477 284.477C139.805 284.477 140.983 284.737 142.012 285.258C143.04 285.766 143.9 286.495 144.59 287.445C145.293 288.396 145.827 289.535 146.191 290.863C146.556 292.178 146.738 293.643 146.738 295.258ZM143.105 295.668V295.258C143.105 294.203 143.008 293.214 142.812 292.289C142.617 291.352 142.305 290.531 141.875 289.828C141.445 289.112 140.879 288.552 140.176 288.148C139.473 287.732 138.607 287.523 137.578 287.523C136.667 287.523 135.872 287.68 135.195 287.992C134.531 288.305 133.965 288.728 133.496 289.262C133.027 289.783 132.643 290.382 132.344 291.059C132.057 291.723 131.842 292.413 131.699 293.129V297.836C131.908 298.747 132.246 299.626 132.715 300.473C133.197 301.306 133.835 301.99 134.629 302.523C135.436 303.057 136.432 303.324 137.617 303.324C138.594 303.324 139.427 303.129 140.117 302.738C140.82 302.335 141.387 301.781 141.816 301.078C142.259 300.375 142.585 299.561 142.793 298.637C143.001 297.712 143.105 296.723 143.105 295.668ZM162.344 294.848H154.746V291.781H162.344C163.815 291.781 165.007 291.547 165.918 291.078C166.829 290.609 167.493 289.958 167.91 289.125C168.34 288.292 168.555 287.341 168.555 286.273C168.555 285.297 168.34 284.379 167.91 283.52C167.493 282.66 166.829 281.97 165.918 281.449C165.007 280.915 163.815 280.648 162.344 280.648H155.625V306H151.855V277.562H162.344C164.492 277.562 166.309 277.934 167.793 278.676C169.277 279.418 170.404 280.447 171.172 281.762C171.94 283.064 172.324 284.555 172.324 286.234C172.324 288.057 171.94 289.613 171.172 290.902C170.404 292.191 169.277 293.174 167.793 293.852C166.309 294.516 164.492 294.848 162.344 294.848Z" fill="black"/>
<path d="M383.237 254.38V262.188C382.974 262.578 382.554 263.018 381.978 263.506C381.401 263.984 380.605 264.404 379.59 264.766C378.584 265.117 377.285 265.293 375.693 265.293C374.395 265.293 373.198 265.068 372.104 264.619C371.021 264.16 370.078 263.496 369.277 262.627C368.486 261.748 367.871 260.684 367.432 259.434C367.002 258.174 366.787 256.748 366.787 255.156V253.501C366.787 251.909 366.973 250.488 367.344 249.238C367.725 247.988 368.281 246.929 369.014 246.06C369.746 245.181 370.645 244.517 371.709 244.067C372.773 243.608 373.994 243.379 375.371 243.379C377.002 243.379 378.364 243.662 379.458 244.229C380.562 244.785 381.421 245.557 382.036 246.543C382.661 247.529 383.062 248.652 383.237 249.912H380.41C380.283 249.141 380.029 248.438 379.648 247.803C379.277 247.168 378.745 246.66 378.052 246.279C377.358 245.889 376.465 245.693 375.371 245.693C374.385 245.693 373.53 245.874 372.808 246.235C372.085 246.597 371.489 247.114 371.021 247.788C370.552 248.462 370.2 249.277 369.966 250.234C369.741 251.191 369.629 252.271 369.629 253.472V255.156C369.629 256.387 369.771 257.485 370.054 258.452C370.347 259.419 370.762 260.244 371.299 260.928C371.836 261.602 372.476 262.114 373.218 262.466C373.97 262.817 374.8 262.993 375.708 262.993C376.714 262.993 377.529 262.91 378.154 262.744C378.779 262.568 379.268 262.363 379.619 262.129C379.971 261.885 380.239 261.655 380.425 261.44V256.665H375.488V254.38H383.237ZM390.957 243.672V265H388.13V243.672H390.957ZM398.926 243.672V265H396.099V243.672H398.926ZM407.861 253.267V255.581H398.311V253.267H407.861ZM409.312 243.672V245.986H398.311V243.672H409.312Z" fill="#8B959E"/>
<circle cx="274.703" cy="263.703" r="32.7035" fill="#FFE600"/>
<g clip-path="url(#clip0_66_1152)">
<path d="M277.582 250.36H267.117C265.678 250.36 264.513 251.538 264.513 252.977L264.5 273.907C264.5 275.346 265.664 276.523 267.103 276.523H282.814C284.253 276.523 285.43 275.346 285.43 273.907V258.209L277.582 250.36ZM282.814 273.907H267.117V252.977H276.274V259.517H282.814V273.907ZM269.733 267.379L271.577 269.224L273.657 267.157V272.599H276.274V267.157L278.353 269.237L280.198 267.379L274.978 262.134L269.733 267.379Z" fill="black"/>
</g>
<defs>
<filter id="filter0_d_66_1152" x="0" y="0" width="553" height="453" filterUnits="userSpaceOnUse" color-interpolation-filters="sRGB">
<feFlood flood-opacity="0" result="BackgroundImageFix"/>
<feColorMatrix in="SourceAlpha" type="matrix" values="0 0 0 0 0 0 0 0 0 0 0 0 0 0 0 0 0 0 127 0" result="hardAlpha"/>
<feOffset/>
<feGaussianBlur stdDeviation="7"/>
<feComposite in2="hardAlpha" operator="out"/>
<feColorMatrix type="matrix" values="0 0 0 0 0 0 0 0 0 0 0 0 0 0 0 0 0 0 0.15 0"/>
<feBlend mode="normal" in2="BackgroundImageFix" result="effect1_dropShadow_66_1152"/>
<feBlend mode="normal" in="SourceGraphic" in2="effect1_dropShadow_66_1152" result="shape"/>
</filter>
<filter id="filter1_d_66_1152" x="414" y="109" width="179.06" height="80.2198" filterUnits="userSpaceOnUse" color-interpolation-filters="sRGB">
<feFlood flood-opacity="0" result="BackgroundImageFix"/>
<feColorMatrix in="SourceAlpha" type="matrix" values="0 0 0 0 0 0 0 0 0 0 0 0 0 0 0 0 0 0 127 0" result="hardAlpha"/>
<feOffset dy="4"/>
<feGaussianBlur stdDeviation="8"/>
<feComposite in2="hardAlpha" operator="out"/>
<feColorMatrix type="matrix" values="0 0 0 0 0 0 0 0 0 0 0 0 0 0 0 0 0 0 0.1 0"/>
<feBlend mode="normal" in2="BackgroundImageFix" result="effect1_dropShadow_66_1152"/>
<feBlend mode="normal" in="SourceGraphic" in2="effect1_dropShadow_66_1152" result="shape"/>
</filter>
<filter id="filter2_d_66_1152" x="427" y="271" width="179.06" height="80.2198" filterUnits="userSpaceOnUse" color-interpolation-filters="sRGB">
<feFlood flood-opacity="0" result="BackgroundImageFix"/>
<feColorMatrix in="SourceAlpha" type="matrix" values="0 0 0 0 0 0 0 0 0 0 0 0 0 0 0 0 0 0 127 0" result="hardAlpha"/>
<feOffset dy="4"/>
<feGaussianBlur stdDeviation="8"/>
<feComposite in2="hardAlpha" operator="out"/>
<feColorMatrix type="matrix" values="0 0 0 0 0 0 0 0 0 0 0 0 0 0 0 0 0 0 0.1 0"/>
<feBlend mode="normal" in2="BackgroundImageFix" result="effect1_dropShadow_66_1152"/>
<feBlend mode="normal" in="SourceGraphic" in2="effect1_dropShadow_66_1152" result="shape"/>
</filter>
<filter id="filter3_d_66_1152" x="440" y="190" width="179.06" height="80.2198" filterUnits="userSpaceOnUse" color-interpolation-filters="sRGB">
<feFlood flood-opacity="0" result="BackgroundImageFix"/>
<feColorMatrix in="SourceAlpha" type="matrix" values="0 0 0 0 0 0 0 0 0 0 0 0 0 0 0 0 0 0 127 0" result="hardAlpha"/>
<feOffset dy="4"/>
<feGaussianBlur stdDeviation="8"/>
<feComposite in2="hardAlpha" operator="out"/>
<feColorMatrix type="matrix" values="0 0 0 0 0 0 0 0 0 0 0 0 0 0 0 0 0 0 0.1 0"/>
<feBlend mode="normal" in2="BackgroundImageFix" result="effect1_dropShadow_66_1152"/>
<feBlend mode="normal" in="SourceGraphic" in2="effect1_dropShadow_66_1152" result="shape"/>
</filter>
<clipPath id="clip0_66_1152">
<rect width="31.3953" height="31.3953" fill="white" transform="translate(259.268 247.744)"/>
</clipPath>
</defs>
</svg>
