<svg width="28" height="27" viewBox="0 0 28 27" fill="none" xmlns="http://www.w3.org/2000/svg">
<path d="M14.1507 0.667969C6.78405 0.667969 0.817385 6.63464 0.817385 14.0013C0.815872 16.8003 1.6958 19.5288 3.33234 21.7995C4.96888 24.0703 7.27891 25.7681 9.93472 26.652C10.6014 26.768 10.8507 26.368 10.8507 26.0173C10.8507 25.7013 10.8334 24.652 10.8334 23.5346C7.48405 24.152 6.61738 22.7186 6.35072 21.968C6.20005 21.584 5.55072 20.4013 4.98405 20.084C4.51738 19.8346 3.85072 19.2173 4.96672 19.2013C6.01739 19.184 6.76672 20.168 7.01739 20.568C8.21738 22.584 10.1347 22.0173 10.9001 21.668C11.0174 20.8013 11.3667 20.2186 11.7507 19.8853C8.78405 19.552 5.68405 18.4013 5.68405 13.3013C5.68405 11.8506 6.20005 10.652 7.05072 9.7173C6.91739 9.38397 6.45072 8.0173 7.18405 6.18397C7.18405 6.18397 8.30005 5.83464 10.8507 7.55197C11.9361 7.25072 13.0576 7.09909 14.1841 7.1013C15.3174 7.1013 16.4507 7.25064 17.5174 7.55064C20.0667 5.8173 21.1841 6.1853 21.1841 6.1853C21.9174 8.01864 21.4507 9.3853 21.3174 9.71864C22.1667 10.652 22.6841 11.8346 22.6841 13.3013C22.6841 18.4186 19.5681 19.552 16.6014 19.8853C17.0841 20.3013 17.5014 21.1013 17.5014 22.352C17.5014 24.1346 17.4841 25.568 17.4841 26.0186C17.4841 26.368 17.7347 26.784 18.4014 26.6506C21.0481 25.757 23.3479 24.056 24.9773 21.7868C26.6066 19.5177 27.4833 16.7948 27.4841 14.0013C27.4841 6.63464 21.5174 0.667969 14.1507 0.667969Z" fill="white"/>
</svg>
