<svg width="30" height="30" viewBox="0 0 30 30" fill="none" xmlns="http://www.w3.org/2000/svg">
<path d="M15 0C6.72 0 0 6.72 0 15C0 23.28 6.72 30 15 30C23.28 30 30 23.28 30 15C30 6.72 23.28 0 15 0ZM3 15C3 14.085 3.12 13.185 3.315 12.33L10.485 19.5V21C10.485 22.65 11.835 24 13.485 24V26.895C7.59 26.145 3 21.105 3 15ZM23.835 23.1C23.445 21.885 22.335 21 20.985 21H19.485V16.5C19.485 15.675 18.81 15 17.985 15H8.985V12H11.985C12.81 12 13.485 11.325 13.485 10.5V7.5H16.485C18.135 7.5 19.485 6.15 19.485 4.5V3.885C23.88 5.655 27 9.975 27 15C27 18.12 25.785 20.97 23.835 23.1Z" fill="black"/>
</svg>
