<svg width="14" height="13" viewBox="0 0 14 13" fill="none" xmlns="http://www.w3.org/2000/svg">
<path d="M9.99967 0.5C8.83967 0.5 7.72634 1.04 6.99967 1.89333C6.27301 1.04 5.15967 0.5 3.99967 0.5C1.94634 0.5 0.333008 2.11333 0.333008 4.16667C0.333008 6.68667 2.59967 8.74 6.03301 11.86L6.99967 12.7333L7.96634 11.8533C11.3997 8.74 13.6663 6.68667 13.6663 4.16667C13.6663 2.11333 12.053 0.5 9.99967 0.5ZM7.06634 10.8667L6.99967 10.9333L6.93301 10.8667C3.75967 7.99333 1.66634 6.09333 1.66634 4.16667C1.66634 2.83333 2.66634 1.83333 3.99967 1.83333C5.02634 1.83333 6.02634 2.49333 6.37967 3.40667H7.62634C7.97301 2.49333 8.97301 1.83333 9.99967 1.83333C11.333 1.83333 12.333 2.83333 12.333 4.16667C12.333 6.09333 10.2397 7.99333 7.06634 10.8667Z" fill="black"/>
</svg>
