<svg width="16" height="16" viewBox="0 0 16 16" fill="none" xmlns="http://www.w3.org/2000/svg">
<path fill-rule="evenodd" clip-rule="evenodd" d="M9.3335 1.99998C9.3335 1.63179 9.63197 1.33331 10.0002 1.33331H12.6668C13.1973 1.33331 13.706 1.54403 14.081 1.9191C14.4561 2.29417 14.6668 2.80288 14.6668 3.33331V12.6666C14.6668 13.1971 14.4561 13.7058 14.081 14.0809C13.706 14.4559 13.1973 14.6666 12.6668 14.6666H10.0002C9.63197 14.6666 9.3335 14.3682 9.3335 14C9.3335 13.6318 9.63197 13.3333 10.0002 13.3333H12.6668C12.8436 13.3333 13.0132 13.2631 13.1382 13.1381C13.2633 13.013 13.3335 12.8435 13.3335 12.6666V3.33331C13.3335 3.1565 13.2633 2.98693 13.1382 2.86191C13.0132 2.73688 12.8436 2.66665 12.6668 2.66665H10.0002C9.63197 2.66665 9.3335 2.36817 9.3335 1.99998Z" fill="white"/>
<path fill-rule="evenodd" clip-rule="evenodd" d="M6.19543 4.19524C6.45577 3.93489 6.87788 3.93489 7.13823 4.19524L10.4716 7.52858C10.7319 7.78892 10.7319 8.21103 10.4716 8.47138L7.13823 11.8047C6.87788 12.0651 6.45577 12.0651 6.19543 11.8047C5.93508 11.5444 5.93508 11.1223 6.19543 10.8619L9.05735 7.99998L6.19543 5.13805C5.93508 4.8777 5.93508 4.45559 6.19543 4.19524Z" fill="white"/>
<path fill-rule="evenodd" clip-rule="evenodd" d="M1.3335 7.99998C1.3335 7.63179 1.63197 7.33331 2.00016 7.33331H10.0002C10.3684 7.33331 10.6668 7.63179 10.6668 7.99998C10.6668 8.36817 10.3684 8.66665 10.0002 8.66665H2.00016C1.63197 8.66665 1.3335 8.36817 1.3335 7.99998Z" fill="white"/>
</svg>
