<svg width="28" height="22" viewBox="0 0 28 22" fill="none" xmlns="http://www.w3.org/2000/svg">
<path d="M24.5166 0.332031H3.18327C1.7166 0.332031 0.529935 1.53203 0.529935 2.9987L0.516602 18.9987C0.516602 20.4654 1.7166 21.6654 3.18327 21.6654H24.5166C25.9833 21.6654 27.1833 20.4654 27.1833 18.9987V2.9987C27.1833 1.53203 25.9833 0.332031 24.5166 0.332031ZM23.9833 5.9987L14.5566 11.892C14.1299 12.1587 13.5699 12.1587 13.1433 11.892L3.7166 5.9987C3.5829 5.92365 3.46583 5.82225 3.37245 5.70064C3.27908 5.57903 3.21135 5.43974 3.17337 5.29119C3.13539 5.14265 3.12794 4.98795 3.15148 4.83644C3.17501 4.68494 3.22905 4.53978 3.31031 4.40977C3.39157 4.27975 3.49837 4.16757 3.62424 4.08002C3.75011 3.99248 3.89243 3.93138 4.0426 3.90043C4.19276 3.86948 4.34765 3.86932 4.49787 3.89996C4.6481 3.9306 4.79055 3.99141 4.9166 4.0787L13.8499 9.66537L22.7833 4.0787C22.9093 3.99141 23.0518 3.9306 23.202 3.89996C23.3522 3.86932 23.5071 3.86948 23.6573 3.90043C23.8074 3.93138 23.9498 3.99248 24.0756 4.08002C24.2015 4.16757 24.3083 4.27975 24.3896 4.40977C24.4708 4.53978 24.5249 4.68494 24.5484 4.83644C24.5719 4.98795 24.5645 5.14265 24.5265 5.29119C24.4885 5.43974 24.4208 5.57903 24.3274 5.70064C24.234 5.82225 24.117 5.92365 23.9833 5.9987Z" fill="white"/>
</svg>
