<svg width="24" height="32" viewBox="0 0 24 32" fill="none" xmlns="http://www.w3.org/2000/svg">
<path d="M21 11H19.5V8C19.5 3.86 16.14 0.5 12 0.5C7.86 0.5 4.5 3.86 4.5 8V11H3C1.35 11 0 12.35 0 14V29C0 30.65 1.35 32 3 32H21C22.65 32 24 30.65 24 29V14C24 12.35 22.65 11 21 11ZM7.5 8C7.5 5.51 9.51 3.5 12 3.5C14.49 3.5 16.5 5.51 16.5 8V11H7.5V8ZM21 29H3V14H21V29ZM12 24.5C13.65 24.5 15 23.15 15 21.5C15 19.85 13.65 18.5 12 18.5C10.35 18.5 9 19.85 9 21.5C9 23.15 10.35 24.5 12 24.5Z" fill="black"/>
</svg>
