<svg width="88" height="84" viewBox="0 0 88 84" fill="none" xmlns="http://www.w3.org/2000/svg">
<path fill-rule="evenodd" clip-rule="evenodd" d="M45.3902 47.0442C46.0954 45.0272 46.784 42.9648 47.478 40.886C53.4143 23.1028 59.742 4.14668 80.309 2.57544C81.2171 2.50607 82.1529 2.47058 83.1177 2.47059C82.6946 3.04075 82.3756 3.89417 82.1106 4.95514C81.7478 6.40685 81.4858 8.24717 81.1964 10.2821C80.5594 14.7607 79.7879 20.182 77.5114 24.4788C73.0261 32.9441 60.6919 37.1181 54.5248 35.7655C48.6689 42.1816 47.2213 55.4247 48.1343 65.2507C48.3015 67.0513 48.663 68.815 49.0099 70.5074C49.4892 72.8458 49.9405 75.0478 49.8126 77.0221C49.4963 83.0318 38.8452 83.0318 38.5288 77.0221C38.401 75.0478 38.8522 72.8458 39.3316 70.5074C39.6785 68.815 40.04 67.0513 40.2072 65.2507C40.2539 64.7484 40.3008 64.2536 40.3473 63.7654C41.1913 54.8616 41.8144 48.2884 36.5618 42.8099C36.0101 42.2347 35.3936 41.6714 34.706 41.1187C34.2853 41.9054 33.8358 42.5939 33.3667 43.196C30.2559 47.1877 26.2704 47.3792 23.9384 47.1196C18.6129 46.5264 15.0822 42.1665 11.649 37.9267C10.2504 36.1996 8.86798 34.4924 7.38701 33.0681C6.6805 32.3887 5.95156 31.7735 5.18772 31.2512C6.11446 30.8777 7.04961 30.5632 7.98998 30.3052C21.622 26.5657 36.3596 34.7056 42.7484 47.2021C43.2828 48.2471 43.7587 49.3228 44.1709 50.4245C44.5852 49.3159 44.9905 48.1873 45.3902 47.0442ZM43.823 44.1077C44.2645 42.8106 44.7018 41.4995 45.1442 40.1737C45.8793 37.97 46.628 35.7259 47.4305 33.4399C49.3609 27.9409 51.5355 22.4144 54.3644 17.501C57.1993 12.5775 60.742 8.17787 65.4549 5.01512C70.1944 1.83431 75.9763 -5.47789e-05 83.118 1.2269e-09L88 3.7405e-05L85.0632 3.9567C84.8643 4.22471 84.559 4.98523 84.2422 6.60502C84.0163 7.75849 83.8281 9.0802 83.6142 10.5833C83.5448 11.0726 83.4722 11.581 83.3949 12.1092C82.7892 16.2488 81.9153 21.3854 79.6564 25.6484C77.068 30.534 72.3362 34.0049 67.6136 36.0723C63.5289 37.8603 59.0759 38.7601 55.5116 38.4134C53.4659 41.1425 52.0241 45.109 51.1854 49.6813C50.2517 54.771 50.1209 60.3061 50.5587 65.019C50.7122 66.6708 51.0415 68.2792 51.3876 69.971C51.4556 70.3026 51.524 70.6373 51.592 70.9763C51.985 72.9365 52.3752 75.1022 52.2436 77.1698C52.1163 79.4949 50.9552 81.2811 49.366 82.4203C47.8322 83.5197 45.945 84 44.1709 84C42.3964 84 40.5093 83.5197 38.9757 82.4203C37.3863 81.2811 36.225 79.4946 36.0978 77.1696C35.9663 75.1019 36.3565 72.9365 36.7495 70.9763C36.8175 70.6373 36.8859 70.3026 36.9539 69.971C37.3 68.2792 37.6293 66.6708 37.7828 65.019C37.8278 64.5335 37.8725 64.0589 37.9165 63.5939C38.3668 58.8227 38.7185 55.0951 38.2641 51.8339C37.904 49.2494 37.0343 46.9963 35.1484 44.8908C33.6004 46.8218 31.8267 48.0515 30.0234 48.7778C27.5699 49.766 25.244 49.7505 23.6727 49.5753C18.4162 48.99 14.7671 45.4274 11.8866 42.0635C11.1597 41.2146 10.4542 40.3432 9.77704 39.5072L9.75624 39.4815C9.06505 38.6279 8.40376 37.8119 7.73735 37.0354C6.3944 35.471 5.13451 34.1942 3.82663 33.2998L0 30.6835L4.28861 28.955C19.297 22.9066 35.9624 30.9634 43.823 44.1077Z" fill="url(#paint0_radial_14_570)" fill-opacity="0.84"/>
<defs>
<radialGradient id="paint0_radial_14_570" cx="0" cy="0" r="1" gradientUnits="userSpaceOnUse" gradientTransform="translate(35.7172 53.2068) rotate(67.5775) scale(66.3479 65.6782)">
<stop stop-color="#5555FF"/>
<stop offset="1" stop-color="#FF55FF"/>
</radialGradient>
</defs>
</svg>
