<svg width="21" height="21" viewBox="0 0 21 21" fill="none" xmlns="http://www.w3.org/2000/svg">
<path d="M15.0833 12.8333H14.1617L13.835 12.5183C14.9783 11.1883 15.6667 9.46167 15.6667 7.58333C15.6667 3.395 12.2717 0 8.08333 0C3.895 0 0.5 3.395 0.5 7.58333C0.5 11.7717 3.895 15.1667 8.08333 15.1667C9.96167 15.1667 11.6883 14.4783 13.0183 13.335L13.3333 13.6617V14.5833L19.1667 20.405L20.905 18.6667L15.0833 12.8333ZM8.08333 12.8333C5.17833 12.8333 2.83333 10.4883 2.83333 7.58333C2.83333 4.67833 5.17833 2.33333 8.08333 2.33333C10.9883 2.33333 13.3333 4.67833 13.3333 7.58333C13.3333 10.4883 10.9883 12.8333 8.08333 12.8333Z" fill="#777777"/>
</svg>
