<svg width="547" height="459" viewBox="0 0 547 459" fill="none" xmlns="http://www.w3.org/2000/svg">
<circle cx="50.5" cy="408.5" r="50.5" fill="black"/>
<circle cx="510.5" cy="36.5" r="36.5" fill="#36C752"/>
<g filter="url(#filter0_d_266_1283)">
<rect x="50" y="36" width="461" height="373" rx="8" fill="white"/>
</g>
<path d="M99.519 103.633V107.962H104.703V109.519H99.519V115H97.593V102.076H105.603V103.633H99.519ZM110.517 105.712C111.189 105.712 111.795 105.823 112.335 106.045C112.881 106.261 113.343 106.576 113.721 106.99C114.105 107.398 114.399 107.893 114.603 108.475C114.807 109.051 114.909 109.699 114.909 110.419C114.909 111.139 114.807 111.79 114.603 112.372C114.399 112.954 114.105 113.449 113.721 113.857C113.343 114.265 112.881 114.58 112.335 114.802C111.795 115.018 111.189 115.126 110.517 115.126C109.839 115.126 109.227 115.018 108.681 114.802C108.141 114.58 107.679 114.265 107.295 113.857C106.911 113.449 106.614 112.954 106.404 112.372C106.2 111.79 106.098 111.139 106.098 110.419C106.098 109.699 106.2 109.051 106.404 108.475C106.614 107.893 106.911 107.398 107.295 106.99C107.679 106.576 108.141 106.261 108.681 106.045C109.227 105.823 109.839 105.712 110.517 105.712ZM110.517 113.758C111.381 113.758 112.026 113.467 112.452 112.885C112.878 112.303 113.091 111.484 113.091 110.428C113.091 109.372 112.878 108.553 112.452 107.971C112.026 107.383 111.381 107.089 110.517 107.089C109.641 107.089 108.987 107.383 108.555 107.971C108.129 108.553 107.916 109.372 107.916 110.428C107.916 111.484 108.129 112.303 108.555 112.885C108.987 113.467 109.641 113.758 110.517 113.758ZM118.668 101.716V115H116.904V101.716H118.668ZM127.069 108.07C126.781 107.692 126.469 107.428 126.133 107.278C125.803 107.128 125.431 107.053 125.017 107.053C124.213 107.053 123.589 107.344 123.145 107.926C122.707 108.502 122.488 109.345 122.488 110.455C122.488 111.037 122.536 111.535 122.632 111.949C122.734 112.357 122.878 112.693 123.064 112.957C123.256 113.215 123.49 113.407 123.766 113.533C124.042 113.653 124.354 113.713 124.702 113.713C125.212 113.713 125.653 113.599 126.025 113.371C126.397 113.143 126.745 112.822 127.069 112.408V108.07ZM128.833 101.716V115H127.771C127.525 115 127.372 114.883 127.312 114.649L127.159 113.596C126.769 114.058 126.325 114.43 125.827 114.712C125.335 114.988 124.765 115.126 124.117 115.126C123.595 115.126 123.121 115.024 122.695 114.82C122.275 114.616 121.915 114.319 121.615 113.929C121.315 113.533 121.084 113.044 120.922 112.462C120.76 111.88 120.679 111.211 120.679 110.455C120.679 109.777 120.769 109.147 120.949 108.565C121.129 107.983 121.39 107.479 121.732 107.053C122.074 106.627 122.488 106.294 122.974 106.054C123.46 105.808 124.009 105.685 124.621 105.685C125.173 105.685 125.641 105.775 126.025 105.955C126.415 106.135 126.763 106.39 127.069 106.72V101.716H128.833ZM137.339 109.411C137.339 109.063 137.288 108.742 137.186 108.448C137.09 108.154 136.946 107.899 136.754 107.683C136.562 107.467 136.328 107.299 136.052 107.179C135.776 107.059 135.458 106.999 135.098 106.999C134.36 106.999 133.778 107.212 133.352 107.638C132.932 108.064 132.665 108.655 132.551 109.411H137.339ZM138.788 113.695C138.572 113.947 138.323 114.166 138.041 114.352C137.759 114.532 137.459 114.679 137.141 114.793C136.823 114.907 136.493 114.991 136.151 115.045C135.815 115.099 135.482 115.126 135.152 115.126C134.522 115.126 133.937 115.021 133.397 114.811C132.863 114.595 132.398 114.283 132.002 113.875C131.612 113.461 131.306 112.951 131.084 112.345C130.868 111.733 130.76 111.031 130.76 110.239C130.76 109.603 130.859 109.012 131.057 108.466C131.255 107.914 131.537 107.434 131.903 107.026C132.275 106.618 132.728 106.297 133.262 106.063C133.796 105.829 134.396 105.712 135.062 105.712C135.62 105.712 136.133 105.805 136.601 105.991C137.075 106.171 137.483 106.435 137.825 106.783C138.167 107.131 138.434 107.56 138.626 108.07C138.824 108.58 138.923 109.162 138.923 109.816C138.923 110.086 138.893 110.269 138.833 110.365C138.773 110.455 138.662 110.5 138.5 110.5H132.506C132.524 111.046 132.602 111.523 132.74 111.931C132.878 112.333 133.067 112.669 133.307 112.939C133.553 113.209 133.844 113.41 134.18 113.542C134.516 113.674 134.891 113.74 135.305 113.74C135.695 113.74 136.031 113.695 136.313 113.605C136.601 113.515 136.847 113.419 137.051 113.317C137.261 113.209 137.435 113.11 137.573 113.02C137.717 112.93 137.843 112.885 137.951 112.885C138.095 112.885 138.206 112.939 138.284 113.047L138.788 113.695ZM142.465 107.611C142.759 107.011 143.113 106.54 143.527 106.198C143.941 105.856 144.439 105.685 145.021 105.685C145.219 105.685 145.405 105.709 145.579 105.757C145.759 105.799 145.915 105.865 146.047 105.955L145.93 107.278C145.888 107.44 145.789 107.521 145.633 107.521C145.549 107.521 145.423 107.506 145.255 107.476C145.087 107.44 144.907 107.422 144.715 107.422C144.433 107.422 144.184 107.464 143.968 107.548C143.752 107.626 143.557 107.746 143.383 107.908C143.215 108.064 143.065 108.259 142.933 108.493C142.801 108.721 142.678 108.982 142.564 109.276V115H140.809V105.856H141.817C142.009 105.856 142.138 105.892 142.204 105.964C142.276 106.03 142.327 106.15 142.357 106.324L142.465 107.611ZM152.739 107.431C152.691 107.509 152.64 107.566 152.586 107.602C152.532 107.632 152.463 107.647 152.379 107.647C152.283 107.647 152.175 107.614 152.055 107.548C151.941 107.482 151.8 107.41 151.632 107.332C151.47 107.254 151.278 107.182 151.056 107.116C150.834 107.05 150.57 107.017 150.264 107.017C150.012 107.017 149.781 107.05 149.571 107.116C149.367 107.176 149.193 107.263 149.049 107.377C148.905 107.485 148.794 107.617 148.716 107.773C148.638 107.923 148.599 108.085 148.599 108.259C148.599 108.487 148.665 108.676 148.797 108.826C148.935 108.976 149.112 109.105 149.328 109.213C149.55 109.321 149.799 109.42 150.075 109.51C150.357 109.594 150.642 109.684 150.93 109.78C151.224 109.876 151.509 109.987 151.785 110.113C152.067 110.233 152.316 110.386 152.532 110.572C152.754 110.752 152.931 110.971 153.063 111.229C153.201 111.487 153.27 111.802 153.27 112.174C153.27 112.6 153.192 112.996 153.036 113.362C152.886 113.722 152.661 114.034 152.361 114.298C152.067 114.562 151.701 114.769 151.263 114.919C150.825 115.069 150.324 115.144 149.76 115.144C149.13 115.144 148.548 115.039 148.014 114.829C147.48 114.619 147.033 114.352 146.673 114.028L147.087 113.353C147.135 113.269 147.195 113.206 147.267 113.164C147.339 113.116 147.435 113.092 147.555 113.092C147.669 113.092 147.786 113.134 147.906 113.218C148.026 113.302 148.17 113.395 148.338 113.497C148.506 113.593 148.71 113.683 148.95 113.767C149.19 113.845 149.49 113.884 149.85 113.884C150.15 113.884 150.411 113.848 150.633 113.776C150.855 113.698 151.038 113.596 151.182 113.47C151.332 113.338 151.443 113.188 151.515 113.02C151.587 112.852 151.623 112.675 151.623 112.489C151.623 112.249 151.554 112.051 151.416 111.895C151.284 111.733 151.107 111.595 150.885 111.481C150.669 111.367 150.42 111.268 150.138 111.184C149.856 111.1 149.568 111.01 149.274 110.914C148.98 110.818 148.692 110.707 148.41 110.581C148.128 110.455 147.876 110.296 147.654 110.104C147.438 109.912 147.261 109.678 147.123 109.402C146.991 109.126 146.925 108.79 146.925 108.394C146.925 108.04 146.997 107.701 147.141 107.377C147.291 107.053 147.504 106.768 147.78 106.522C148.062 106.276 148.407 106.081 148.815 105.937C149.229 105.787 149.7 105.712 150.228 105.712C150.834 105.712 151.38 105.808 151.866 106C152.358 106.192 152.778 106.456 153.126 106.792L152.739 107.431Z" fill="black"/>
<path d="M73 99V107H81V99H73ZM79 105H75V101H79V105ZM73 109V117H81V109H73ZM79 115H75V111H79V115ZM83 99V107H91V99H83ZM89 105H85V101H89V105ZM83 109V117H91V109H83ZM89 115H85V111H89V115Z" fill="black"/>
<path d="M232.46 110.185L230.543 105.172C230.405 104.83 230.267 104.398 230.129 103.876C230.063 104.134 229.994 104.374 229.922 104.596C229.856 104.818 229.79 105.016 229.724 105.19L227.816 110.185H232.46ZM236.249 115H234.773C234.605 115 234.467 114.958 234.359 114.874C234.251 114.79 234.173 114.682 234.125 114.55L232.982 111.553H227.285L226.142 114.55C226.1 114.664 226.022 114.769 225.908 114.865C225.794 114.955 225.656 115 225.494 115H224.018L229.166 102.076H231.101L236.249 115ZM239.267 101.716V115H237.503V101.716H239.267ZM243.574 101.716V115H241.81V101.716H243.574ZM252.919 103.633V107.962H258.103V109.519H252.919V115H250.993V102.076H259.003V103.633H252.919ZM262.612 105.856V115H260.857V105.856H262.612ZM262.945 103.03C262.945 103.192 262.912 103.348 262.846 103.498C262.78 103.642 262.69 103.771 262.576 103.885C262.468 103.993 262.339 104.08 262.189 104.146C262.039 104.206 261.883 104.236 261.721 104.236C261.559 104.236 261.406 104.206 261.262 104.146C261.118 104.08 260.989 103.993 260.875 103.885C260.767 103.771 260.68 103.642 260.614 103.498C260.554 103.348 260.524 103.192 260.524 103.03C260.524 102.862 260.554 102.706 260.614 102.562C260.68 102.412 260.767 102.283 260.875 102.175C260.989 102.061 261.118 101.974 261.262 101.914C261.406 101.848 261.559 101.815 261.721 101.815C261.883 101.815 262.039 101.848 262.189 101.914C262.339 101.974 262.468 102.061 262.576 102.175C262.69 102.283 262.78 102.412 262.846 102.562C262.912 102.706 262.945 102.862 262.945 103.03ZM266.953 101.716V115H265.189V101.716H266.953ZM275.517 109.411C275.517 109.063 275.466 108.742 275.364 108.448C275.268 108.154 275.124 107.899 274.932 107.683C274.74 107.467 274.506 107.299 274.23 107.179C273.954 107.059 273.636 106.999 273.276 106.999C272.538 106.999 271.956 107.212 271.53 107.638C271.11 108.064 270.843 108.655 270.729 109.411H275.517ZM276.966 113.695C276.75 113.947 276.501 114.166 276.219 114.352C275.937 114.532 275.637 114.679 275.319 114.793C275.001 114.907 274.671 114.991 274.329 115.045C273.993 115.099 273.66 115.126 273.33 115.126C272.7 115.126 272.115 115.021 271.575 114.811C271.041 114.595 270.576 114.283 270.18 113.875C269.79 113.461 269.484 112.951 269.262 112.345C269.046 111.733 268.938 111.031 268.938 110.239C268.938 109.603 269.037 109.012 269.235 108.466C269.433 107.914 269.715 107.434 270.081 107.026C270.453 106.618 270.906 106.297 271.44 106.063C271.974 105.829 272.574 105.712 273.24 105.712C273.798 105.712 274.311 105.805 274.779 105.991C275.253 106.171 275.661 106.435 276.003 106.783C276.345 107.131 276.612 107.56 276.804 108.07C277.002 108.58 277.101 109.162 277.101 109.816C277.101 110.086 277.071 110.269 277.011 110.365C276.951 110.455 276.84 110.5 276.678 110.5H270.684C270.702 111.046 270.78 111.523 270.918 111.931C271.056 112.333 271.245 112.669 271.485 112.939C271.731 113.209 272.022 113.41 272.358 113.542C272.694 113.674 273.069 113.74 273.483 113.74C273.873 113.74 274.209 113.695 274.491 113.605C274.779 113.515 275.025 113.419 275.229 113.317C275.439 113.209 275.613 113.11 275.751 113.02C275.895 112.93 276.021 112.885 276.129 112.885C276.273 112.885 276.384 112.939 276.462 113.047L276.966 113.695ZM284.378 107.431C284.33 107.509 284.279 107.566 284.225 107.602C284.171 107.632 284.102 107.647 284.018 107.647C283.922 107.647 283.814 107.614 283.694 107.548C283.58 107.482 283.439 107.41 283.271 107.332C283.109 107.254 282.917 107.182 282.695 107.116C282.473 107.05 282.209 107.017 281.903 107.017C281.651 107.017 281.42 107.05 281.21 107.116C281.006 107.176 280.832 107.263 280.688 107.377C280.544 107.485 280.433 107.617 280.355 107.773C280.277 107.923 280.238 108.085 280.238 108.259C280.238 108.487 280.304 108.676 280.436 108.826C280.574 108.976 280.751 109.105 280.967 109.213C281.189 109.321 281.438 109.42 281.714 109.51C281.996 109.594 282.281 109.684 282.569 109.78C282.863 109.876 283.148 109.987 283.424 110.113C283.706 110.233 283.955 110.386 284.171 110.572C284.393 110.752 284.57 110.971 284.702 111.229C284.84 111.487 284.909 111.802 284.909 112.174C284.909 112.6 284.831 112.996 284.675 113.362C284.525 113.722 284.3 114.034 284 114.298C283.706 114.562 283.34 114.769 282.902 114.919C282.464 115.069 281.963 115.144 281.399 115.144C280.769 115.144 280.187 115.039 279.653 114.829C279.119 114.619 278.672 114.352 278.312 114.028L278.726 113.353C278.774 113.269 278.834 113.206 278.906 113.164C278.978 113.116 279.074 113.092 279.194 113.092C279.308 113.092 279.425 113.134 279.545 113.218C279.665 113.302 279.809 113.395 279.977 113.497C280.145 113.593 280.349 113.683 280.589 113.767C280.829 113.845 281.129 113.884 281.489 113.884C281.789 113.884 282.05 113.848 282.272 113.776C282.494 113.698 282.677 113.596 282.821 113.47C282.971 113.338 283.082 113.188 283.154 113.02C283.226 112.852 283.262 112.675 283.262 112.489C283.262 112.249 283.193 112.051 283.055 111.895C282.923 111.733 282.746 111.595 282.524 111.481C282.308 111.367 282.059 111.268 281.777 111.184C281.495 111.1 281.207 111.01 280.913 110.914C280.619 110.818 280.331 110.707 280.049 110.581C279.767 110.455 279.515 110.296 279.293 110.104C279.077 109.912 278.9 109.678 278.762 109.402C278.63 109.126 278.564 108.79 278.564 108.394C278.564 108.04 278.636 107.701 278.78 107.377C278.93 107.053 279.143 106.768 279.419 106.522C279.701 106.276 280.046 106.081 280.454 105.937C280.868 105.787 281.339 105.712 281.867 105.712C282.473 105.712 283.019 105.808 283.505 106C283.997 106.192 284.417 106.456 284.765 106.792L284.378 107.431Z" fill="#8B959E"/>
<path d="M194 99V118H219V99H194ZM199.556 101.714V104.429H196.778V101.714H199.556ZM196.778 109.857V107.143H199.556V109.857H196.778ZM196.778 112.571H199.556V115.286H196.778V112.571ZM216.222 115.286H202.333V112.571H216.222V115.286ZM216.222 109.857H202.333V107.143H216.222V109.857ZM216.222 104.429H202.333V101.714H216.222V104.429Z" fill="#8B959E"/>
<path d="M50 44C50 39.5817 53.5817 36 58 36H503C507.418 36 511 39.5817 511 44V76H50V44Z" fill="#F5F5F5"/>
<circle cx="76" cy="56" r="6" fill="#FC655E"/>
<circle cx="96" cy="56" r="6" fill="#F6C046"/>
<circle cx="116" cy="56" r="6" fill="#36C752"/>
<g filter="url(#filter1_d_266_1283)">
<rect x="73" y="260" width="89" height="107" rx="8" fill="#FBFBFB"/>
</g>
<g filter="url(#filter2_d_266_1283)">
<rect x="73" y="140" width="89" height="108" rx="8" fill="#FBFBFB"/>
</g>
<g filter="url(#filter3_d_266_1283)">
<rect x="378" y="140" width="89" height="108" rx="8" fill="#FBFBFB"/>
</g>
<g filter="url(#filter4_d_266_1283)">
<rect x="175" y="140" width="89" height="108" rx="8" fill="#FBFBFB"/>
</g>
<path d="M195.532 192.808C195.532 188.011 195.532 183.215 195.532 178.418C195.532 177.968 195.645 177.844 196.099 177.859C197.246 177.892 198.392 177.859 199.536 177.877C199.932 177.877 200.082 177.802 200.06 177.379C200.024 176.587 200.06 175.792 200.042 175C200.042 174.628 200.131 174.504 200.521 174.51C201.704 174.538 202.887 174.51 204.067 174.528C204.439 174.528 204.577 174.453 204.561 174.06C204.531 173.25 204.561 172.437 204.543 171.627C204.543 171.27 204.65 171.162 205.01 171.168C206.193 171.186 207.376 171.168 208.556 171.186C209.004 171.186 209.105 171.047 209.09 170.636C209.062 169.844 209.09 169.049 209.09 168.257C209.09 167.928 209.187 167.822 209.523 167.828C210.742 167.846 211.962 167.828 213.182 167.828C213.508 167.828 213.627 167.749 213.615 167.405C213.59 166.649 213.654 165.894 213.59 165.135C213.545 164.552 213.767 164.452 214.292 164.47C215.383 164.509 216.475 164.47 217.567 164.491C217.975 164.491 218.143 164.413 218.119 163.965C218.079 163.228 218.146 162.484 218.094 161.747C218.058 161.221 218.265 161.142 218.738 161.142C221.631 161.163 224.531 161.142 227.416 161.142C232.252 161.142 237.092 161.142 241.931 161.142C242.376 161.142 242.51 161.248 242.51 161.708C242.498 171.282 242.498 180.853 242.51 190.42C242.51 190.831 242.428 190.985 241.977 190.973C240.793 190.937 239.61 190.973 238.43 190.952C238.067 190.952 237.958 191.058 237.967 191.415C237.991 192.225 237.951 193.038 237.985 193.832C237.985 194.225 237.86 194.31 237.491 194.301C236.308 194.28 235.125 194.301 233.945 194.283C233.551 194.283 233.454 194.404 233.466 194.772C233.493 195.546 233.445 196.326 233.487 197.097C233.512 197.568 233.341 197.665 232.902 197.653C231.74 197.623 230.575 197.653 229.41 197.635C229.044 197.635 228.947 197.743 228.956 198.091C228.98 198.886 228.956 199.678 228.971 200.473C228.971 200.863 228.886 201.008 228.459 200.996C227.279 200.968 226.096 200.996 224.912 200.977C224.528 200.977 224.415 201.089 224.428 201.464C224.455 202.22 224.409 202.975 224.446 203.737C224.47 204.196 224.361 204.362 223.857 204.341C222.714 204.302 221.567 204.341 220.421 204.32C220.052 204.32 219.915 204.399 219.93 204.792C219.96 205.602 219.93 206.415 219.948 207.225C219.948 207.599 219.817 207.681 219.476 207.678C218.021 207.663 216.566 207.678 215.109 207.678C208.807 207.678 202.496 207.678 196.176 207.678C195.666 207.678 195.566 207.536 195.566 207.049C195.538 202.328 195.532 197.568 195.532 192.808ZM218.347 192.808C218.347 188.552 218.347 184.297 218.347 180.041C218.347 179.567 218.259 179.395 217.737 179.395C211.045 179.417 204.351 179.417 197.655 179.395C197.203 179.395 197.078 179.503 197.078 179.957C197.092 188.508 197.092 197.057 197.078 205.605C197.078 206.004 197.145 206.155 197.6 206.155C204.333 206.137 211.064 206.137 217.795 206.155C218.262 206.155 218.356 206.007 218.353 205.574C218.341 201.319 218.347 197.06 218.347 192.805V192.808ZM222.854 189.51C222.854 185.255 222.854 180.999 222.854 176.744C222.854 176 222.961 176.067 222.141 176.064H202.774C201.585 176.064 201.606 176.064 201.576 177.255C201.576 177.735 201.677 177.886 202.186 177.886C207.894 177.865 213.606 177.886 219.317 177.859C219.817 177.859 219.909 178.001 219.906 178.464C219.887 183.097 219.906 187.73 219.906 192.367C219.906 195.664 219.906 198.964 219.906 202.262C219.906 202.724 220.04 202.845 220.485 202.818C221.102 202.782 221.721 202.782 222.339 202.818C222.775 202.845 222.879 202.697 222.876 202.277C222.848 198.015 222.854 193.76 222.854 189.507V189.51ZM231.886 182.768C231.886 178.512 231.886 174.256 231.902 170.004C231.902 169.484 231.737 169.399 231.258 169.399C224.781 169.414 218.307 169.414 211.834 169.399C210.614 169.399 210.651 169.399 210.614 170.608C210.614 171.101 210.751 171.192 211.224 171.192C216.917 171.174 222.61 171.192 228.3 171.168C228.843 171.168 228.953 171.328 228.95 171.833C228.936 178.921 228.936 186.006 228.95 193.089C228.95 193.956 228.968 194.821 228.95 195.685C228.95 196.045 229.063 196.157 229.419 196.142C230.054 196.107 230.69 196.107 231.325 196.142C231.825 196.175 231.935 195.993 231.935 195.537C231.88 191.276 231.886 187.02 231.886 182.764V182.768ZM236.393 179.443C236.393 175.224 236.393 171.003 236.393 166.782C236.393 165.957 236.518 166.057 235.686 166.057H216.252C215.124 166.057 215.152 166.057 215.112 167.19C215.094 167.707 215.228 167.852 215.761 167.849C221.458 167.831 227.151 167.849 232.838 167.825C233.313 167.825 233.448 167.937 233.448 168.429C233.426 172.111 233.448 175.789 233.448 179.467C233.448 183.744 233.448 188.017 233.448 192.291C233.448 192.687 233.53 192.838 233.954 192.811C234.572 192.773 235.192 192.773 235.811 192.811C236.28 192.844 236.421 192.717 236.421 192.225C236.384 187.957 236.393 183.701 236.393 179.443ZM240.894 176.058C240.894 171.802 240.894 167.547 240.894 163.294C240.894 162.829 240.796 162.69 240.302 162.69C233.811 162.708 227.319 162.708 220.826 162.69C219.637 162.69 219.665 162.69 219.628 163.865C219.628 164.364 219.759 164.488 220.256 164.488C225.949 164.47 231.639 164.488 237.332 164.467C237.802 164.467 237.942 164.57 237.942 165.071C237.924 170.013 237.942 174.952 237.942 179.881C237.942 182.876 237.942 185.868 237.942 188.861C237.942 189.293 238.031 189.465 238.506 189.441C239.105 189.393 239.707 189.393 240.305 189.441C240.839 189.486 240.915 189.272 240.915 188.806C240.888 184.566 240.894 180.31 240.894 176.058ZM227.355 186.104C227.355 181.852 227.355 177.596 227.355 173.341C227.355 172.842 227.224 172.736 226.73 172.736C220.225 172.754 213.719 172.754 207.214 172.736C206.116 172.736 206.153 172.736 206.101 173.842C206.074 174.426 206.266 174.538 206.821 174.538C212.493 174.516 218.167 174.538 223.842 174.513C224.287 174.513 224.437 174.613 224.415 175.073C224.379 175.979 224.415 176.886 224.415 177.793C224.415 184.823 224.415 191.853 224.415 198.883C224.415 199.342 224.507 199.536 225.01 199.487C225.591 199.445 226.174 199.445 226.754 199.487C227.233 199.518 227.398 199.394 227.395 198.883C227.346 194.612 227.355 190.36 227.355 186.104Z" fill="#060500"/>
<path d="M206.071 190.692V196.77L210.84 193.733L206.071 190.692Z" fill="black"/>
<path d="M213.225 188.329H202.326C201.965 188.329 201.619 188.472 201.363 188.725C201.108 188.978 200.964 189.322 200.963 189.68V197.783C200.964 198.141 201.108 198.484 201.363 198.737C201.619 198.99 201.965 199.133 202.326 199.134H213.225C213.584 199.131 213.928 198.987 214.182 198.734C214.435 198.481 214.578 198.139 214.579 197.783V189.68C214.578 189.323 214.435 188.981 214.182 188.728C213.928 188.476 213.584 188.332 213.225 188.329ZM213.225 197.789H202.326V189.674H213.225V197.789Z" fill="black"/>
<line x1="185" y1="220.267" x2="253" y2="220.267" stroke="#DEDEDE"/>
<g filter="url(#filter5_d_266_1283)">
<rect x="276" y="140" width="89" height="108" rx="8" fill="#FBFBFB"/>
</g>
<g filter="url(#filter6_d_266_1283)">
<rect x="175" y="260" width="89" height="107" rx="8" fill="#FBFBFB"/>
</g>
<path d="M195.532 312.299C195.532 307.444 195.532 302.588 195.532 297.732C195.532 297.276 195.645 297.151 196.099 297.166C197.246 297.2 198.392 297.166 199.536 297.184C199.932 297.184 200.082 297.108 200.06 296.68C200.024 295.878 200.06 295.073 200.042 294.272C200.042 293.895 200.131 293.77 200.521 293.776C201.704 293.803 202.887 293.776 204.067 293.794C204.439 293.794 204.577 293.718 204.561 293.32C204.531 292.5 204.561 291.677 204.543 290.857C204.543 290.496 204.65 290.386 205.01 290.392C206.193 290.41 207.376 290.392 208.556 290.41C209.004 290.41 209.105 290.269 209.09 289.853C209.062 289.052 209.09 288.247 209.09 287.445C209.09 287.112 209.187 287.005 209.523 287.011C210.742 287.029 211.962 287.011 213.182 287.011C213.508 287.011 213.627 286.931 213.615 286.583C213.59 285.818 213.654 285.053 213.59 284.285C213.545 283.694 213.767 283.593 214.292 283.612C215.383 283.651 216.475 283.612 217.567 283.633C217.975 283.633 218.143 283.553 218.119 283.101C218.079 282.354 218.146 281.601 218.094 280.855C218.058 280.322 218.265 280.243 218.738 280.243C221.631 280.264 224.531 280.243 227.416 280.243C232.252 280.243 237.092 280.243 241.931 280.243C242.376 280.243 242.51 280.35 242.51 280.815C242.498 290.508 242.498 300.197 242.51 309.882C242.51 310.298 242.428 310.454 241.977 310.442C240.793 310.405 239.61 310.442 238.43 310.421C238.067 310.421 237.958 310.528 237.967 310.889C237.991 311.709 237.951 312.532 237.985 313.337C237.985 313.734 237.86 313.82 237.491 313.811C236.308 313.789 235.125 313.811 233.945 313.792C233.551 313.792 233.454 313.915 233.466 314.288C233.493 315.071 233.445 315.861 233.487 316.641C233.512 317.118 233.341 317.216 232.902 317.204C231.74 317.173 230.575 317.204 229.41 317.186C229.044 317.186 228.947 317.296 228.956 317.648C228.98 318.452 228.956 319.254 228.971 320.059C228.971 320.453 228.886 320.6 228.459 320.588C227.279 320.561 226.096 320.588 224.912 320.57C224.528 320.57 224.415 320.683 224.428 321.062C224.455 321.827 224.409 322.592 224.446 323.363C224.47 323.828 224.361 323.997 223.857 323.975C222.714 323.935 221.567 323.975 220.421 323.954C220.052 323.954 219.915 324.033 219.93 324.431C219.96 325.251 219.93 326.074 219.948 326.894C219.948 327.273 219.817 327.356 219.476 327.353C218.021 327.338 216.566 327.353 215.109 327.353C208.807 327.353 202.496 327.353 196.176 327.353C195.666 327.353 195.566 327.209 195.566 326.717C195.538 321.937 195.532 317.118 195.532 312.299ZM218.347 312.299C218.347 307.991 218.347 303.683 218.347 299.375C218.347 298.895 218.259 298.72 217.737 298.72C211.045 298.743 204.351 298.743 197.655 298.72C197.203 298.72 197.078 298.831 197.078 299.289C197.092 307.946 197.092 316.601 197.078 325.254C197.078 325.658 197.145 325.811 197.6 325.811C204.333 325.793 211.064 325.793 217.795 325.811C218.262 325.811 218.356 325.661 218.353 325.223C218.341 320.915 218.347 316.604 218.347 312.296V312.299ZM222.854 308.961C222.854 304.653 222.854 300.345 222.854 296.037C222.854 295.284 222.961 295.352 222.141 295.349H202.774C201.585 295.349 201.606 295.349 201.576 296.554C201.576 297.041 201.677 297.194 202.186 297.194C207.894 297.172 213.606 297.194 219.317 297.166C219.817 297.166 219.909 297.31 219.906 297.778C219.887 302.468 219.906 307.159 219.906 311.853C219.906 315.191 219.906 318.532 219.906 321.87C219.906 322.338 220.04 322.461 220.485 322.433C221.102 322.396 221.721 322.396 222.339 322.433C222.775 322.461 222.879 322.311 222.876 321.885C222.848 317.571 222.854 313.263 222.854 308.958V308.961ZM231.886 302.135C231.886 297.827 231.886 293.519 231.902 289.214C231.902 288.688 231.737 288.602 231.258 288.602C224.781 288.616 218.307 288.616 211.834 288.602C210.614 288.602 210.651 288.602 210.614 289.826C210.614 290.325 210.751 290.416 211.224 290.416C216.917 290.398 222.61 290.416 228.3 290.392C228.843 290.392 228.953 290.554 228.95 291.065C228.936 298.241 228.936 305.414 228.95 312.584C228.95 313.462 228.968 314.337 228.95 315.212C228.95 315.576 229.063 315.689 229.419 315.674C230.054 315.639 230.69 315.639 231.325 315.674C231.825 315.708 231.935 315.524 231.935 315.062C231.88 310.748 231.886 306.44 231.886 302.132V302.135ZM236.393 298.769C236.393 294.498 236.393 290.226 236.393 285.952C236.393 285.117 236.518 285.218 235.686 285.218H216.252C215.124 285.218 215.152 285.218 215.112 286.365C215.094 286.888 215.228 287.035 215.761 287.032C221.458 287.014 227.151 287.032 232.838 287.008C233.313 287.008 233.448 287.121 233.448 287.62C233.426 291.346 233.448 295.07 233.448 298.794C233.448 303.123 233.448 307.45 233.448 311.776C233.448 312.177 233.53 312.33 233.954 312.302C234.572 312.264 235.192 312.264 235.811 312.302C236.28 312.336 236.421 312.208 236.421 311.709C236.384 307.388 236.393 303.08 236.393 298.769ZM240.894 295.342C240.894 291.034 240.894 286.726 240.894 282.421C240.894 281.95 240.796 281.809 240.302 281.809C233.811 281.828 227.319 281.828 220.826 281.809C219.637 281.809 219.665 281.809 219.628 283C219.628 283.504 219.759 283.63 220.256 283.63C225.949 283.612 231.639 283.63 237.332 283.608C237.802 283.608 237.942 283.713 237.942 284.22C237.924 289.223 237.942 294.223 237.942 299.213C237.942 302.245 237.942 305.274 237.942 308.303C237.942 308.741 238.031 308.915 238.506 308.891C239.105 308.842 239.707 308.842 240.305 308.891C240.839 308.937 240.915 308.719 240.915 308.248C240.888 303.956 240.894 299.647 240.894 295.342ZM227.355 305.513C227.355 301.208 227.355 296.9 227.355 292.592C227.355 292.087 227.224 291.98 226.73 291.98C220.225 291.998 213.719 291.998 207.214 291.98C206.116 291.98 206.153 291.98 206.101 293.1C206.074 293.69 206.266 293.803 206.821 293.803C212.493 293.782 218.167 293.803 223.842 293.779C224.287 293.779 224.437 293.88 224.415 294.345C224.379 295.263 224.415 296.181 224.415 297.099C224.415 304.216 224.415 311.332 224.415 318.449C224.415 318.914 224.507 319.11 225.01 319.061C225.591 319.018 226.174 319.018 226.754 319.061C227.233 319.092 227.398 318.966 227.395 318.449C227.346 314.126 227.355 309.821 227.355 305.513Z" fill="#060500"/>
<path d="M207.833 310.5C208.103 310.5 208.366 310.42 208.591 310.27C208.815 310.119 208.989 309.906 209.093 309.656C209.196 309.406 209.223 309.131 209.17 308.866C209.118 308.6 208.988 308.357 208.797 308.165C208.606 307.974 208.364 307.844 208.099 307.791C207.835 307.738 207.561 307.765 207.312 307.869C207.063 307.972 206.85 308.148 206.7 308.373C206.55 308.598 206.47 308.862 206.47 309.133C206.471 309.495 206.615 309.842 206.87 310.099C207.126 310.355 207.472 310.499 207.833 310.5ZM207.833 311.868C207.564 311.868 207.3 311.948 207.076 312.098C206.852 312.249 206.677 312.462 206.574 312.712C206.471 312.962 206.444 313.237 206.496 313.502C206.549 313.768 206.679 314.011 206.869 314.203C207.06 314.394 207.303 314.524 207.567 314.577C207.832 314.63 208.106 314.603 208.355 314.499C208.604 314.396 208.817 314.22 208.967 313.995C209.116 313.771 209.196 313.506 209.196 313.236C209.196 312.873 209.052 312.526 208.796 312.269C208.541 312.013 208.195 311.869 207.833 311.868ZM207.833 315.968C207.564 315.968 207.3 316.048 207.076 316.198C206.852 316.349 206.677 316.562 206.574 316.812C206.471 317.062 206.444 317.337 206.496 317.602C206.549 317.868 206.679 318.111 206.869 318.303C207.06 318.494 207.303 318.624 207.567 318.677C207.832 318.73 208.106 318.703 208.355 318.599C208.604 318.496 208.817 318.32 208.967 318.095C209.116 317.871 209.196 317.606 209.196 317.336C209.196 316.973 209.052 316.626 208.796 316.369C208.541 316.113 208.195 315.969 207.833 315.968Z" fill="black"/>
<line x1="185" y1="337.02" x2="253" y2="337.02" stroke="#DEDEDE"/>
<path d="M398.532 192.808C398.532 188.011 398.532 183.215 398.532 178.418C398.532 177.968 398.645 177.844 399.099 177.859C400.246 177.892 401.392 177.859 402.536 177.877C402.932 177.877 403.082 177.802 403.06 177.379C403.024 176.587 403.06 175.792 403.042 175C403.042 174.628 403.131 174.504 403.521 174.51C404.704 174.538 405.887 174.51 407.067 174.528C407.439 174.528 407.577 174.453 407.561 174.06C407.531 173.25 407.561 172.437 407.543 171.627C407.543 171.27 407.65 171.162 408.01 171.168C409.193 171.186 410.376 171.168 411.556 171.186C412.004 171.186 412.105 171.047 412.09 170.636C412.062 169.844 412.09 169.049 412.09 168.257C412.09 167.928 412.187 167.822 412.523 167.828C413.742 167.846 414.962 167.828 416.182 167.828C416.508 167.828 416.627 167.749 416.615 167.405C416.59 166.649 416.654 165.894 416.59 165.135C416.545 164.552 416.767 164.452 417.292 164.47C418.383 164.509 419.475 164.47 420.567 164.491C420.975 164.491 421.143 164.413 421.119 163.965C421.079 163.228 421.146 162.484 421.094 161.747C421.058 161.221 421.265 161.142 421.738 161.142C424.631 161.163 427.531 161.142 430.416 161.142C435.252 161.142 440.092 161.142 444.931 161.142C445.376 161.142 445.51 161.248 445.51 161.708C445.498 171.282 445.498 180.853 445.51 190.42C445.51 190.831 445.428 190.985 444.977 190.973C443.793 190.937 442.61 190.973 441.43 190.952C441.067 190.952 440.958 191.058 440.967 191.415C440.991 192.225 440.951 193.038 440.985 193.832C440.985 194.225 440.86 194.31 440.491 194.301C439.308 194.28 438.125 194.301 436.945 194.283C436.551 194.283 436.454 194.404 436.466 194.772C436.493 195.546 436.445 196.326 436.487 197.097C436.512 197.568 436.341 197.665 435.902 197.653C434.74 197.623 433.575 197.653 432.41 197.635C432.044 197.635 431.947 197.743 431.956 198.091C431.98 198.886 431.956 199.678 431.971 200.473C431.971 200.863 431.886 201.008 431.459 200.996C430.279 200.968 429.096 200.996 427.912 200.977C427.528 200.977 427.415 201.089 427.428 201.464C427.455 202.22 427.409 202.975 427.446 203.737C427.47 204.196 427.361 204.362 426.857 204.341C425.714 204.302 424.567 204.341 423.421 204.32C423.052 204.32 422.915 204.399 422.93 204.792C422.96 205.602 422.93 206.415 422.948 207.225C422.948 207.599 422.817 207.681 422.476 207.678C421.021 207.663 419.566 207.678 418.109 207.678C411.807 207.678 405.496 207.678 399.176 207.678C398.666 207.678 398.566 207.536 398.566 207.049C398.538 202.328 398.532 197.568 398.532 192.808ZM421.347 192.808C421.347 188.552 421.347 184.297 421.347 180.041C421.347 179.567 421.259 179.395 420.737 179.395C414.045 179.417 407.351 179.417 400.655 179.395C400.203 179.395 400.078 179.503 400.078 179.957C400.092 188.508 400.092 197.057 400.078 205.605C400.078 206.004 400.145 206.155 400.6 206.155C407.333 206.137 414.064 206.137 420.795 206.155C421.262 206.155 421.356 206.007 421.353 205.574C421.341 201.319 421.347 197.06 421.347 192.805V192.808ZM425.854 189.51C425.854 185.255 425.854 180.999 425.854 176.744C425.854 176 425.961 176.067 425.141 176.064H405.774C404.585 176.064 404.606 176.064 404.576 177.255C404.576 177.735 404.677 177.886 405.186 177.886C410.894 177.865 416.606 177.886 422.317 177.859C422.817 177.859 422.909 178.001 422.906 178.464C422.887 183.097 422.906 187.73 422.906 192.367C422.906 195.664 422.906 198.964 422.906 202.262C422.906 202.724 423.04 202.845 423.485 202.818C424.102 202.782 424.721 202.782 425.339 202.818C425.775 202.845 425.879 202.697 425.876 202.277C425.848 198.015 425.854 193.76 425.854 189.507V189.51ZM434.886 182.768C434.886 178.512 434.886 174.256 434.902 170.004C434.902 169.484 434.737 169.399 434.258 169.399C427.781 169.414 421.307 169.414 414.834 169.399C413.614 169.399 413.651 169.399 413.614 170.608C413.614 171.101 413.751 171.192 414.224 171.192C419.917 171.174 425.61 171.192 431.3 171.168C431.843 171.168 431.953 171.328 431.95 171.833C431.936 178.921 431.936 186.006 431.95 193.089C431.95 193.956 431.968 194.821 431.95 195.685C431.95 196.045 432.063 196.157 432.419 196.142C433.054 196.107 433.69 196.107 434.325 196.142C434.825 196.175 434.935 195.993 434.935 195.537C434.88 191.276 434.886 187.02 434.886 182.764V182.768ZM439.393 179.443C439.393 175.224 439.393 171.003 439.393 166.782C439.393 165.957 439.518 166.057 438.686 166.057H419.252C418.124 166.057 418.152 166.057 418.112 167.19C418.094 167.707 418.228 167.852 418.761 167.849C424.458 167.831 430.151 167.849 435.838 167.825C436.313 167.825 436.448 167.937 436.448 168.429C436.426 172.111 436.448 175.789 436.448 179.467C436.448 183.744 436.448 188.017 436.448 192.291C436.448 192.687 436.53 192.838 436.954 192.811C437.572 192.773 438.192 192.773 438.811 192.811C439.28 192.844 439.421 192.717 439.421 192.225C439.384 187.957 439.393 183.701 439.393 179.443ZM443.894 176.058C443.894 171.802 443.894 167.547 443.894 163.294C443.894 162.829 443.796 162.69 443.302 162.69C436.811 162.708 430.319 162.708 423.826 162.69C422.637 162.69 422.665 162.69 422.628 163.865C422.628 164.364 422.759 164.488 423.256 164.488C428.949 164.47 434.639 164.488 440.332 164.467C440.802 164.467 440.942 164.57 440.942 165.071C440.924 170.013 440.942 174.952 440.942 179.881C440.942 182.876 440.942 185.868 440.942 188.861C440.942 189.293 441.031 189.465 441.506 189.441C442.105 189.393 442.707 189.393 443.305 189.441C443.839 189.486 443.915 189.272 443.915 188.806C443.888 184.566 443.894 180.31 443.894 176.058ZM430.355 186.104C430.355 181.852 430.355 177.596 430.355 173.341C430.355 172.842 430.224 172.736 429.73 172.736C423.225 172.754 416.719 172.754 410.214 172.736C409.116 172.736 409.153 172.736 409.101 173.842C409.074 174.426 409.266 174.538 409.821 174.538C415.493 174.516 421.167 174.538 426.842 174.513C427.287 174.513 427.437 174.613 427.415 175.073C427.379 175.979 427.415 176.886 427.415 177.793C427.415 184.823 427.415 191.853 427.415 198.883C427.415 199.342 427.507 199.536 428.01 199.487C428.591 199.445 429.174 199.445 429.754 199.487C430.233 199.518 430.398 199.394 430.395 198.883C430.346 194.612 430.355 190.36 430.355 186.104Z" fill="#060500"/>
<path d="M410.775 187.655V194.778C410.257 194.481 409.654 194.361 409.06 194.438C408.466 194.515 407.914 194.784 407.49 195.204C407.067 195.623 406.794 196.17 406.716 196.758C406.637 197.347 406.757 197.945 407.057 198.459C407.356 198.973 407.818 199.375 408.372 199.602C408.925 199.83 409.539 199.869 410.118 199.715C410.696 199.561 411.207 199.222 411.572 198.751C411.936 198.28 412.133 197.702 412.132 197.109V190.357H414.855V187.655H410.775ZM409.418 198.46C409.149 198.46 408.885 198.38 408.661 198.232C408.437 198.084 408.262 197.873 408.159 197.626C408.056 197.379 408.029 197.107 408.082 196.845C408.134 196.583 408.264 196.342 408.455 196.153C408.645 195.964 408.888 195.836 409.153 195.784C409.417 195.732 409.691 195.758 409.94 195.861C410.189 195.963 410.402 196.136 410.552 196.358C410.702 196.58 410.782 196.842 410.782 197.109C410.78 197.467 410.636 197.809 410.381 198.062C410.125 198.315 409.779 198.458 409.418 198.46Z" fill="black"/>
<line x1="388" y1="219.866" x2="456" y2="219.866" stroke="#DEDEDE"/>
<path d="M94.5322 312.299C94.5322 307.444 94.5322 302.588 94.5322 297.732C94.5322 297.276 94.6451 297.151 95.0994 297.166C96.2459 297.2 97.3925 297.166 98.536 297.184C98.9324 297.184 99.0818 297.108 99.0605 296.68C99.0239 295.878 99.0605 295.073 99.0422 294.272C99.0422 293.895 99.1306 293.77 99.5209 293.776C100.704 293.803 101.887 293.776 103.067 293.794C103.439 293.794 103.577 293.718 103.561 293.32C103.531 292.5 103.561 291.677 103.543 290.857C103.543 290.496 103.65 290.386 104.01 290.392C105.193 290.41 106.376 290.392 107.556 290.41C108.004 290.41 108.105 290.269 108.09 289.853C108.062 289.052 108.09 288.247 108.09 287.445C108.09 287.112 108.187 287.005 108.523 287.011C109.742 287.029 110.962 287.011 112.182 287.011C112.508 287.011 112.627 286.931 112.615 286.583C112.59 285.818 112.654 285.053 112.59 284.285C112.545 283.694 112.767 283.593 113.292 283.612C114.383 283.651 115.475 283.612 116.567 283.633C116.975 283.633 117.143 283.553 117.119 283.101C117.079 282.354 117.146 281.601 117.094 280.855C117.058 280.322 117.265 280.243 117.738 280.243C120.631 280.264 123.531 280.243 126.416 280.243C131.252 280.243 136.092 280.243 140.931 280.243C141.376 280.243 141.51 280.35 141.51 280.815C141.498 290.508 141.498 300.197 141.51 309.882C141.51 310.298 141.428 310.454 140.977 310.442C139.793 310.405 138.61 310.442 137.43 310.421C137.067 310.421 136.958 310.528 136.967 310.889C136.991 311.709 136.951 312.532 136.985 313.337C136.985 313.734 136.86 313.82 136.491 313.811C135.308 313.789 134.125 313.811 132.945 313.792C132.551 313.792 132.454 313.915 132.466 314.288C132.493 315.071 132.445 315.861 132.487 316.641C132.512 317.118 132.341 317.216 131.902 317.204C130.74 317.173 129.575 317.204 128.41 317.186C128.044 317.186 127.947 317.296 127.956 317.648C127.98 318.452 127.956 319.254 127.971 320.059C127.971 320.453 127.886 320.6 127.459 320.588C126.279 320.561 125.096 320.588 123.912 320.57C123.528 320.57 123.415 320.683 123.428 321.062C123.455 321.827 123.409 322.592 123.446 323.363C123.47 323.828 123.361 323.997 122.857 323.975C121.714 323.935 120.567 323.975 119.421 323.954C119.052 323.954 118.915 324.033 118.93 324.431C118.96 325.251 118.93 326.074 118.948 326.894C118.948 327.273 118.817 327.356 118.476 327.353C117.021 327.338 115.566 327.353 114.109 327.353C107.807 327.353 101.496 327.353 95.1756 327.353C94.6664 327.353 94.5658 327.209 94.5658 326.717C94.5383 321.937 94.5322 317.118 94.5322 312.299ZM117.347 312.299C117.347 307.991 117.347 303.683 117.347 299.375C117.347 298.895 117.259 298.72 116.737 298.72C110.045 298.743 103.351 298.743 96.6546 298.72C96.2033 298.72 96.0782 298.831 96.0782 299.289C96.0925 307.946 96.0925 316.601 96.0782 325.254C96.0782 325.658 96.1453 325.811 96.5997 325.811C103.333 325.793 110.064 325.793 116.795 325.811C117.262 325.811 117.356 325.661 117.353 325.223C117.341 320.915 117.347 316.604 117.347 312.296V312.299ZM121.854 308.961C121.854 304.653 121.854 300.345 121.854 296.037C121.854 295.284 121.961 295.352 121.141 295.349H101.774C100.585 295.349 100.606 295.349 100.576 296.554C100.576 297.041 100.677 297.194 101.186 297.194C106.894 297.172 112.606 297.194 118.317 297.166C118.817 297.166 118.909 297.31 118.906 297.778C118.887 302.468 118.906 307.159 118.906 311.853C118.906 315.191 118.906 318.532 118.906 321.87C118.906 322.338 119.04 322.461 119.485 322.433C120.102 322.396 120.721 322.396 121.339 322.433C121.775 322.461 121.879 322.311 121.876 321.885C121.848 317.571 121.854 313.263 121.854 308.958V308.961ZM130.886 302.135C130.886 297.827 130.886 293.519 130.902 289.214C130.902 288.688 130.737 288.602 130.258 288.602C123.781 288.616 117.307 288.616 110.834 288.602C109.614 288.602 109.651 288.602 109.614 289.826C109.614 290.325 109.751 290.416 110.224 290.416C115.917 290.398 121.61 290.416 127.3 290.392C127.843 290.392 127.953 290.554 127.95 291.065C127.936 298.241 127.936 305.414 127.95 312.584C127.95 313.462 127.968 314.337 127.95 315.212C127.95 315.576 128.063 315.689 128.419 315.674C129.054 315.639 129.69 315.639 130.325 315.674C130.825 315.708 130.935 315.524 130.935 315.062C130.88 310.748 130.886 306.44 130.886 302.132V302.135ZM135.393 298.769C135.393 294.498 135.393 290.226 135.393 285.952C135.393 285.117 135.518 285.218 134.686 285.218H115.252C114.124 285.218 114.152 285.218 114.112 286.365C114.094 286.888 114.228 287.035 114.761 287.032C120.458 287.014 126.151 287.032 131.838 287.008C132.313 287.008 132.448 287.121 132.448 287.62C132.426 291.346 132.448 295.07 132.448 298.794C132.448 303.123 132.448 307.45 132.448 311.776C132.448 312.177 132.53 312.33 132.954 312.302C133.572 312.264 134.192 312.264 134.811 312.302C135.28 312.336 135.421 312.208 135.421 311.709C135.384 307.388 135.393 303.08 135.393 298.769ZM139.894 295.342C139.894 291.034 139.894 286.726 139.894 282.421C139.894 281.95 139.796 281.809 139.302 281.809C132.811 281.828 126.319 281.828 119.826 281.809C118.637 281.809 118.665 281.809 118.628 283C118.628 283.504 118.759 283.63 119.256 283.63C124.949 283.612 130.639 283.63 136.332 283.608C136.802 283.608 136.942 283.713 136.942 284.22C136.924 289.223 136.942 294.223 136.942 299.213C136.942 302.245 136.942 305.274 136.942 308.303C136.942 308.741 137.031 308.915 137.506 308.891C138.105 308.842 138.707 308.842 139.305 308.891C139.839 308.937 139.915 308.719 139.915 308.248C139.888 303.956 139.894 299.647 139.894 295.342ZM126.355 305.513C126.355 301.208 126.355 296.9 126.355 292.592C126.355 292.087 126.224 291.98 125.73 291.98C119.225 291.998 112.719 291.998 106.214 291.98C105.116 291.98 105.153 291.98 105.101 293.1C105.074 293.69 105.266 293.803 105.821 293.803C111.493 293.782 117.167 293.803 122.842 293.779C123.287 293.779 123.437 293.88 123.415 294.345C123.379 295.263 123.415 296.181 123.415 297.099C123.415 304.216 123.415 311.332 123.415 318.449C123.415 318.914 123.507 319.11 124.01 319.061C124.591 319.018 125.174 319.018 125.754 319.061C126.233 319.092 126.398 318.966 126.395 318.449C126.346 314.126 126.355 309.821 126.355 305.513Z" fill="#060500"/>
<path d="M113.008 318.813C113.007 318.996 112.935 319.17 112.806 319.299C112.678 319.428 112.504 319.501 112.322 319.502H110.95V320.879H112.322C112.868 320.879 113.391 320.661 113.777 320.274C114.163 319.886 114.38 319.361 114.38 318.813V317.436H113.008V318.813Z" fill="black"/>
<path d="M100.658 307.799C100.658 307.616 100.731 307.441 100.859 307.312C100.988 307.183 101.162 307.11 101.344 307.11H102.717V305.733H101.344C101.074 305.733 100.806 305.785 100.556 305.889C100.306 305.992 100.078 306.144 99.8872 306.336C99.6959 306.528 99.5443 306.756 99.4412 307.007C99.338 307.258 99.2853 307.527 99.2861 307.799V309.175H100.658V307.799Z" fill="black"/>
<path d="M100.658 318.813V317.436H99.2861V318.813C99.2857 319.085 99.3387 319.353 99.442 319.604C99.5453 319.855 99.6969 320.083 99.8881 320.275C100.079 320.466 100.306 320.619 100.556 320.722C100.806 320.826 101.074 320.879 101.344 320.879H102.717V319.502H101.344C101.163 319.501 100.989 319.428 100.86 319.299C100.732 319.17 100.659 318.996 100.658 318.813Z" fill="black"/>
<path d="M112.322 305.721H110.95V307.098H112.322C112.413 307.098 112.503 307.116 112.587 307.152C112.671 307.187 112.748 307.239 112.811 307.304C112.875 307.369 112.926 307.447 112.959 307.531C112.993 307.616 113.01 307.707 113.008 307.799V309.176H114.38V307.799C114.382 307.526 114.33 307.256 114.228 307.004C114.125 306.752 113.974 306.523 113.783 306.329C113.591 306.136 113.364 305.983 113.113 305.879C112.862 305.774 112.593 305.721 112.322 305.721Z" fill="black"/>
<path d="M111.636 315.267V311.317C111.637 311.076 111.574 310.838 111.453 310.629C111.333 310.42 111.159 310.246 110.95 310.127L107.519 308.144C107.311 308.022 107.074 307.957 106.833 307.957C106.592 307.957 106.355 308.022 106.147 308.144L102.716 310.118C102.507 310.239 102.333 310.414 102.213 310.625C102.092 310.836 102.029 311.074 102.03 311.317V315.267C102.029 315.509 102.092 315.747 102.212 315.957C102.333 316.167 102.507 316.341 102.716 316.461L106.147 318.443C106.356 318.563 106.592 318.627 106.833 318.627C107.074 318.627 107.31 318.563 107.519 318.443L110.95 316.461C111.159 316.34 111.332 316.166 111.453 315.957C111.573 315.747 111.636 315.509 111.636 315.267ZM106.147 316.852L103.402 315.267V312.082L106.147 313.685V316.852ZM106.833 312.495L104.125 310.904L106.833 309.328L109.55 310.898L106.833 312.495ZM110.263 315.267L107.519 316.852V313.685L110.263 312.082V315.267Z" fill="black"/>
<line x1="84" y1="337.02" x2="152" y2="337.02" stroke="#DEDEDE"/>
<path d="M297.532 192.808C297.532 188.011 297.532 183.215 297.532 178.418C297.532 177.968 297.645 177.844 298.099 177.859C299.246 177.892 300.392 177.859 301.536 177.877C301.932 177.877 302.082 177.802 302.06 177.379C302.024 176.587 302.06 175.792 302.042 175C302.042 174.628 302.131 174.504 302.521 174.51C303.704 174.538 304.887 174.51 306.067 174.528C306.439 174.528 306.577 174.453 306.561 174.06C306.531 173.25 306.561 172.437 306.543 171.627C306.543 171.27 306.65 171.162 307.01 171.168C308.193 171.186 309.376 171.168 310.556 171.186C311.004 171.186 311.105 171.047 311.09 170.636C311.062 169.844 311.09 169.049 311.09 168.257C311.09 167.928 311.187 167.822 311.523 167.828C312.742 167.846 313.962 167.828 315.182 167.828C315.508 167.828 315.627 167.749 315.615 167.405C315.59 166.649 315.654 165.894 315.59 165.135C315.545 164.552 315.767 164.452 316.292 164.47C317.383 164.509 318.475 164.47 319.567 164.491C319.975 164.491 320.143 164.413 320.119 163.965C320.079 163.228 320.146 162.484 320.094 161.747C320.058 161.221 320.265 161.142 320.738 161.142C323.631 161.163 326.531 161.142 329.416 161.142C334.252 161.142 339.092 161.142 343.931 161.142C344.376 161.142 344.51 161.248 344.51 161.708C344.498 171.282 344.498 180.853 344.51 190.42C344.51 190.831 344.428 190.985 343.977 190.973C342.793 190.937 341.61 190.973 340.43 190.952C340.067 190.952 339.958 191.058 339.967 191.415C339.991 192.225 339.951 193.038 339.985 193.832C339.985 194.225 339.86 194.31 339.491 194.301C338.308 194.28 337.125 194.301 335.945 194.283C335.551 194.283 335.454 194.404 335.466 194.772C335.493 195.546 335.445 196.326 335.487 197.097C335.512 197.568 335.341 197.665 334.902 197.653C333.74 197.623 332.575 197.653 331.41 197.635C331.044 197.635 330.947 197.743 330.956 198.091C330.98 198.886 330.956 199.678 330.971 200.473C330.971 200.863 330.886 201.008 330.459 200.996C329.279 200.968 328.096 200.996 326.912 200.977C326.528 200.977 326.415 201.089 326.428 201.464C326.455 202.22 326.409 202.975 326.446 203.737C326.47 204.196 326.361 204.362 325.857 204.341C324.714 204.302 323.567 204.341 322.421 204.32C322.052 204.32 321.915 204.399 321.93 204.792C321.96 205.602 321.93 206.415 321.948 207.225C321.948 207.599 321.817 207.681 321.476 207.678C320.021 207.663 318.566 207.678 317.109 207.678C310.807 207.678 304.496 207.678 298.176 207.678C297.666 207.678 297.566 207.536 297.566 207.049C297.538 202.328 297.532 197.568 297.532 192.808ZM320.347 192.808C320.347 188.552 320.347 184.297 320.347 180.041C320.347 179.567 320.259 179.395 319.737 179.395C313.045 179.417 306.351 179.417 299.655 179.395C299.203 179.395 299.078 179.503 299.078 179.957C299.092 188.508 299.092 197.057 299.078 205.605C299.078 206.004 299.145 206.155 299.6 206.155C306.333 206.137 313.064 206.137 319.795 206.155C320.262 206.155 320.356 206.007 320.353 205.574C320.341 201.319 320.347 197.06 320.347 192.805V192.808ZM324.854 189.51C324.854 185.255 324.854 180.999 324.854 176.744C324.854 176 324.961 176.067 324.141 176.064H304.774C303.585 176.064 303.606 176.064 303.576 177.255C303.576 177.735 303.677 177.886 304.186 177.886C309.894 177.865 315.606 177.886 321.317 177.859C321.817 177.859 321.909 178.001 321.906 178.464C321.887 183.097 321.906 187.73 321.906 192.367C321.906 195.664 321.906 198.964 321.906 202.262C321.906 202.724 322.04 202.845 322.485 202.818C323.102 202.782 323.721 202.782 324.339 202.818C324.775 202.845 324.879 202.697 324.876 202.277C324.848 198.015 324.854 193.76 324.854 189.507V189.51ZM333.886 182.768C333.886 178.512 333.886 174.256 333.902 170.004C333.902 169.484 333.737 169.399 333.258 169.399C326.781 169.414 320.307 169.414 313.834 169.399C312.614 169.399 312.651 169.399 312.614 170.608C312.614 171.101 312.751 171.192 313.224 171.192C318.917 171.174 324.61 171.192 330.3 171.168C330.843 171.168 330.953 171.328 330.95 171.833C330.936 178.921 330.936 186.006 330.95 193.089C330.95 193.956 330.968 194.821 330.95 195.685C330.95 196.045 331.063 196.157 331.419 196.142C332.054 196.107 332.69 196.107 333.325 196.142C333.825 196.175 333.935 195.993 333.935 195.537C333.88 191.276 333.886 187.02 333.886 182.764V182.768ZM338.393 179.443C338.393 175.224 338.393 171.003 338.393 166.782C338.393 165.957 338.518 166.057 337.686 166.057H318.252C317.124 166.057 317.152 166.057 317.112 167.19C317.094 167.707 317.228 167.852 317.761 167.849C323.458 167.831 329.151 167.849 334.838 167.825C335.313 167.825 335.448 167.937 335.448 168.429C335.426 172.111 335.448 175.789 335.448 179.467C335.448 183.744 335.448 188.017 335.448 192.291C335.448 192.687 335.53 192.838 335.954 192.811C336.572 192.773 337.192 192.773 337.811 192.811C338.28 192.844 338.421 192.717 338.421 192.225C338.384 187.957 338.393 183.701 338.393 179.443ZM342.894 176.058C342.894 171.802 342.894 167.547 342.894 163.294C342.894 162.829 342.796 162.69 342.302 162.69C335.811 162.708 329.319 162.708 322.826 162.69C321.637 162.69 321.665 162.69 321.628 163.865C321.628 164.364 321.759 164.488 322.256 164.488C327.949 164.47 333.639 164.488 339.332 164.467C339.802 164.467 339.942 164.57 339.942 165.071C339.924 170.013 339.942 174.952 339.942 179.881C339.942 182.876 339.942 185.868 339.942 188.861C339.942 189.293 340.031 189.465 340.506 189.441C341.105 189.393 341.707 189.393 342.305 189.441C342.839 189.486 342.915 189.272 342.915 188.806C342.888 184.566 342.894 180.31 342.894 176.058ZM329.355 186.104C329.355 181.852 329.355 177.596 329.355 173.341C329.355 172.842 329.224 172.736 328.73 172.736C322.225 172.754 315.719 172.754 309.214 172.736C308.116 172.736 308.153 172.736 308.101 173.842C308.074 174.426 308.266 174.538 308.821 174.538C314.493 174.516 320.167 174.538 325.842 174.513C326.287 174.513 326.437 174.613 326.415 175.073C326.379 175.979 326.415 176.886 326.415 177.793C326.415 184.823 326.415 191.853 326.415 198.883C326.415 199.342 326.507 199.536 327.01 199.487C327.591 199.445 328.174 199.445 328.754 199.487C329.233 199.518 329.398 199.394 329.395 198.883C329.346 194.612 329.355 190.36 329.355 186.104Z" fill="#060500"/>
<path d="M307.049 196.432H312.501V197.783H307.049V196.432ZM307.049 193.733H312.501V195.081H307.049V193.733ZM311.138 186.978H305.686C305.326 186.98 304.981 187.123 304.726 187.376C304.471 187.629 304.328 187.971 304.326 188.329V199.134C304.325 199.491 304.467 199.833 304.721 200.087C304.975 200.34 305.32 200.483 305.68 200.485H313.861C314.223 200.484 314.569 200.341 314.824 200.088C315.08 199.835 315.224 199.492 315.224 199.134V191.031L311.138 186.978ZM313.861 199.134H305.686V188.329H310.455V191.705H313.861V199.134Z" fill="black"/>
<line x1="287" y1="220.267" x2="355" y2="220.267" stroke="#DEDEDE"/>
<path d="M101.366 236H100.082V227.384H101.366V236ZM103.158 236V229.904H103.86C104.024 229.904 104.126 229.982 104.166 230.138L104.25 230.72C104.474 230.452 104.722 230.234 104.994 230.066C105.27 229.894 105.592 229.808 105.96 229.808C106.364 229.808 106.692 229.92 106.944 230.144C107.196 230.364 107.38 230.664 107.496 231.044C107.584 230.828 107.698 230.642 107.838 230.486C107.978 230.33 108.134 230.202 108.306 230.102C108.478 230.002 108.66 229.928 108.852 229.88C109.048 229.832 109.246 229.808 109.446 229.808C109.77 229.808 110.058 229.86 110.31 229.964C110.566 230.064 110.782 230.212 110.958 230.408C111.134 230.604 111.268 230.846 111.36 231.134C111.452 231.422 111.498 231.75 111.498 232.118V236H110.322V232.118C110.322 231.662 110.222 231.318 110.022 231.086C109.826 230.854 109.538 230.738 109.158 230.738C108.99 230.738 108.83 230.768 108.678 230.828C108.526 230.884 108.392 230.97 108.276 231.086C108.164 231.202 108.074 231.346 108.006 231.518C107.942 231.69 107.91 231.89 107.91 232.118V236H106.734V232.118C106.734 231.646 106.64 231.298 106.452 231.074C106.264 230.85 105.988 230.738 105.624 230.738C105.372 230.738 105.138 230.804 104.922 230.936C104.706 231.068 104.508 231.248 104.328 231.476V236H103.158ZM116.348 233.294C115.872 233.31 115.468 233.348 115.136 233.408C114.804 233.464 114.534 233.54 114.326 233.636C114.118 233.732 113.968 233.846 113.876 233.978C113.784 234.106 113.738 234.25 113.738 234.41C113.738 234.562 113.762 234.694 113.81 234.806C113.862 234.914 113.93 235.004 114.014 235.076C114.102 235.144 114.204 235.194 114.32 235.226C114.436 235.258 114.562 235.274 114.698 235.274C114.878 235.274 115.042 235.256 115.19 235.22C115.342 235.184 115.484 235.134 115.616 235.07C115.748 235.002 115.874 234.92 115.994 234.824C116.114 234.728 116.232 234.618 116.348 234.494V233.294ZM112.916 230.756C113.256 230.432 113.624 230.19 114.02 230.03C114.42 229.87 114.858 229.79 115.334 229.79C115.682 229.79 115.99 229.848 116.258 229.964C116.526 230.076 116.752 230.234 116.936 230.438C117.12 230.642 117.258 230.886 117.35 231.17C117.446 231.454 117.494 231.768 117.494 232.112V236H116.972C116.856 236 116.768 235.982 116.708 235.946C116.648 235.906 116.6 235.834 116.564 235.73L116.438 235.196C116.282 235.34 116.128 235.468 115.976 235.58C115.824 235.688 115.664 235.782 115.496 235.862C115.332 235.938 115.156 235.996 114.968 236.036C114.78 236.076 114.572 236.096 114.344 236.096C114.104 236.096 113.878 236.064 113.666 236C113.458 235.932 113.276 235.83 113.12 235.694C112.964 235.558 112.84 235.388 112.748 235.184C112.66 234.98 112.616 234.742 112.616 234.47C112.616 234.23 112.68 234 112.808 233.78C112.94 233.556 113.152 233.356 113.444 233.18C113.74 233.004 114.124 232.86 114.596 232.748C115.072 232.636 115.656 232.572 116.348 232.556V232.112C116.348 231.652 116.25 231.308 116.054 231.08C115.858 230.852 115.57 230.738 115.19 230.738C114.934 230.738 114.718 230.77 114.542 230.834C114.37 230.898 114.22 230.97 114.092 231.05C113.968 231.126 113.858 231.196 113.762 231.26C113.67 231.324 113.574 231.356 113.474 231.356C113.394 231.356 113.324 231.334 113.264 231.29C113.208 231.246 113.162 231.194 113.126 231.134L112.916 230.756ZM121.202 232.958C121.41 232.958 121.592 232.93 121.748 232.874C121.908 232.818 122.04 232.74 122.144 232.64C122.252 232.536 122.332 232.412 122.384 232.268C122.44 232.124 122.468 231.966 122.468 231.794C122.468 231.442 122.36 231.162 122.144 230.954C121.932 230.742 121.618 230.636 121.202 230.636C120.79 230.636 120.476 230.742 120.26 230.954C120.048 231.162 119.942 231.442 119.942 231.794C119.942 231.966 119.968 232.124 120.02 232.268C120.076 232.408 120.156 232.53 120.26 232.634C120.368 232.734 120.5 232.814 120.656 232.874C120.816 232.93 120.998 232.958 121.202 232.958ZM123.068 236.318C123.068 236.174 123.028 236.06 122.948 235.976C122.868 235.888 122.758 235.82 122.618 235.772C122.482 235.72 122.322 235.684 122.138 235.664C121.954 235.64 121.76 235.622 121.556 235.61C121.356 235.598 121.15 235.588 120.938 235.58C120.726 235.568 120.522 235.548 120.326 235.52C120.118 235.624 119.946 235.75 119.81 235.898C119.678 236.046 119.612 236.22 119.612 236.42C119.612 236.548 119.644 236.668 119.708 236.78C119.776 236.892 119.878 236.988 120.014 237.068C120.154 237.152 120.328 237.216 120.536 237.26C120.748 237.308 121 237.332 121.292 237.332C121.58 237.332 121.834 237.306 122.054 237.254C122.274 237.206 122.458 237.136 122.606 237.044C122.758 236.956 122.872 236.85 122.948 236.726C123.028 236.602 123.068 236.466 123.068 236.318ZM124.256 230.132V230.57C124.256 230.714 124.166 230.804 123.986 230.84L123.332 230.936C123.388 231.06 123.432 231.192 123.464 231.332C123.496 231.468 123.512 231.612 123.512 231.764C123.512 232.064 123.454 232.336 123.338 232.58C123.222 232.82 123.062 233.026 122.858 233.198C122.654 233.37 122.41 233.502 122.126 233.594C121.846 233.686 121.538 233.732 121.202 233.732C120.926 233.732 120.668 233.702 120.428 233.642C120.308 233.714 120.216 233.794 120.152 233.882C120.092 233.966 120.062 234.05 120.062 234.134C120.062 234.274 120.12 234.378 120.236 234.446C120.356 234.514 120.51 234.564 120.698 234.596C120.89 234.624 121.108 234.642 121.352 234.65C121.6 234.658 121.85 234.672 122.102 234.692C122.358 234.708 122.608 234.74 122.852 234.788C123.1 234.832 123.318 234.906 123.506 235.01C123.698 235.11 123.852 235.25 123.968 235.43C124.088 235.606 124.148 235.836 124.148 236.12C124.148 236.384 124.082 236.64 123.95 236.888C123.822 237.136 123.634 237.356 123.386 237.548C123.138 237.74 122.836 237.894 122.48 238.01C122.124 238.126 121.72 238.184 121.268 238.184C120.816 238.184 120.422 238.14 120.086 238.052C119.754 237.964 119.476 237.846 119.252 237.698C119.032 237.55 118.866 237.378 118.754 237.182C118.646 236.986 118.592 236.782 118.592 236.57C118.592 236.274 118.684 236.024 118.868 235.82C119.052 235.612 119.306 235.45 119.63 235.334C119.454 235.254 119.314 235.146 119.21 235.01C119.106 234.87 119.054 234.686 119.054 234.458C119.054 234.37 119.07 234.28 119.102 234.188C119.134 234.092 119.182 233.998 119.246 233.906C119.314 233.81 119.396 233.72 119.492 233.636C119.592 233.552 119.706 233.476 119.834 233.408C119.534 233.24 119.298 233.018 119.126 232.742C118.954 232.462 118.868 232.136 118.868 231.764C118.868 231.464 118.926 231.194 119.042 230.954C119.158 230.714 119.318 230.508 119.522 230.336C119.73 230.164 119.976 230.032 120.26 229.94C120.548 229.848 120.862 229.802 121.202 229.802C121.73 229.802 122.184 229.912 122.564 230.132H124.256ZM129.274 232.274C129.274 232.042 129.24 231.828 129.172 231.632C129.108 231.436 129.012 231.266 128.884 231.122C128.756 230.978 128.6 230.866 128.416 230.786C128.232 230.706 128.02 230.666 127.78 230.666C127.288 230.666 126.9 230.808 126.616 231.092C126.336 231.376 126.158 231.77 126.082 232.274H129.274ZM130.24 235.13C130.096 235.298 129.93 235.444 129.742 235.568C129.554 235.688 129.354 235.786 129.142 235.862C128.93 235.938 128.71 235.994 128.482 236.03C128.258 236.066 128.036 236.084 127.816 236.084C127.396 236.084 127.006 236.014 126.646 235.874C126.29 235.73 125.98 235.522 125.716 235.25C125.456 234.974 125.252 234.634 125.104 234.23C124.96 233.822 124.888 233.354 124.888 232.826C124.888 232.402 124.954 232.008 125.086 231.644C125.218 231.276 125.406 230.956 125.65 230.684C125.898 230.412 126.2 230.198 126.556 230.042C126.912 229.886 127.312 229.808 127.756 229.808C128.128 229.808 128.47 229.87 128.782 229.994C129.098 230.114 129.37 230.29 129.598 230.522C129.826 230.754 130.004 231.04 130.132 231.38C130.264 231.72 130.33 232.108 130.33 232.544C130.33 232.724 130.31 232.846 130.27 232.91C130.23 232.97 130.156 233 130.048 233H126.052C126.064 233.364 126.116 233.682 126.208 233.954C126.3 234.222 126.426 234.446 126.586 234.626C126.75 234.806 126.944 234.94 127.168 235.028C127.392 235.116 127.642 235.16 127.918 235.16C128.178 235.16 128.402 235.13 128.59 235.07C128.782 235.01 128.946 234.946 129.082 234.878C129.222 234.806 129.338 234.74 129.43 234.68C129.526 234.62 129.61 234.59 129.682 234.59C129.778 234.59 129.852 234.626 129.904 234.698L130.24 235.13ZM135.182 230.954C135.15 231.006 135.116 231.044 135.08 231.068C135.044 231.088 134.998 231.098 134.942 231.098C134.878 231.098 134.806 231.076 134.726 231.032C134.65 230.988 134.556 230.94 134.444 230.888C134.336 230.836 134.208 230.788 134.06 230.744C133.912 230.7 133.736 230.678 133.532 230.678C133.364 230.678 133.21 230.7 133.07 230.744C132.934 230.784 132.818 230.842 132.722 230.918C132.626 230.99 132.552 231.078 132.5 231.182C132.448 231.282 132.422 231.39 132.422 231.506C132.422 231.658 132.466 231.784 132.554 231.884C132.646 231.984 132.764 232.07 132.908 232.142C133.056 232.214 133.222 232.28 133.406 232.34C133.594 232.396 133.784 232.456 133.976 232.52C134.172 232.584 134.362 232.658 134.546 232.742C134.734 232.822 134.9 232.924 135.044 233.048C135.192 233.168 135.31 233.314 135.398 233.486C135.49 233.658 135.536 233.868 135.536 234.116C135.536 234.4 135.484 234.664 135.38 234.908C135.28 235.148 135.13 235.356 134.93 235.532C134.734 235.708 134.49 235.846 134.198 235.946C133.906 236.046 133.572 236.096 133.196 236.096C132.776 236.096 132.388 236.026 132.032 235.886C131.676 235.746 131.378 235.568 131.138 235.352L131.414 234.902C131.446 234.846 131.486 234.804 131.534 234.776C131.582 234.744 131.646 234.728 131.726 234.728C131.802 234.728 131.88 234.756 131.96 234.812C132.04 234.868 132.136 234.93 132.248 234.998C132.36 235.062 132.496 235.122 132.656 235.178C132.816 235.23 133.016 235.256 133.256 235.256C133.456 235.256 133.63 235.232 133.778 235.184C133.926 235.132 134.048 235.064 134.144 234.98C134.244 234.892 134.318 234.792 134.366 234.68C134.414 234.568 134.438 234.45 134.438 234.326C134.438 234.166 134.392 234.034 134.3 233.93C134.212 233.822 134.094 233.73 133.946 233.654C133.802 233.578 133.636 233.512 133.448 233.456C133.26 233.4 133.068 233.34 132.872 233.276C132.676 233.212 132.484 233.138 132.296 233.054C132.108 232.97 131.94 232.864 131.792 232.736C131.648 232.608 131.53 232.452 131.438 232.268C131.35 232.084 131.306 231.86 131.306 231.596C131.306 231.36 131.354 231.134 131.45 230.918C131.55 230.702 131.692 230.512 131.876 230.348C132.064 230.184 132.294 230.054 132.566 229.958C132.842 229.858 133.156 229.808 133.508 229.808C133.912 229.808 134.276 229.872 134.6 230C134.928 230.128 135.208 230.304 135.44 230.528L135.182 230.954Z" fill="black"/>
<path d="M209.549 227.384L206.045 236H204.899L201.395 227.384H202.415C202.527 227.384 202.617 227.412 202.685 227.468C202.757 227.524 202.811 227.596 202.847 227.684L205.175 233.54C205.231 233.684 205.285 233.842 205.337 234.014C205.393 234.186 205.443 234.366 205.487 234.554C205.527 234.366 205.571 234.186 205.619 234.014C205.667 233.842 205.719 233.684 205.775 233.54L208.097 227.684C208.125 227.604 208.175 227.534 208.247 227.474C208.323 227.414 208.415 227.384 208.523 227.384H209.549ZM211.609 229.904V236H210.439V229.904H211.609ZM211.831 228.02C211.831 228.128 211.809 228.232 211.765 228.332C211.721 228.428 211.661 228.514 211.585 228.59C211.513 228.662 211.427 228.72 211.326 228.764C211.227 228.804 211.123 228.824 211.015 228.824C210.907 228.824 210.805 228.804 210.709 228.764C210.613 228.72 210.527 228.662 210.451 228.59C210.379 228.514 210.321 228.428 210.277 228.332C210.237 228.232 210.217 228.128 210.217 228.02C210.217 227.908 210.237 227.804 210.277 227.708C210.321 227.608 210.379 227.522 210.451 227.45C210.527 227.374 210.613 227.316 210.709 227.276C210.805 227.232 210.907 227.21 211.015 227.21C211.123 227.21 211.227 227.232 211.326 227.276C211.427 227.316 211.513 227.374 211.585 227.45C211.661 227.522 211.721 227.608 211.765 227.708C211.809 227.804 211.831 227.908 211.831 228.02ZM217.232 231.38C217.04 231.128 216.832 230.952 216.608 230.852C216.388 230.752 216.14 230.702 215.864 230.702C215.328 230.702 214.912 230.896 214.616 231.284C214.324 231.668 214.178 232.23 214.178 232.97C214.178 233.358 214.21 233.69 214.274 233.966C214.342 234.238 214.438 234.462 214.562 234.638C214.69 234.81 214.846 234.938 215.03 235.022C215.214 235.102 215.422 235.142 215.654 235.142C215.994 235.142 216.288 235.066 216.536 234.914C216.784 234.762 217.016 234.548 217.232 234.272V231.38ZM218.408 227.144V236H217.7C217.536 236 217.434 235.922 217.394 235.766L217.292 235.064C217.032 235.372 216.736 235.62 216.404 235.808C216.076 235.992 215.696 236.084 215.264 236.084C214.916 236.084 214.6 236.016 214.316 235.88C214.036 235.744 213.796 235.546 213.596 235.286C213.396 235.022 213.242 234.696 213.134 234.308C213.026 233.92 212.972 233.474 212.972 232.97C212.972 232.518 213.032 232.098 213.152 231.71C213.272 231.322 213.446 230.986 213.674 230.702C213.902 230.418 214.178 230.196 214.502 230.036C214.826 229.872 215.192 229.79 215.6 229.79C215.968 229.79 216.28 229.85 216.536 229.97C216.796 230.09 217.028 230.26 217.232 230.48V227.144H218.408ZM224.079 232.274C224.079 232.042 224.045 231.828 223.977 231.632C223.913 231.436 223.817 231.266 223.689 231.122C223.561 230.978 223.405 230.866 223.221 230.786C223.037 230.706 222.825 230.666 222.585 230.666C222.093 230.666 221.705 230.808 221.421 231.092C221.141 231.376 220.963 231.77 220.887 232.274H224.079ZM225.045 235.13C224.901 235.298 224.735 235.444 224.547 235.568C224.359 235.688 224.159 235.786 223.947 235.862C223.735 235.938 223.515 235.994 223.287 236.03C223.063 236.066 222.841 236.084 222.621 236.084C222.201 236.084 221.811 236.014 221.451 235.874C221.095 235.73 220.785 235.522 220.521 235.25C220.261 234.974 220.057 234.634 219.909 234.23C219.765 233.822 219.693 233.354 219.693 232.826C219.693 232.402 219.759 232.008 219.891 231.644C220.023 231.276 220.211 230.956 220.455 230.684C220.703 230.412 221.005 230.198 221.361 230.042C221.717 229.886 222.117 229.808 222.561 229.808C222.933 229.808 223.275 229.87 223.587 229.994C223.903 230.114 224.175 230.29 224.403 230.522C224.631 230.754 224.809 231.04 224.937 231.38C225.069 231.72 225.135 232.108 225.135 232.544C225.135 232.724 225.115 232.846 225.075 232.91C225.035 232.97 224.961 233 224.853 233H220.857C220.869 233.364 220.921 233.682 221.013 233.954C221.105 234.222 221.231 234.446 221.391 234.626C221.555 234.806 221.749 234.94 221.973 235.028C222.197 235.116 222.447 235.16 222.723 235.16C222.983 235.16 223.207 235.13 223.395 235.07C223.587 235.01 223.751 234.946 223.887 234.878C224.027 234.806 224.143 234.74 224.235 234.68C224.331 234.62 224.415 234.59 224.487 234.59C224.583 234.59 224.657 234.626 224.709 234.698L225.045 235.13ZM228.99 229.808C229.438 229.808 229.842 229.882 230.202 230.03C230.566 230.174 230.874 230.384 231.126 230.66C231.382 230.932 231.578 231.262 231.714 231.65C231.85 232.034 231.918 232.466 231.918 232.946C231.918 233.426 231.85 233.86 231.714 234.248C231.578 234.636 231.382 234.966 231.126 235.238C230.874 235.51 230.566 235.72 230.202 235.868C229.842 236.012 229.438 236.084 228.99 236.084C228.538 236.084 228.13 236.012 227.766 235.868C227.406 235.72 227.098 235.51 226.842 235.238C226.586 234.966 226.388 234.636 226.248 234.248C226.112 233.86 226.044 233.426 226.044 232.946C226.044 232.466 226.112 232.034 226.248 231.65C226.388 231.262 226.586 230.932 226.842 230.66C227.098 230.384 227.406 230.174 227.766 230.03C228.13 229.882 228.538 229.808 228.99 229.808ZM228.99 235.172C229.566 235.172 229.996 234.978 230.28 234.59C230.564 234.202 230.706 233.656 230.706 232.952C230.706 232.248 230.564 231.702 230.28 231.314C229.996 230.922 229.566 230.726 228.99 230.726C228.406 230.726 227.97 230.922 227.682 231.314C227.398 231.702 227.256 232.248 227.256 232.952C227.256 233.656 227.398 234.202 227.682 234.59C227.97 234.978 228.406 235.172 228.99 235.172ZM236.818 230.954C236.786 231.006 236.752 231.044 236.716 231.068C236.68 231.088 236.634 231.098 236.578 231.098C236.514 231.098 236.442 231.076 236.362 231.032C236.286 230.988 236.192 230.94 236.08 230.888C235.972 230.836 235.844 230.788 235.696 230.744C235.548 230.7 235.372 230.678 235.168 230.678C235 230.678 234.846 230.7 234.706 230.744C234.57 230.784 234.454 230.842 234.358 230.918C234.262 230.99 234.188 231.078 234.136 231.182C234.084 231.282 234.058 231.39 234.058 231.506C234.058 231.658 234.102 231.784 234.19 231.884C234.282 231.984 234.4 232.07 234.544 232.142C234.692 232.214 234.858 232.28 235.042 232.34C235.23 232.396 235.42 232.456 235.612 232.52C235.808 232.584 235.998 232.658 236.182 232.742C236.37 232.822 236.536 232.924 236.68 233.048C236.828 233.168 236.946 233.314 237.034 233.486C237.126 233.658 237.172 233.868 237.172 234.116C237.172 234.4 237.12 234.664 237.016 234.908C236.916 235.148 236.766 235.356 236.566 235.532C236.37 235.708 236.126 235.846 235.834 235.946C235.542 236.046 235.208 236.096 234.832 236.096C234.412 236.096 234.024 236.026 233.668 235.886C233.312 235.746 233.014 235.568 232.774 235.352L233.05 234.902C233.082 234.846 233.122 234.804 233.17 234.776C233.218 234.744 233.282 234.728 233.362 234.728C233.438 234.728 233.516 234.756 233.596 234.812C233.676 234.868 233.772 234.93 233.884 234.998C233.996 235.062 234.132 235.122 234.292 235.178C234.452 235.23 234.652 235.256 234.892 235.256C235.092 235.256 235.266 235.232 235.414 235.184C235.562 235.132 235.684 235.064 235.78 234.98C235.88 234.892 235.954 234.792 236.002 234.68C236.05 234.568 236.074 234.45 236.074 234.326C236.074 234.166 236.028 234.034 235.936 233.93C235.848 233.822 235.73 233.73 235.582 233.654C235.438 233.578 235.272 233.512 235.084 233.456C234.896 233.4 234.704 233.34 234.508 233.276C234.312 233.212 234.12 233.138 233.932 233.054C233.744 232.97 233.576 232.864 233.428 232.736C233.284 232.608 233.166 232.452 233.074 232.268C232.986 232.084 232.942 231.86 232.942 231.596C232.942 231.36 232.99 231.134 233.086 230.918C233.186 230.702 233.328 230.512 233.512 230.348C233.7 230.184 233.93 230.054 234.202 229.958C234.478 229.858 234.792 229.808 235.144 229.808C235.548 229.808 235.912 229.872 236.236 230C236.564 230.128 236.844 230.304 237.076 230.528L236.818 230.954Z" fill="black"/>
<path d="M412.025 232.79L410.747 229.448C410.655 229.22 410.563 228.932 410.471 228.584C410.427 228.756 410.381 228.916 410.333 229.064C410.289 229.212 410.245 229.344 410.201 229.46L408.929 232.79H412.025ZM414.551 236H413.567C413.455 236 413.363 235.972 413.291 235.916C413.219 235.86 413.167 235.788 413.135 235.7L412.373 233.702H408.575L407.813 235.7C407.785 235.776 407.733 235.846 407.657 235.91C407.581 235.97 407.489 236 407.381 236H406.397L409.829 227.384H411.119L414.551 236ZM420.316 229.904V236H419.614C419.454 236 419.35 235.922 419.302 235.766L419.218 235.154C419.086 235.294 418.948 235.422 418.804 235.538C418.66 235.654 418.506 235.754 418.342 235.838C418.178 235.918 418.004 235.98 417.82 236.024C417.636 236.072 417.438 236.096 417.226 236.096C416.89 236.096 416.594 236.04 416.338 235.928C416.086 235.816 415.874 235.66 415.702 235.46C415.53 235.256 415.4 235.012 415.312 234.728C415.224 234.444 415.18 234.13 415.18 233.786V229.904H416.356V233.786C416.356 234.222 416.456 234.562 416.656 234.806C416.856 235.046 417.162 235.166 417.574 235.166C417.874 235.166 418.154 235.096 418.414 234.956C418.674 234.812 418.918 234.616 419.146 234.368V229.904H420.316ZM425.879 231.38C425.687 231.128 425.479 230.952 425.255 230.852C425.035 230.752 424.787 230.702 424.511 230.702C423.975 230.702 423.559 230.896 423.263 231.284C422.971 231.668 422.825 232.23 422.825 232.97C422.825 233.358 422.857 233.69 422.921 233.966C422.989 234.238 423.085 234.462 423.209 234.638C423.337 234.81 423.493 234.938 423.677 235.022C423.861 235.102 424.069 235.142 424.301 235.142C424.641 235.142 424.935 235.066 425.183 234.914C425.431 234.762 425.663 234.548 425.879 234.272V231.38ZM427.055 227.144V236H426.347C426.183 236 426.081 235.922 426.041 235.766L425.939 235.064C425.679 235.372 425.383 235.62 425.051 235.808C424.723 235.992 424.343 236.084 423.911 236.084C423.563 236.084 423.247 236.016 422.963 235.88C422.683 235.744 422.443 235.546 422.243 235.286C422.043 235.022 421.889 234.696 421.781 234.308C421.673 233.92 421.619 233.474 421.619 232.97C421.619 232.518 421.679 232.098 421.799 231.71C421.919 231.322 422.093 230.986 422.321 230.702C422.549 230.418 422.825 230.196 423.149 230.036C423.473 229.872 423.839 229.79 424.247 229.79C424.615 229.79 424.927 229.85 425.183 229.97C425.443 230.09 425.675 230.26 425.879 230.48V227.144H427.055ZM429.911 229.904V236H428.741V229.904H429.911ZM430.133 228.02C430.133 228.128 430.111 228.232 430.067 228.332C430.023 228.428 429.963 228.514 429.887 228.59C429.815 228.662 429.729 228.72 429.629 228.764C429.529 228.804 429.425 228.824 429.317 228.824C429.209 228.824 429.107 228.804 429.011 228.764C428.915 228.72 428.829 228.662 428.753 228.59C428.681 228.514 428.623 228.428 428.579 228.332C428.539 228.232 428.519 228.128 428.519 228.02C428.519 227.908 428.539 227.804 428.579 227.708C428.623 227.608 428.681 227.522 428.753 227.45C428.829 227.374 428.915 227.316 429.011 227.276C429.107 227.232 429.209 227.21 429.317 227.21C429.425 227.21 429.529 227.232 429.629 227.276C429.729 227.316 429.815 227.374 429.887 227.45C429.963 227.522 430.023 227.608 430.067 227.708C430.111 227.804 430.133 227.908 430.133 228.02ZM434.203 229.808C434.651 229.808 435.055 229.882 435.415 230.03C435.779 230.174 436.087 230.384 436.339 230.66C436.595 230.932 436.791 231.262 436.927 231.65C437.063 232.034 437.131 232.466 437.131 232.946C437.131 233.426 437.063 233.86 436.927 234.248C436.791 234.636 436.595 234.966 436.339 235.238C436.087 235.51 435.779 235.72 435.415 235.868C435.055 236.012 434.651 236.084 434.203 236.084C433.751 236.084 433.343 236.012 432.979 235.868C432.619 235.72 432.311 235.51 432.055 235.238C431.799 234.966 431.601 234.636 431.461 234.248C431.325 233.86 431.257 233.426 431.257 232.946C431.257 232.466 431.325 232.034 431.461 231.65C431.601 231.262 431.799 230.932 432.055 230.66C432.311 230.384 432.619 230.174 432.979 230.03C433.343 229.882 433.751 229.808 434.203 229.808ZM434.203 235.172C434.779 235.172 435.209 234.978 435.493 234.59C435.777 234.202 435.919 233.656 435.919 232.952C435.919 232.248 435.777 231.702 435.493 231.314C435.209 230.922 434.779 230.726 434.203 230.726C433.619 230.726 433.183 230.922 432.895 231.314C432.611 231.702 432.469 232.248 432.469 232.952C432.469 233.656 432.611 234.202 432.895 234.59C433.183 234.978 433.619 235.172 434.203 235.172Z" fill="black"/>
<path d="M298.687 231.692C298.687 232.336 298.583 232.922 298.375 233.45C298.171 233.978 297.881 234.432 297.505 234.812C297.129 235.188 296.679 235.48 296.155 235.688C295.631 235.896 295.049 236 294.409 236H291.169V227.384H294.409C295.049 227.384 295.631 227.488 296.155 227.696C296.679 227.904 297.129 228.198 297.505 228.578C297.881 228.954 298.171 229.408 298.375 229.94C298.583 230.468 298.687 231.052 298.687 231.692ZM297.379 231.692C297.379 231.18 297.309 230.722 297.169 230.318C297.029 229.91 296.829 229.566 296.569 229.286C296.313 229.002 296.001 228.786 295.633 228.638C295.269 228.49 294.861 228.416 294.409 228.416H292.453V234.968H294.409C294.861 234.968 295.269 234.894 295.633 234.746C296.001 234.598 296.313 234.384 296.569 234.104C296.829 233.82 297.029 233.476 297.169 233.072C297.309 232.668 297.379 232.208 297.379 231.692ZM302.574 229.808C303.022 229.808 303.426 229.882 303.786 230.03C304.15 230.174 304.458 230.384 304.71 230.66C304.966 230.932 305.162 231.262 305.298 231.65C305.434 232.034 305.502 232.466 305.502 232.946C305.502 233.426 305.434 233.86 305.298 234.248C305.162 234.636 304.966 234.966 304.71 235.238C304.458 235.51 304.15 235.72 303.786 235.868C303.426 236.012 303.022 236.084 302.574 236.084C302.122 236.084 301.714 236.012 301.35 235.868C300.99 235.72 300.682 235.51 300.426 235.238C300.17 234.966 299.972 234.636 299.832 234.248C299.696 233.86 299.628 233.426 299.628 232.946C299.628 232.466 299.696 232.034 299.832 231.65C299.972 231.262 300.17 230.932 300.426 230.66C300.682 230.384 300.99 230.174 301.35 230.03C301.714 229.882 302.122 229.808 302.574 229.808ZM302.574 235.172C303.15 235.172 303.58 234.978 303.864 234.59C304.148 234.202 304.29 233.656 304.29 232.952C304.29 232.248 304.148 231.702 303.864 231.314C303.58 230.922 303.15 230.726 302.574 230.726C301.99 230.726 301.554 230.922 301.266 231.314C300.982 231.702 300.84 232.248 300.84 232.952C300.84 233.656 300.982 234.202 301.266 234.59C301.554 234.978 301.99 235.172 302.574 235.172ZM311.08 231.044C311.044 231.088 311.008 231.124 310.972 231.152C310.94 231.176 310.892 231.188 310.828 231.188C310.764 231.188 310.696 231.164 310.624 231.116C310.556 231.064 310.468 231.01 310.36 230.954C310.256 230.894 310.128 230.84 309.976 230.792C309.828 230.74 309.644 230.714 309.424 230.714C309.136 230.714 308.882 230.766 308.662 230.87C308.442 230.974 308.258 231.122 308.11 231.314C307.966 231.506 307.856 231.74 307.78 232.016C307.704 232.292 307.666 232.602 307.666 232.946C307.666 233.302 307.706 233.62 307.786 233.9C307.866 234.176 307.98 234.41 308.128 234.602C308.276 234.79 308.456 234.934 308.668 235.034C308.88 235.13 309.116 235.178 309.376 235.178C309.628 235.178 309.836 235.148 310 235.088C310.164 235.024 310.3 234.956 310.408 234.884C310.516 234.812 310.606 234.746 310.678 234.686C310.75 234.622 310.824 234.59 310.9 234.59C310.996 234.59 311.07 234.626 311.122 234.698L311.458 235.13C311.318 235.302 311.16 235.448 310.984 235.568C310.812 235.688 310.628 235.786 310.432 235.862C310.236 235.938 310.03 235.994 309.814 236.03C309.602 236.066 309.386 236.084 309.166 236.084C308.786 236.084 308.43 236.014 308.098 235.874C307.77 235.734 307.484 235.53 307.24 235.262C307 234.994 306.81 234.666 306.67 234.278C306.53 233.886 306.46 233.442 306.46 232.946C306.46 232.494 306.522 232.076 306.646 231.692C306.774 231.308 306.96 230.978 307.204 230.702C307.452 230.422 307.756 230.204 308.116 230.048C308.476 229.888 308.888 229.808 309.352 229.808C309.788 229.808 310.172 229.878 310.504 230.018C310.836 230.158 311.132 230.356 311.392 230.612L311.08 231.044ZM317.621 229.904V236H316.919C316.759 236 316.655 235.922 316.607 235.766L316.523 235.154C316.391 235.294 316.253 235.422 316.109 235.538C315.965 235.654 315.811 235.754 315.647 235.838C315.483 235.918 315.309 235.98 315.125 236.024C314.941 236.072 314.743 236.096 314.531 236.096C314.195 236.096 313.899 236.04 313.643 235.928C313.391 235.816 313.179 235.66 313.007 235.46C312.835 235.256 312.705 235.012 312.617 234.728C312.529 234.444 312.485 234.13 312.485 233.786V229.904H313.661V233.786C313.661 234.222 313.761 234.562 313.961 234.806C314.161 235.046 314.467 235.166 314.879 235.166C315.179 235.166 315.459 235.096 315.719 234.956C315.979 234.812 316.223 234.616 316.451 234.368V229.904H317.621ZM319.254 236V229.904H319.956C320.12 229.904 320.222 229.982 320.262 230.138L320.346 230.72C320.57 230.452 320.818 230.234 321.09 230.066C321.366 229.894 321.688 229.808 322.056 229.808C322.46 229.808 322.788 229.92 323.04 230.144C323.292 230.364 323.476 230.664 323.592 231.044C323.68 230.828 323.794 230.642 323.934 230.486C324.074 230.33 324.23 230.202 324.402 230.102C324.574 230.002 324.756 229.928 324.948 229.88C325.144 229.832 325.342 229.808 325.542 229.808C325.866 229.808 326.154 229.86 326.406 229.964C326.662 230.064 326.878 230.212 327.054 230.408C327.23 230.604 327.364 230.846 327.456 231.134C327.548 231.422 327.594 231.75 327.594 232.118V236H326.418V232.118C326.418 231.662 326.318 231.318 326.118 231.086C325.922 230.854 325.634 230.738 325.254 230.738C325.086 230.738 324.926 230.768 324.774 230.828C324.622 230.884 324.488 230.97 324.372 231.086C324.26 231.202 324.17 231.346 324.102 231.518C324.038 231.69 324.006 231.89 324.006 232.118V236H322.83V232.118C322.83 231.646 322.736 231.298 322.548 231.074C322.36 230.85 322.084 230.738 321.72 230.738C321.468 230.738 321.234 230.804 321.018 230.936C320.802 231.068 320.604 231.248 320.424 231.476V236H319.254ZM333.206 232.274C333.206 232.042 333.172 231.828 333.104 231.632C333.04 231.436 332.944 231.266 332.816 231.122C332.688 230.978 332.532 230.866 332.348 230.786C332.164 230.706 331.952 230.666 331.712 230.666C331.22 230.666 330.832 230.808 330.548 231.092C330.268 231.376 330.09 231.77 330.014 232.274H333.206ZM334.172 235.13C334.028 235.298 333.862 235.444 333.674 235.568C333.486 235.688 333.286 235.786 333.074 235.862C332.862 235.938 332.642 235.994 332.414 236.03C332.19 236.066 331.968 236.084 331.748 236.084C331.328 236.084 330.938 236.014 330.578 235.874C330.222 235.73 329.912 235.522 329.648 235.25C329.388 234.974 329.184 234.634 329.036 234.23C328.892 233.822 328.82 233.354 328.82 232.826C328.82 232.402 328.886 232.008 329.018 231.644C329.15 231.276 329.338 230.956 329.582 230.684C329.83 230.412 330.132 230.198 330.488 230.042C330.844 229.886 331.244 229.808 331.688 229.808C332.06 229.808 332.402 229.87 332.714 229.994C333.03 230.114 333.302 230.29 333.53 230.522C333.758 230.754 333.936 231.04 334.064 231.38C334.196 231.72 334.262 232.108 334.262 232.544C334.262 232.724 334.242 232.846 334.202 232.91C334.162 232.97 334.088 233 333.98 233H329.984C329.996 233.364 330.048 233.682 330.14 233.954C330.232 234.222 330.358 234.446 330.518 234.626C330.682 234.806 330.876 234.94 331.1 235.028C331.324 235.116 331.574 235.16 331.85 235.16C332.11 235.16 332.334 235.13 332.522 235.07C332.714 235.01 332.878 234.946 333.014 234.878C333.154 234.806 333.27 234.74 333.362 234.68C333.458 234.62 333.542 234.59 333.614 234.59C333.71 234.59 333.784 234.626 333.836 234.698L334.172 235.13ZM336.617 230.75C336.749 230.61 336.887 230.482 337.031 230.366C337.175 230.25 337.327 230.152 337.487 230.072C337.651 229.988 337.825 229.924 338.009 229.88C338.197 229.832 338.397 229.808 338.609 229.808C338.945 229.808 339.239 229.864 339.491 229.976C339.747 230.088 339.961 230.246 340.133 230.45C340.305 230.65 340.435 230.892 340.523 231.176C340.611 231.46 340.655 231.774 340.655 232.118V236H339.479V232.118C339.479 231.682 339.379 231.344 339.179 231.104C338.979 230.86 338.673 230.738 338.261 230.738C337.961 230.738 337.679 230.81 337.415 230.954C337.155 231.094 336.913 231.286 336.689 231.53V236H335.519V229.904H336.221C336.385 229.904 336.487 229.982 336.527 230.138L336.617 230.75ZM344.06 236.096C343.568 236.096 343.188 235.958 342.92 235.682C342.656 235.406 342.524 235.012 342.524 234.5V230.852H341.816C341.748 230.852 341.69 230.832 341.642 230.792C341.598 230.748 341.576 230.684 341.576 230.6V230.126L342.566 229.988L342.83 228.17C342.846 228.102 342.876 228.05 342.92 228.014C342.968 227.974 343.028 227.954 343.1 227.954H343.694V230H345.422V230.852H343.694V234.422C343.694 234.662 343.752 234.842 343.868 234.962C343.988 235.078 344.14 235.136 344.324 235.136C344.432 235.136 344.524 235.122 344.6 235.094C344.68 235.066 344.748 235.036 344.804 235.004C344.86 234.968 344.908 234.936 344.948 234.908C344.988 234.88 345.024 234.866 345.056 234.866C345.096 234.866 345.126 234.876 345.146 234.896C345.17 234.912 345.194 234.94 345.218 234.98L345.566 235.544C345.374 235.72 345.146 235.856 344.882 235.952C344.618 236.048 344.344 236.096 344.06 236.096ZM350.094 230.954C350.062 231.006 350.028 231.044 349.992 231.068C349.956 231.088 349.91 231.098 349.854 231.098C349.79 231.098 349.718 231.076 349.638 231.032C349.562 230.988 349.468 230.94 349.356 230.888C349.248 230.836 349.12 230.788 348.972 230.744C348.824 230.7 348.648 230.678 348.444 230.678C348.276 230.678 348.122 230.7 347.982 230.744C347.846 230.784 347.73 230.842 347.634 230.918C347.538 230.99 347.464 231.078 347.412 231.182C347.36 231.282 347.334 231.39 347.334 231.506C347.334 231.658 347.378 231.784 347.466 231.884C347.558 231.984 347.676 232.07 347.82 232.142C347.968 232.214 348.134 232.28 348.318 232.34C348.506 232.396 348.696 232.456 348.888 232.52C349.084 232.584 349.274 232.658 349.458 232.742C349.646 232.822 349.812 232.924 349.956 233.048C350.104 233.168 350.222 233.314 350.31 233.486C350.402 233.658 350.448 233.868 350.448 234.116C350.448 234.4 350.396 234.664 350.292 234.908C350.192 235.148 350.042 235.356 349.842 235.532C349.646 235.708 349.402 235.846 349.11 235.946C348.818 236.046 348.484 236.096 348.108 236.096C347.688 236.096 347.3 236.026 346.944 235.886C346.588 235.746 346.29 235.568 346.05 235.352L346.326 234.902C346.358 234.846 346.398 234.804 346.446 234.776C346.494 234.744 346.558 234.728 346.638 234.728C346.714 234.728 346.792 234.756 346.872 234.812C346.952 234.868 347.048 234.93 347.16 234.998C347.272 235.062 347.408 235.122 347.568 235.178C347.728 235.23 347.928 235.256 348.168 235.256C348.368 235.256 348.542 235.232 348.69 235.184C348.838 235.132 348.96 235.064 349.056 234.98C349.156 234.892 349.23 234.792 349.278 234.68C349.326 234.568 349.35 234.45 349.35 234.326C349.35 234.166 349.304 234.034 349.212 233.93C349.124 233.822 349.006 233.73 348.858 233.654C348.714 233.578 348.548 233.512 348.36 233.456C348.172 233.4 347.98 233.34 347.784 233.276C347.588 233.212 347.396 233.138 347.208 233.054C347.02 232.97 346.852 232.864 346.704 232.736C346.56 232.608 346.442 232.452 346.35 232.268C346.262 232.084 346.218 231.86 346.218 231.596C346.218 231.36 346.266 231.134 346.362 230.918C346.462 230.702 346.604 230.512 346.788 230.348C346.976 230.184 347.206 230.054 347.478 229.958C347.754 229.858 348.068 229.808 348.42 229.808C348.824 229.808 349.188 229.872 349.512 230C349.84 230.128 350.12 230.304 350.352 230.528L350.094 230.954Z" fill="black"/>
<line x1="84" y1="220.5" x2="152" y2="220.5" stroke="#DEDEDE"/>
<path d="M94 192.981C94 188.137 94 183.293 94 178.448C94 177.993 94.1129 177.868 94.5674 177.884C95.7145 177.917 96.8616 177.884 98.0056 177.902C98.4022 177.902 98.5517 177.826 98.5304 177.398C98.4938 176.598 98.5304 175.796 98.5121 174.996C98.5121 174.62 98.6005 174.495 98.991 174.501C100.175 174.529 101.358 174.501 102.539 174.52C102.911 174.52 103.049 174.443 103.033 174.047C103.003 173.228 103.033 172.407 103.015 171.589C103.015 171.229 103.122 171.119 103.482 171.125C104.665 171.144 105.849 171.125 107.03 171.144C107.478 171.144 107.579 171.003 107.564 170.588C107.536 169.788 107.564 168.985 107.564 168.186C107.564 167.853 107.661 167.746 107.997 167.752C109.217 167.771 110.437 167.752 111.658 167.752C111.984 167.752 112.103 167.673 112.091 167.325C112.067 166.562 112.131 165.799 112.067 165.032C112.021 164.443 112.244 164.343 112.768 164.361C113.86 164.401 114.953 164.361 116.045 164.382C116.454 164.382 116.621 164.303 116.597 163.851C116.557 163.106 116.624 162.355 116.573 161.611C116.536 161.079 116.743 161 117.216 161C120.111 161.021 123.013 161 125.899 161C130.737 161 135.579 161 140.42 161C140.866 161 141 161.107 141 161.571C140.988 171.241 140.988 180.908 141 190.57C141 190.985 140.918 191.141 140.466 191.129C139.282 191.092 138.099 191.129 136.918 191.107C136.555 191.107 136.445 191.214 136.454 191.574C136.479 192.392 136.439 193.213 136.473 194.016C136.473 194.413 136.348 194.499 135.978 194.489C134.795 194.468 133.611 194.489 132.43 194.471C132.037 194.471 131.939 194.593 131.951 194.966C131.979 195.747 131.93 196.535 131.973 197.313C131.997 197.789 131.826 197.887 131.387 197.875C130.225 197.844 129.059 197.875 127.894 197.856C127.528 197.856 127.43 197.966 127.439 198.317C127.464 199.12 127.439 199.92 127.455 200.723C127.455 201.116 127.369 201.263 126.942 201.251C125.761 201.223 124.578 201.251 123.394 201.232C123.01 201.232 122.897 201.345 122.909 201.724C122.936 202.487 122.891 203.25 122.927 204.019C122.952 204.483 122.842 204.651 122.339 204.63C121.194 204.59 120.047 204.63 118.9 204.609C118.531 204.609 118.394 204.688 118.409 205.085C118.44 205.903 118.409 206.724 118.427 207.542C118.427 207.921 118.296 208.003 117.955 208C116.499 207.985 115.044 208 113.586 208C107.281 208 100.967 208 94.6437 208C94.1342 208 94.0336 207.856 94.0336 207.365C94.0061 202.597 94 197.789 94 192.981ZM116.826 192.981C116.826 188.683 116.826 184.385 116.826 180.088C116.826 179.608 116.737 179.434 116.216 179.434C109.52 179.457 102.823 179.457 96.1233 179.434C95.6718 179.434 95.5467 179.544 95.5467 180.002C95.561 188.639 95.561 197.273 95.5467 205.906C95.5467 206.309 95.6139 206.461 96.0684 206.461C102.804 206.443 109.54 206.443 116.274 206.461C116.74 206.461 116.835 206.312 116.832 205.875C116.82 201.577 116.826 197.276 116.826 192.978V192.981ZM121.335 189.651C121.335 185.353 121.335 181.055 121.335 176.757C121.335 176.006 121.442 176.073 120.621 176.07H101.246C100.056 176.07 100.077 176.07 100.047 177.273C100.047 177.758 100.147 177.911 100.657 177.911C106.368 177.89 112.082 177.911 117.796 177.884C118.296 177.884 118.388 178.027 118.385 178.494C118.366 183.174 118.385 187.853 118.385 192.536C118.385 195.866 118.385 199.199 118.385 202.53C118.385 202.997 118.519 203.119 118.964 203.091C119.582 203.055 120.201 203.055 120.819 203.091C121.255 203.119 121.359 202.969 121.356 202.545C121.329 198.241 121.335 193.943 121.335 189.648V189.651ZM130.371 182.841C130.371 178.543 130.371 174.245 130.386 169.95C130.386 169.425 130.222 169.34 129.743 169.34C123.263 169.354 116.785 169.354 110.309 169.34C109.089 169.34 109.126 169.34 109.089 170.561C109.089 171.058 109.226 171.15 109.699 171.15C115.395 171.131 121.091 171.15 126.783 171.125C127.326 171.125 127.436 171.287 127.433 171.797C127.419 178.956 127.419 186.112 127.433 193.265C127.433 194.141 127.452 195.014 127.433 195.887C127.433 196.251 127.546 196.364 127.903 196.348C128.538 196.313 129.175 196.313 129.81 196.348C130.31 196.382 130.42 196.199 130.42 195.738C130.365 191.434 130.371 187.136 130.371 182.838V182.841ZM134.88 179.483C134.88 175.222 134.88 170.959 134.88 166.696C134.88 165.863 135.005 165.963 134.172 165.963H114.73C113.601 165.963 113.629 165.963 113.589 167.108C113.571 167.63 113.705 167.777 114.239 167.774C119.938 167.755 125.633 167.774 131.323 167.749C131.799 167.749 131.933 167.862 131.933 168.36C131.912 172.078 131.933 175.793 131.933 179.508C131.933 183.827 131.933 188.143 131.933 192.459C131.933 192.859 132.016 193.012 132.44 192.984C133.058 192.946 133.679 192.946 134.297 192.984C134.767 193.018 134.908 192.89 134.908 192.392C134.871 188.082 134.88 183.784 134.88 179.483ZM139.383 176.064C139.383 171.766 139.383 167.468 139.383 163.173C139.383 162.703 139.285 162.563 138.791 162.563C132.297 162.581 125.802 162.581 119.306 162.563C118.116 162.563 118.144 162.563 118.107 163.75C118.107 164.254 118.238 164.379 118.736 164.379C124.431 164.361 130.124 164.379 135.82 164.358C136.29 164.358 136.43 164.462 136.43 164.968C136.412 169.959 136.43 174.947 136.43 179.926C136.43 182.951 136.43 185.973 136.43 188.995C136.43 189.431 136.518 189.605 136.994 189.581C137.593 189.532 138.195 189.532 138.794 189.581C139.328 189.627 139.404 189.41 139.404 188.94C139.377 184.657 139.383 180.359 139.383 176.064ZM125.838 186.211C125.838 181.916 125.838 177.618 125.838 173.32C125.838 172.816 125.707 172.71 125.212 172.71C118.704 172.728 112.196 172.728 105.687 172.71C104.589 172.71 104.626 172.71 104.574 173.827C104.546 174.416 104.739 174.529 105.294 174.529C110.968 174.507 116.646 174.529 122.323 174.504C122.769 174.504 122.918 174.605 122.897 175.069C122.86 175.985 122.897 176.901 122.897 177.816C122.897 184.917 122.897 192.017 122.897 199.117C122.897 199.581 122.988 199.776 123.492 199.728C124.073 199.685 124.656 199.685 125.237 199.728C125.716 199.758 125.88 199.633 125.877 199.117C125.829 194.804 125.838 190.509 125.838 186.211Z" fill="#060500"/>
<path d="M111.555 189.334V198.669H101.445V189.334H111.555ZM111.555 188H101.445C101.062 188.001 100.695 188.142 100.424 188.392C100.153 188.642 100.001 188.98 100 189.334V198.669C100.002 199.022 100.155 199.36 100.425 199.609C100.696 199.859 101.062 199.999 101.445 200H111.555C111.938 199.999 112.304 199.859 112.575 199.609C112.845 199.36 112.998 199.022 113 198.669V189.334C112.999 188.98 112.847 188.642 112.576 188.392C112.305 188.142 111.938 188.001 111.555 188ZM108.045 193.906L105.879 196.487L104.338 194.76L102.169 197.335H110.831L108.045 193.906Z" fill="black"/>
<defs>
<filter id="filter0_d_266_1283" x="36" y="22" width="489" height="401" filterUnits="userSpaceOnUse" color-interpolation-filters="sRGB">
<feFlood flood-opacity="0" result="BackgroundImageFix"/>
<feColorMatrix in="SourceAlpha" type="matrix" values="0 0 0 0 0 0 0 0 0 0 0 0 0 0 0 0 0 0 127 0" result="hardAlpha"/>
<feOffset/>
<feGaussianBlur stdDeviation="7"/>
<feComposite in2="hardAlpha" operator="out"/>
<feColorMatrix type="matrix" values="0 0 0 0 0 0 0 0 0 0 0 0 0 0 0 0 0 0 0.15 0"/>
<feBlend mode="normal" in2="BackgroundImageFix" result="effect1_dropShadow_266_1283"/>
<feBlend mode="normal" in="SourceGraphic" in2="effect1_dropShadow_266_1283" result="shape"/>
</filter>
<filter id="filter1_d_266_1283" x="69" y="260" width="97" height="115" filterUnits="userSpaceOnUse" color-interpolation-filters="sRGB">
<feFlood flood-opacity="0" result="BackgroundImageFix"/>
<feColorMatrix in="SourceAlpha" type="matrix" values="0 0 0 0 0 0 0 0 0 0 0 0 0 0 0 0 0 0 127 0" result="hardAlpha"/>
<feOffset dy="4"/>
<feGaussianBlur stdDeviation="2"/>
<feComposite in2="hardAlpha" operator="out"/>
<feColorMatrix type="matrix" values="0 0 0 0 0 0 0 0 0 0 0 0 0 0 0 0 0 0 0.15 0"/>
<feBlend mode="normal" in2="BackgroundImageFix" result="effect1_dropShadow_266_1283"/>
<feBlend mode="normal" in="SourceGraphic" in2="effect1_dropShadow_266_1283" result="shape"/>
</filter>
<filter id="filter2_d_266_1283" x="69" y="140" width="97" height="116" filterUnits="userSpaceOnUse" color-interpolation-filters="sRGB">
<feFlood flood-opacity="0" result="BackgroundImageFix"/>
<feColorMatrix in="SourceAlpha" type="matrix" values="0 0 0 0 0 0 0 0 0 0 0 0 0 0 0 0 0 0 127 0" result="hardAlpha"/>
<feOffset dy="4"/>
<feGaussianBlur stdDeviation="2"/>
<feComposite in2="hardAlpha" operator="out"/>
<feColorMatrix type="matrix" values="0 0 0 0 0 0 0 0 0 0 0 0 0 0 0 0 0 0 0.15 0"/>
<feBlend mode="normal" in2="BackgroundImageFix" result="effect1_dropShadow_266_1283"/>
<feBlend mode="normal" in="SourceGraphic" in2="effect1_dropShadow_266_1283" result="shape"/>
</filter>
<filter id="filter3_d_266_1283" x="374" y="140" width="97" height="116" filterUnits="userSpaceOnUse" color-interpolation-filters="sRGB">
<feFlood flood-opacity="0" result="BackgroundImageFix"/>
<feColorMatrix in="SourceAlpha" type="matrix" values="0 0 0 0 0 0 0 0 0 0 0 0 0 0 0 0 0 0 127 0" result="hardAlpha"/>
<feOffset dy="4"/>
<feGaussianBlur stdDeviation="2"/>
<feComposite in2="hardAlpha" operator="out"/>
<feColorMatrix type="matrix" values="0 0 0 0 0 0 0 0 0 0 0 0 0 0 0 0 0 0 0.15 0"/>
<feBlend mode="normal" in2="BackgroundImageFix" result="effect1_dropShadow_266_1283"/>
<feBlend mode="normal" in="SourceGraphic" in2="effect1_dropShadow_266_1283" result="shape"/>
</filter>
<filter id="filter4_d_266_1283" x="171" y="140" width="97" height="116" filterUnits="userSpaceOnUse" color-interpolation-filters="sRGB">
<feFlood flood-opacity="0" result="BackgroundImageFix"/>
<feColorMatrix in="SourceAlpha" type="matrix" values="0 0 0 0 0 0 0 0 0 0 0 0 0 0 0 0 0 0 127 0" result="hardAlpha"/>
<feOffset dy="4"/>
<feGaussianBlur stdDeviation="2"/>
<feComposite in2="hardAlpha" operator="out"/>
<feColorMatrix type="matrix" values="0 0 0 0 0 0 0 0 0 0 0 0 0 0 0 0 0 0 0.15 0"/>
<feBlend mode="normal" in2="BackgroundImageFix" result="effect1_dropShadow_266_1283"/>
<feBlend mode="normal" in="SourceGraphic" in2="effect1_dropShadow_266_1283" result="shape"/>
</filter>
<filter id="filter5_d_266_1283" x="272" y="140" width="97" height="116" filterUnits="userSpaceOnUse" color-interpolation-filters="sRGB">
<feFlood flood-opacity="0" result="BackgroundImageFix"/>
<feColorMatrix in="SourceAlpha" type="matrix" values="0 0 0 0 0 0 0 0 0 0 0 0 0 0 0 0 0 0 127 0" result="hardAlpha"/>
<feOffset dy="4"/>
<feGaussianBlur stdDeviation="2"/>
<feComposite in2="hardAlpha" operator="out"/>
<feColorMatrix type="matrix" values="0 0 0 0 0 0 0 0 0 0 0 0 0 0 0 0 0 0 0.15 0"/>
<feBlend mode="normal" in2="BackgroundImageFix" result="effect1_dropShadow_266_1283"/>
<feBlend mode="normal" in="SourceGraphic" in2="effect1_dropShadow_266_1283" result="shape"/>
</filter>
<filter id="filter6_d_266_1283" x="171" y="260" width="97" height="115" filterUnits="userSpaceOnUse" color-interpolation-filters="sRGB">
<feFlood flood-opacity="0" result="BackgroundImageFix"/>
<feColorMatrix in="SourceAlpha" type="matrix" values="0 0 0 0 0 0 0 0 0 0 0 0 0 0 0 0 0 0 127 0" result="hardAlpha"/>
<feOffset dy="4"/>
<feGaussianBlur stdDeviation="2"/>
<feComposite in2="hardAlpha" operator="out"/>
<feColorMatrix type="matrix" values="0 0 0 0 0 0 0 0 0 0 0 0 0 0 0 0 0 0 0.15 0"/>
<feBlend mode="normal" in2="BackgroundImageFix" result="effect1_dropShadow_266_1283"/>
<feBlend mode="normal" in="SourceGraphic" in2="effect1_dropShadow_266_1283" result="shape"/>
</filter>
</defs>
</svg>
