<svg width="771" height="534" viewBox="0 0 771 534" fill="none" xmlns="http://www.w3.org/2000/svg">
<rect y="40" width="365" height="494" rx="10" fill="black"/>
<rect x="406" y="40" width="365" height="494" rx="10" fill="#FFE600"/>
<g filter="url(#filter0_d_268_1409)">
<path d="M40 40C40 34.4772 44.4772 30 50 30H150C155.523 30 160 34.4772 160 40V148H40V40Z" fill="white"/>
<path d="M101 191.5L40 148H160L101 191.5Z" fill="white"/>
</g>
<g filter="url(#filter1_d_268_1409)">
<path d="M443 40C443 34.4772 447.477 30 453 30H553C558.523 30 563 34.4772 563 40V148H443V40Z" fill="black"/>
<path d="M504 191.5L443 148H563L504 191.5Z" fill="black"/>
</g>
<path d="M68.446 83L63.4517 65.5455H67.483L70.3722 77.6733H70.517L73.7045 65.5455H77.1562L80.3352 77.6989H80.4886L83.3778 65.5455H87.4091L82.4148 83H78.8182L75.4943 71.5881H75.358L72.0426 83H68.446ZM93.8757 83.2557C92.5291 83.2557 91.37 82.983 90.3984 82.4375C89.4325 81.8864 88.6882 81.108 88.1655 80.1023C87.6428 79.0909 87.3814 77.8949 87.3814 76.5142C87.3814 75.1676 87.6428 73.9858 88.1655 72.9688C88.6882 71.9517 89.424 71.1591 90.3729 70.5909C91.3274 70.0227 92.4467 69.7386 93.7308 69.7386C94.5945 69.7386 95.3984 69.8778 96.1428 70.1562C96.8928 70.429 97.5462 70.8409 98.103 71.392C98.6655 71.9432 99.103 72.6364 99.4155 73.4716C99.728 74.3011 99.8842 75.2727 99.8842 76.3864V77.3835H88.8303V75.1335H96.4666C96.4666 74.6108 96.353 74.1477 96.1257 73.7443C95.8984 73.3409 95.5831 73.0256 95.1797 72.7983C94.782 72.5653 94.3189 72.4489 93.7905 72.4489C93.2393 72.4489 92.7507 72.5767 92.3246 72.8324C91.9041 73.0824 91.5746 73.4205 91.3359 73.8466C91.0973 74.267 90.9751 74.7358 90.9695 75.2528V77.392C90.9695 78.0398 91.0888 78.5994 91.3274 79.071C91.5717 79.5426 91.9155 79.9062 92.3587 80.1619C92.8018 80.4176 93.3274 80.5455 93.9354 80.5455C94.3388 80.5455 94.7081 80.4886 95.0433 80.375C95.3786 80.2614 95.6655 80.0909 95.9041 79.8636C96.1428 79.6364 96.3246 79.358 96.4496 79.0284L99.8075 79.25C99.6371 80.0568 99.2876 80.7614 98.7592 81.3636C98.2365 81.9602 97.5604 82.4261 96.7308 82.7614C95.907 83.0909 94.9553 83.2557 93.8757 83.2557ZM102.322 83V65.5455H105.952V72.108H106.063C106.222 71.7557 106.452 71.3977 106.754 71.0341C107.06 70.6648 107.458 70.358 107.947 70.1136C108.441 69.8636 109.055 69.7386 109.788 69.7386C110.742 69.7386 111.623 69.9886 112.43 70.4886C113.237 70.983 113.881 71.7301 114.364 72.7301C114.847 73.7244 115.089 74.9716 115.089 76.4716C115.089 77.9318 114.853 79.1648 114.381 80.1705C113.915 81.1705 113.279 81.929 112.472 82.446C111.671 82.9574 110.773 83.2131 109.779 83.2131C109.075 83.2131 108.475 83.0966 107.981 82.8636C107.492 82.6307 107.092 82.3381 106.779 81.9858C106.467 81.6278 106.228 81.267 106.063 80.9034H105.901V83H102.322ZM105.876 76.4545C105.876 77.233 105.984 77.9119 106.2 78.4915C106.415 79.071 106.728 79.5227 107.137 79.8466C107.546 80.1648 108.043 80.3239 108.629 80.3239C109.219 80.3239 109.719 80.1619 110.129 79.8381C110.538 79.5085 110.847 79.054 111.058 78.4744C111.273 77.8892 111.381 77.2159 111.381 76.4545C111.381 75.6989 111.276 75.0341 111.066 74.4602C110.856 73.8864 110.546 73.4375 110.137 73.1136C109.728 72.7898 109.225 72.6278 108.629 72.6278C108.038 72.6278 107.538 72.7841 107.129 73.0966C106.725 73.4091 106.415 73.8523 106.2 74.4261C105.984 75 105.876 75.6761 105.876 76.4545ZM123.032 83V80.3409L129.245 74.5881C129.773 74.0767 130.217 73.6165 130.575 73.2074C130.938 72.7983 131.214 72.3977 131.401 72.0057C131.589 71.608 131.683 71.179 131.683 70.7188C131.683 70.2074 131.566 69.767 131.333 69.3977C131.1 69.0227 130.782 68.7358 130.379 68.5369C129.975 68.3324 129.518 68.2301 129.006 68.2301C128.472 68.2301 128.006 68.3381 127.609 68.554C127.211 68.7699 126.904 69.0795 126.688 69.483C126.472 69.8864 126.364 70.3665 126.364 70.9233H122.862C122.862 69.7812 123.12 68.7898 123.637 67.9489C124.154 67.108 124.879 66.4574 125.81 65.9972C126.742 65.5369 127.816 65.3068 129.032 65.3068C130.282 65.3068 131.37 65.5284 132.296 65.9716C133.228 66.4091 133.952 67.017 134.469 67.7955C134.987 68.5739 135.245 69.4659 135.245 70.4716C135.245 71.1307 135.114 71.7812 134.853 72.4233C134.597 73.0653 134.14 73.7784 133.481 74.5625C132.822 75.3409 131.893 76.2756 130.694 77.3665L128.146 79.8636V79.983H135.475V83H123.032ZM73.9858 100.565C73.9176 99.8778 73.625 99.3437 73.108 98.9631C72.5909 98.5824 71.8892 98.392 71.0028 98.392C70.4006 98.392 69.892 98.4773 69.4773 98.6477C69.0625 98.8125 68.7443 99.0426 68.5227 99.3381C68.3068 99.6335 68.1989 99.9688 68.1989 100.344C68.1875 100.656 68.2528 100.929 68.3949 101.162C68.5426 101.395 68.7443 101.597 69 101.767C69.2557 101.932 69.5511 102.077 69.8864 102.202C70.2216 102.321 70.5795 102.423 70.9602 102.509L72.5284 102.884C73.2898 103.054 73.9886 103.281 74.625 103.565C75.2614 103.849 75.8125 104.199 76.2784 104.614C76.7443 105.028 77.1051 105.517 77.3608 106.08C77.6222 106.642 77.7557 107.287 77.7614 108.014C77.7557 109.082 77.483 110.009 76.9432 110.793C76.4091 111.571 75.6364 112.176 74.625 112.608C73.6193 113.034 72.4063 113.247 70.9858 113.247C69.5767 113.247 68.3494 113.031 67.304 112.599C66.2642 112.168 65.4517 111.528 64.8665 110.682C64.2869 109.83 63.983 108.776 63.9545 107.52H67.5256C67.5653 108.105 67.733 108.594 68.0284 108.986C68.3295 109.372 68.7301 109.665 69.2301 109.864C69.7358 110.057 70.3068 110.153 70.9432 110.153C71.5682 110.153 72.1108 110.062 72.571 109.881C73.0369 109.699 73.3977 109.446 73.6534 109.122C73.9091 108.798 74.0369 108.426 74.0369 108.006C74.0369 107.614 73.9205 107.284 73.6875 107.017C73.4602 106.75 73.125 106.523 72.6818 106.335C72.2443 106.148 71.7074 105.977 71.071 105.824L69.1705 105.347C67.6989 104.989 66.5369 104.429 65.6847 103.668C64.8324 102.906 64.4091 101.881 64.4148 100.591C64.4091 99.5341 64.6903 98.6108 65.2585 97.821C65.8324 97.0312 66.6193 96.4148 67.6193 95.9716C68.6193 95.5284 69.7557 95.3068 71.0284 95.3068C72.3239 95.3068 73.4545 95.5284 74.4205 95.9716C75.392 96.4148 76.1477 97.0312 76.6875 97.821C77.2273 98.6108 77.5057 99.5256 77.5227 100.565H73.9858ZM87.1385 99.9091V102.636H79.255V99.9091H87.1385ZM81.0447 96.7727H84.6754V108.977C84.6754 109.312 84.7266 109.574 84.8288 109.761C84.9311 109.943 85.0732 110.071 85.255 110.145C85.4425 110.219 85.6584 110.256 85.9027 110.256C86.0732 110.256 86.2436 110.241 86.4141 110.213C86.5845 110.179 86.7152 110.153 86.8061 110.136L87.3771 112.838C87.1953 112.895 86.9396 112.96 86.6101 113.034C86.2805 113.114 85.88 113.162 85.4084 113.179C84.5334 113.213 83.7663 113.097 83.1072 112.83C82.4538 112.562 81.9453 112.148 81.5817 111.585C81.218 111.023 81.0391 110.312 81.0447 109.455V96.7727ZM91.745 117.909C91.2848 117.909 90.853 117.872 90.4496 117.798C90.0518 117.73 89.7223 117.642 89.4609 117.534L90.2791 114.824C90.7053 114.955 91.0888 115.026 91.4297 115.037C91.7763 115.048 92.0746 114.969 92.3246 114.798C92.5803 114.628 92.7876 114.338 92.9467 113.929L93.1598 113.375L88.4638 99.9091H92.282L94.9922 109.523H95.1286L97.8643 99.9091H101.708L96.62 114.415C96.3757 115.119 96.0433 115.733 95.6229 116.256C95.2081 116.784 94.6825 117.19 94.0462 117.474C93.4098 117.764 92.6428 117.909 91.745 117.909ZM107.197 95.5455V113H103.566V95.5455H107.197ZM116.071 113.256C114.724 113.256 113.565 112.983 112.594 112.438C111.628 111.886 110.884 111.108 110.361 110.102C109.838 109.091 109.577 107.895 109.577 106.514C109.577 105.168 109.838 103.986 110.361 102.969C110.884 101.952 111.619 101.159 112.568 100.591C113.523 100.023 114.642 99.7386 115.926 99.7386C116.79 99.7386 117.594 99.8778 118.338 100.156C119.088 100.429 119.741 100.841 120.298 101.392C120.861 101.943 121.298 102.636 121.611 103.472C121.923 104.301 122.08 105.273 122.08 106.386V107.384H111.026V105.134H118.662C118.662 104.611 118.548 104.148 118.321 103.744C118.094 103.341 117.778 103.026 117.375 102.798C116.977 102.565 116.514 102.449 115.986 102.449C115.435 102.449 114.946 102.577 114.52 102.832C114.099 103.082 113.77 103.42 113.531 103.847C113.293 104.267 113.17 104.736 113.165 105.253V107.392C113.165 108.04 113.284 108.599 113.523 109.071C113.767 109.543 114.111 109.906 114.554 110.162C114.997 110.418 115.523 110.545 116.131 110.545C116.534 110.545 116.903 110.489 117.239 110.375C117.574 110.261 117.861 110.091 118.099 109.864C118.338 109.636 118.52 109.358 118.645 109.028L122.003 109.25C121.832 110.057 121.483 110.761 120.955 111.364C120.432 111.96 119.756 112.426 118.926 112.761C118.102 113.091 117.151 113.256 116.071 113.256Z" fill="black"/>
<path d="M451.517 98V80.5455H463.074V83.5881H455.207V87.7472H462.307V90.7898H455.207V98H451.517ZM465.488 98V84.9091H469.119V98H465.488ZM467.312 83.2216C466.772 83.2216 466.309 83.0426 465.923 82.6847C465.542 82.321 465.352 81.8864 465.352 81.3807C465.352 80.8807 465.542 80.4517 465.923 80.0938C466.309 79.7301 466.772 79.5483 467.312 79.5483C467.852 79.5483 468.312 79.7301 468.692 80.0938C469.079 80.4517 469.272 80.8807 469.272 81.3807C469.272 81.8864 469.079 82.321 468.692 82.6847C468.312 83.0426 467.852 83.2216 467.312 83.2216ZM475.658 80.5455V98H472.027V80.5455H475.658ZM484.532 98.2557C483.185 98.2557 482.026 97.983 481.055 97.4375C480.089 96.8864 479.344 96.108 478.822 95.1023C478.299 94.0909 478.038 92.8949 478.038 91.5142C478.038 90.1676 478.299 88.9858 478.822 87.9688C479.344 86.9517 480.08 86.1591 481.029 85.5909C481.984 85.0227 483.103 84.7386 484.387 84.7386C485.251 84.7386 486.055 84.8778 486.799 85.1562C487.549 85.429 488.202 85.8409 488.759 86.392C489.322 86.9432 489.759 87.6364 490.072 88.4716C490.384 89.3011 490.54 90.2727 490.54 91.3864V92.3835H479.487V90.1335H487.123C487.123 89.6108 487.009 89.1477 486.782 88.7443C486.555 88.3409 486.239 88.0256 485.836 87.7983C485.438 87.5653 484.975 87.4489 484.447 87.4489C483.896 87.4489 483.407 87.5767 482.981 87.8324C482.56 88.0824 482.231 88.4205 481.992 88.8466C481.754 89.267 481.631 89.7358 481.626 90.2528V92.392C481.626 93.0398 481.745 93.5994 481.984 94.071C482.228 94.5426 482.572 94.9062 483.015 95.1619C483.458 95.4176 483.984 95.5455 484.592 95.5455C484.995 95.5455 485.364 95.4886 485.7 95.375C486.035 95.2614 486.322 95.0909 486.56 94.8636C486.799 94.6364 486.981 94.358 487.106 94.0284L490.464 94.25C490.293 95.0568 489.944 95.7614 489.415 96.3636C488.893 96.9602 488.217 97.4261 487.387 97.7614C486.563 98.0909 485.612 98.2557 484.532 98.2557ZM504.763 84.9091L500.186 98H496.095L491.518 84.9091H495.354L498.072 94.2756H498.209L500.919 84.9091H504.763ZM512.165 98.2557C510.818 98.2557 509.659 97.983 508.688 97.4375C507.722 96.8864 506.977 96.108 506.455 95.1023C505.932 94.0909 505.67 92.8949 505.67 91.5142C505.67 90.1676 505.932 88.9858 506.455 87.9688C506.977 86.9517 507.713 86.1591 508.662 85.5909C509.616 85.0227 510.736 84.7386 512.02 84.7386C512.884 84.7386 513.688 84.8778 514.432 85.1562C515.182 85.429 515.835 85.8409 516.392 86.392C516.955 86.9432 517.392 87.6364 517.705 88.4716C518.017 89.3011 518.173 90.2727 518.173 91.3864V92.3835H507.119V90.1335H514.756C514.756 89.6108 514.642 89.1477 514.415 88.7443C514.188 88.3409 513.872 88.0256 513.469 87.7983C513.071 87.5653 512.608 87.4489 512.08 87.4489C511.528 87.4489 511.04 87.5767 510.614 87.8324C510.193 88.0824 509.864 88.4205 509.625 88.8466C509.386 89.267 509.264 89.7358 509.259 90.2528V92.392C509.259 93.0398 509.378 93.5994 509.616 94.071C509.861 94.5426 510.205 94.9062 510.648 95.1619C511.091 95.4176 511.616 95.5455 512.224 95.5455C512.628 95.5455 512.997 95.4886 513.332 95.375C513.668 95.2614 513.955 95.0909 514.193 94.8636C514.432 94.6364 514.614 94.358 514.739 94.0284L518.097 94.25C517.926 95.0568 517.577 95.7614 517.048 96.3636C516.526 96.9602 515.849 97.4261 515.02 97.7614C514.196 98.0909 513.244 98.2557 512.165 98.2557ZM520.543 98V84.9091H524.062V87.1932H524.199C524.438 86.3807 524.838 85.767 525.401 85.3523C525.963 84.9318 526.611 84.7216 527.344 84.7216C527.526 84.7216 527.722 84.733 527.932 84.7557C528.142 84.7784 528.327 84.8097 528.486 84.8494V88.071C528.315 88.0199 528.08 87.9744 527.778 87.9347C527.477 87.8949 527.202 87.875 526.952 87.875C526.418 87.875 525.94 87.9915 525.52 88.2244C525.105 88.4517 524.776 88.7699 524.531 89.179C524.293 89.5881 524.173 90.0597 524.173 90.5938V98H520.543ZM541.255 88.642L537.931 88.8466C537.874 88.5625 537.752 88.3068 537.565 88.0795C537.377 87.8466 537.13 87.6619 536.823 87.5256C536.522 87.3835 536.161 87.3125 535.741 87.3125C535.178 87.3125 534.704 87.4318 534.317 87.6705C533.931 87.9034 533.738 88.2159 533.738 88.608C533.738 88.9205 533.863 89.1847 534.113 89.4006C534.363 89.6165 534.792 89.7898 535.4 89.9205L537.769 90.3977C539.042 90.6591 539.991 91.0795 540.616 91.6591C541.241 92.2386 541.553 93 541.553 93.9432C541.553 94.8011 541.3 95.554 540.795 96.2017C540.295 96.8494 539.607 97.3551 538.732 97.7188C537.863 98.0767 536.86 98.2557 535.724 98.2557C533.991 98.2557 532.61 97.8949 531.582 97.1733C530.559 96.446 529.96 95.4574 529.783 94.2074L533.354 94.0199C533.462 94.5483 533.724 94.9517 534.138 95.2301C534.553 95.5028 535.085 95.6392 535.732 95.6392C536.369 95.6392 536.88 95.517 537.266 95.2727C537.658 95.0227 537.857 94.7017 537.863 94.3097C537.857 93.9801 537.718 93.7102 537.445 93.5C537.173 93.2841 536.752 93.1193 536.184 93.0057L533.917 92.554C532.638 92.2983 531.687 91.8551 531.062 91.2244C530.442 90.5937 530.133 89.7898 530.133 88.8125C530.133 87.9716 530.36 87.2472 530.815 86.6392C531.275 86.0312 531.92 85.5625 532.749 85.233C533.585 84.9034 534.562 84.7386 535.681 84.7386C537.335 84.7386 538.636 85.0881 539.585 85.7869C540.539 86.4858 541.096 87.4375 541.255 88.642ZM549.805 98.2557C548.459 98.2557 547.3 97.983 546.328 97.4375C545.362 96.8864 544.618 96.108 544.095 95.1023C543.572 94.0909 543.311 92.8949 543.311 91.5142C543.311 90.1676 543.572 88.9858 544.095 87.9688C544.618 86.9517 545.354 86.1591 546.303 85.5909C547.257 85.0227 548.376 84.7386 549.661 84.7386C550.524 84.7386 551.328 84.8778 552.072 85.1562C552.822 85.429 553.476 85.8409 554.033 86.392C554.595 86.9432 555.033 87.6364 555.345 88.4716C555.658 89.3011 555.814 90.2727 555.814 91.3864V92.3835H544.76V90.1335H552.396C552.396 89.6108 552.283 89.1477 552.055 88.7443C551.828 88.3409 551.513 88.0256 551.109 87.7983C550.712 87.5653 550.249 87.4489 549.72 87.4489C549.169 87.4489 548.68 87.5767 548.254 87.8324C547.834 88.0824 547.504 88.4205 547.266 88.8466C547.027 89.267 546.905 89.7358 546.899 90.2528V92.392C546.899 93.0398 547.018 93.5994 547.257 94.071C547.501 94.5426 547.845 94.9062 548.288 95.1619C548.732 95.4176 549.257 95.5455 549.865 95.5455C550.268 95.5455 550.638 95.4886 550.973 95.375C551.308 95.2614 551.595 95.0909 551.834 94.8636C552.072 94.6364 552.254 94.358 552.379 94.0284L555.737 94.25C555.567 95.0568 555.217 95.7614 554.689 96.3636C554.166 96.9602 553.49 97.4261 552.661 97.7614C551.837 98.0909 550.885 98.2557 549.805 98.2557Z" fill="white"/>
<path d="M41.9176 269V251.545H52.7415V253.812H44.5511V259.131H51.9659V261.389H44.5511V269H41.9176ZM55.6115 269V255.909H58.0746V257.989H58.2109C58.4496 257.284 58.87 256.73 59.4723 256.327C60.0803 255.918 60.7678 255.713 61.5348 255.713C61.6939 255.713 61.8814 255.719 62.0973 255.73C62.3189 255.741 62.4922 255.756 62.6172 255.773V258.21C62.5149 258.182 62.3331 258.151 62.0717 258.116C61.8104 258.077 61.549 258.057 61.2876 258.057C60.6854 258.057 60.1484 258.185 59.6768 258.44C59.2109 258.69 58.8416 259.04 58.5689 259.489C58.2962 259.932 58.1598 260.437 58.1598 261.006V269H55.6115ZM69.9957 269.264C68.706 269.264 67.5952 268.989 66.6634 268.438C65.7372 267.881 65.0213 267.099 64.5156 266.094C64.0156 265.082 63.7656 263.898 63.7656 262.54C63.7656 261.199 64.0156 260.017 64.5156 258.994C65.0213 257.972 65.7259 257.173 66.6293 256.599C67.5384 256.026 68.6009 255.739 69.8168 255.739C70.5554 255.739 71.2713 255.861 71.9645 256.105C72.6577 256.349 73.2798 256.733 73.831 257.256C74.3821 257.778 74.8168 258.457 75.1349 259.293C75.4531 260.122 75.6122 261.131 75.6122 262.318V263.222H65.206V261.312H73.1151C73.1151 260.642 72.9787 260.048 72.706 259.531C72.4332 259.009 72.0497 258.597 71.5554 258.295C71.0668 257.994 70.4929 257.844 69.8338 257.844C69.1179 257.844 68.4929 258.02 67.9588 258.372C67.4304 258.719 67.0213 259.173 66.7315 259.736C66.4474 260.293 66.3054 260.898 66.3054 261.551V263.043C66.3054 263.918 66.4588 264.662 66.7656 265.276C67.0781 265.889 67.5128 266.358 68.0696 266.682C68.6264 267 69.277 267.159 70.0213 267.159C70.5043 267.159 70.9446 267.091 71.3423 266.955C71.7401 266.812 72.0838 266.602 72.3736 266.324C72.6634 266.045 72.8849 265.702 73.0384 265.293L75.4503 265.727C75.2571 266.437 74.9105 267.06 74.4105 267.594C73.9162 268.122 73.294 268.534 72.544 268.83C71.7997 269.119 70.9503 269.264 69.9957 269.264ZM84.0817 269.264C82.7919 269.264 81.6811 268.989 80.7493 268.438C79.8232 267.881 79.1072 267.099 78.6016 266.094C78.1016 265.082 77.8516 263.898 77.8516 262.54C77.8516 261.199 78.1016 260.017 78.6016 258.994C79.1072 257.972 79.8118 257.173 80.7152 256.599C81.6243 256.026 82.6868 255.739 83.9027 255.739C84.6413 255.739 85.3572 255.861 86.0504 256.105C86.7436 256.349 87.3658 256.733 87.9169 257.256C88.468 257.778 88.9027 258.457 89.2209 259.293C89.5391 260.122 89.6982 261.131 89.6982 262.318V263.222H79.2919V261.312H87.201C87.201 260.642 87.0646 260.048 86.7919 259.531C86.5192 259.009 86.1357 258.597 85.6413 258.295C85.1527 257.994 84.5788 257.844 83.9197 257.844C83.2038 257.844 82.5788 258.02 82.0447 258.372C81.5163 258.719 81.1072 259.173 80.8175 259.736C80.5334 260.293 80.3913 260.898 80.3913 261.551V263.043C80.3913 263.918 80.5447 264.662 80.8516 265.276C81.1641 265.889 81.5987 266.358 82.1555 266.682C82.7124 267 83.3629 267.159 84.1072 267.159C84.5902 267.159 85.0305 267.091 85.4283 266.955C85.826 266.812 86.1697 266.602 86.4595 266.324C86.7493 266.045 86.9709 265.702 87.1243 265.293L89.5362 265.727C89.343 266.437 88.9964 267.06 88.4964 267.594C88.0021 268.122 87.38 268.534 86.63 268.83C85.8857 269.119 85.0362 269.264 84.0817 269.264ZM56.4148 316.222H53.7557C53.6534 315.653 53.4631 315.153 53.1847 314.722C52.9063 314.29 52.5653 313.923 52.1619 313.622C51.7585 313.321 51.3068 313.094 50.8068 312.94C50.3125 312.787 49.7869 312.71 49.2301 312.71C48.2244 312.71 47.3239 312.963 46.5284 313.469C45.7386 313.974 45.1136 314.716 44.6534 315.693C44.1989 316.67 43.9716 317.864 43.9716 319.273C43.9716 320.693 44.1989 321.892 44.6534 322.869C45.1136 323.847 45.7415 324.585 46.5369 325.085C47.3324 325.585 48.2273 325.835 49.2216 325.835C49.7727 325.835 50.2955 325.761 50.7898 325.614C51.2898 325.46 51.7415 325.236 52.1449 324.94C52.5483 324.645 52.8892 324.284 53.1676 323.858C53.4517 323.426 53.6477 322.932 53.7557 322.375L56.4148 322.384C56.2727 323.241 55.9972 324.031 55.5881 324.753C55.1847 325.469 54.6648 326.088 54.0284 326.611C53.3977 327.128 52.6761 327.528 51.8636 327.812C51.0511 328.097 50.1648 328.239 49.2045 328.239C47.6932 328.239 46.3466 327.881 45.1648 327.165C43.983 326.443 43.0511 325.412 42.3693 324.071C41.6932 322.73 41.3551 321.131 41.3551 319.273C41.3551 317.409 41.696 315.81 42.3778 314.474C43.0597 313.134 43.9915 312.105 45.1733 311.389C46.3551 310.668 47.6989 310.307 49.2045 310.307C50.1307 310.307 50.9943 310.44 51.7955 310.707C52.6023 310.969 53.3267 311.355 53.9688 311.866C54.6108 312.372 55.142 312.991 55.5625 313.724C55.983 314.452 56.267 315.284 56.4148 316.222ZM64.8757 328.264C63.6484 328.264 62.5774 327.983 61.6626 327.42C60.7479 326.858 60.0376 326.071 59.532 325.06C59.0263 324.048 58.7734 322.866 58.7734 321.514C58.7734 320.156 59.0263 318.969 59.532 317.952C60.0376 316.935 60.7479 316.145 61.6626 315.582C62.5774 315.02 63.6484 314.739 64.8757 314.739C66.103 314.739 67.174 315.02 68.0888 315.582C69.0036 316.145 69.7138 316.935 70.2195 317.952C70.7251 318.969 70.978 320.156 70.978 321.514C70.978 322.866 70.7251 324.048 70.2195 325.06C69.7138 326.071 69.0036 326.858 68.0888 327.42C67.174 327.983 66.103 328.264 64.8757 328.264ZM64.8842 326.125C65.6797 326.125 66.3388 325.915 66.8615 325.494C67.3842 325.074 67.7706 324.514 68.0206 323.815C68.2763 323.116 68.4041 322.347 68.4041 321.506C68.4041 320.67 68.2763 319.903 68.0206 319.205C67.7706 318.5 67.3842 317.935 66.8615 317.509C66.3388 317.082 65.6797 316.869 64.8842 316.869C64.0831 316.869 63.4183 317.082 62.8899 317.509C62.3672 317.935 61.978 318.5 61.7223 319.205C61.4723 319.903 61.3473 320.67 61.3473 321.506C61.3473 322.347 61.4723 323.116 61.7223 323.815C61.978 324.514 62.3672 325.074 62.8899 325.494C63.4183 325.915 64.0831 326.125 64.8842 326.125ZM76.3707 320.227V328H73.8224V314.909H76.2685V317.04H76.4304C76.7315 316.347 77.2031 315.79 77.8452 315.369C78.4929 314.949 79.3082 314.739 80.2912 314.739C81.1832 314.739 81.9645 314.926 82.6349 315.301C83.3054 315.67 83.8253 316.222 84.1946 316.955C84.5639 317.687 84.7486 318.594 84.7486 319.673V328H82.2003V319.98C82.2003 319.031 81.9531 318.29 81.4588 317.756C80.9645 317.216 80.2855 316.946 79.4219 316.946C78.831 316.946 78.3054 317.074 77.8452 317.33C77.3906 317.585 77.0298 317.96 76.7628 318.455C76.5014 318.943 76.3707 319.534 76.3707 320.227ZM98.8963 314.909L94.1491 328H91.4219L86.6662 314.909H89.402L92.7173 324.983H92.8537L96.1605 314.909H98.8963ZM106.488 328.264C105.198 328.264 104.087 327.989 103.156 327.438C102.229 326.881 101.513 326.099 101.008 325.094C100.508 324.082 100.258 322.898 100.258 321.54C100.258 320.199 100.508 319.017 101.008 317.994C101.513 316.972 102.218 316.173 103.121 315.599C104.031 315.026 105.093 314.739 106.309 314.739C107.048 314.739 107.763 314.861 108.457 315.105C109.15 315.349 109.772 315.733 110.323 316.256C110.874 316.778 111.309 317.457 111.627 318.293C111.945 319.122 112.104 320.131 112.104 321.318V322.222H101.698V320.312H109.607C109.607 319.642 109.471 319.048 109.198 318.531C108.925 318.009 108.542 317.597 108.048 317.295C107.559 316.994 106.985 316.844 106.326 316.844C105.61 316.844 104.985 317.02 104.451 317.372C103.923 317.719 103.513 318.173 103.224 318.736C102.94 319.293 102.798 319.898 102.798 320.551V322.043C102.798 322.918 102.951 323.662 103.258 324.276C103.57 324.889 104.005 325.358 104.562 325.682C105.119 326 105.769 326.159 106.513 326.159C106.996 326.159 107.437 326.091 107.835 325.955C108.232 325.812 108.576 325.602 108.866 325.324C109.156 325.045 109.377 324.702 109.531 324.293L111.942 324.727C111.749 325.437 111.403 326.06 110.903 326.594C110.408 327.122 109.786 327.534 109.036 327.83C108.292 328.119 107.442 328.264 106.488 328.264ZM117.48 320.227V328H114.932V314.909H117.378V317.04H117.54C117.841 316.347 118.313 315.79 118.955 315.369C119.602 314.949 120.418 314.739 121.401 314.739C122.293 314.739 123.074 314.926 123.744 315.301C124.415 315.67 124.935 316.222 125.304 316.955C125.673 317.687 125.858 318.594 125.858 319.673V328H123.31V319.98C123.31 319.031 123.063 318.29 122.568 317.756C122.074 317.216 121.395 316.946 120.531 316.946C119.94 316.946 119.415 317.074 118.955 317.33C118.5 317.585 118.139 317.96 117.872 318.455C117.611 318.943 117.48 319.534 117.48 320.227ZM129.276 328V314.909H131.824V328H129.276ZM130.562 312.889C130.119 312.889 129.739 312.741 129.42 312.446C129.108 312.145 128.952 311.787 128.952 311.372C128.952 310.952 129.108 310.594 129.42 310.298C129.739 309.997 130.119 309.847 130.562 309.847C131.006 309.847 131.384 309.997 131.696 310.298C132.014 310.594 132.173 310.952 132.173 311.372C132.173 311.787 132.014 312.145 131.696 312.446C131.384 312.741 131.006 312.889 130.562 312.889ZM140.894 328.264C139.604 328.264 138.494 327.989 137.562 327.438C136.636 326.881 135.92 326.099 135.414 325.094C134.914 324.082 134.664 322.898 134.664 321.54C134.664 320.199 134.914 319.017 135.414 317.994C135.92 316.972 136.624 316.173 137.528 315.599C138.437 315.026 139.499 314.739 140.715 314.739C141.454 314.739 142.17 314.861 142.863 315.105C143.556 315.349 144.178 315.733 144.729 316.256C145.281 316.778 145.715 317.457 146.033 318.293C146.352 319.122 146.511 320.131 146.511 321.318V322.222H136.104V320.312H144.013C144.013 319.642 143.877 319.048 143.604 318.531C143.332 318.009 142.948 317.597 142.454 317.295C141.965 316.994 141.391 316.844 140.732 316.844C140.016 316.844 139.391 317.02 138.857 317.372C138.329 317.719 137.92 318.173 137.63 318.736C137.346 319.293 137.204 319.898 137.204 320.551V322.043C137.204 322.918 137.357 323.662 137.664 324.276C137.977 324.889 138.411 325.358 138.968 325.682C139.525 326 140.175 326.159 140.92 326.159C141.403 326.159 141.843 326.091 142.241 325.955C142.638 325.812 142.982 325.602 143.272 325.324C143.562 325.045 143.783 324.702 143.937 324.293L146.349 324.727C146.156 325.437 145.809 326.06 145.309 326.594C144.815 327.122 144.192 327.534 143.442 327.83C142.698 328.119 141.849 328.264 140.894 328.264ZM151.886 320.227V328H149.338V314.909H151.784V317.04H151.946C152.247 316.347 152.719 315.79 153.361 315.369C154.009 314.949 154.824 314.739 155.807 314.739C156.699 314.739 157.48 314.926 158.151 315.301C158.821 315.67 159.341 316.222 159.71 316.955C160.08 317.687 160.264 318.594 160.264 319.673V328H157.716V319.98C157.716 319.031 157.469 318.29 156.974 317.756C156.48 317.216 155.801 316.946 154.938 316.946C154.347 316.946 153.821 317.074 153.361 317.33C152.906 317.585 152.545 317.96 152.278 318.455C152.017 318.943 151.886 319.534 151.886 320.227ZM169.793 314.909V316.955H162.642V314.909H169.793ZM164.56 311.773H167.108V324.156C167.108 324.651 167.182 325.023 167.33 325.273C167.477 325.517 167.668 325.685 167.901 325.776C168.139 325.861 168.398 325.903 168.676 325.903C168.881 325.903 169.06 325.889 169.213 325.861C169.366 325.832 169.486 325.81 169.571 325.793L170.031 327.898C169.884 327.955 169.673 328.011 169.401 328.068C169.128 328.131 168.787 328.165 168.378 328.17C167.707 328.182 167.082 328.062 166.503 327.812C165.923 327.562 165.455 327.176 165.097 326.653C164.739 326.131 164.56 325.474 164.56 324.685V311.773ZM56.0057 369.545V387H53.5852L44.7131 374.199H44.5511V387H41.9176V369.545H44.3551L53.2358 382.364H53.3977V369.545H56.0057ZM65.157 387.264C63.9297 387.264 62.8587 386.983 61.9439 386.42C61.0291 385.858 60.3189 385.071 59.8132 384.06C59.3075 383.048 59.0547 381.866 59.0547 380.514C59.0547 379.156 59.3075 377.969 59.8132 376.952C60.3189 375.935 61.0291 375.145 61.9439 374.582C62.8587 374.02 63.9297 373.739 65.157 373.739C66.3842 373.739 67.4553 374.02 68.37 374.582C69.2848 375.145 69.995 375.935 70.5007 376.952C71.0064 377.969 71.2592 379.156 71.2592 380.514C71.2592 381.866 71.0064 383.048 70.5007 384.06C69.995 385.071 69.2848 385.858 68.37 386.42C67.4553 386.983 66.3842 387.264 65.157 387.264ZM65.1655 385.125C65.9609 385.125 66.62 384.915 67.1428 384.494C67.6655 384.074 68.0518 383.514 68.3018 382.815C68.5575 382.116 68.6854 381.347 68.6854 380.506C68.6854 379.67 68.5575 378.903 68.3018 378.205C68.0518 377.5 67.6655 376.935 67.1428 376.509C66.62 376.082 65.9609 375.869 65.1655 375.869C64.3643 375.869 63.6996 376.082 63.1712 376.509C62.6484 376.935 62.2592 377.5 62.0036 378.205C61.7536 378.903 61.6286 379.67 61.6286 380.506C61.6286 381.347 61.7536 382.116 62.0036 382.815C62.2592 383.514 62.6484 384.074 63.1712 384.494C63.6996 384.915 64.3643 385.125 65.1655 385.125ZM76.652 379.227V387H74.1037V373.909H76.5497V376.04H76.7116C77.0128 375.347 77.4844 374.79 78.1264 374.369C78.7741 373.949 79.5895 373.739 80.5724 373.739C81.4645 373.739 82.2457 373.926 82.9162 374.301C83.5866 374.67 84.1065 375.222 84.4759 375.955C84.8452 376.687 85.0298 377.594 85.0298 378.673V387H82.4815V378.98C82.4815 378.031 82.2344 377.29 81.7401 376.756C81.2457 376.216 80.5668 375.946 79.7031 375.946C79.1122 375.946 78.5866 376.074 78.1264 376.33C77.6719 376.585 77.3111 376.96 77.044 377.455C76.7827 377.943 76.652 378.534 76.652 379.227ZM95.0036 387V369.545H101.225C102.583 369.545 103.708 369.793 104.6 370.287C105.492 370.781 106.16 371.457 106.603 372.315C107.046 373.168 107.268 374.128 107.268 375.196C107.268 376.27 107.043 377.236 106.594 378.094C106.151 378.946 105.481 379.622 104.583 380.122C103.691 380.616 102.569 380.864 101.217 380.864H96.9382V378.631H100.978C101.836 378.631 102.532 378.483 103.066 378.188C103.6 377.886 103.992 377.477 104.242 376.96C104.492 376.443 104.617 375.855 104.617 375.196C104.617 374.537 104.492 373.952 104.242 373.44C103.992 372.929 103.597 372.528 103.058 372.239C102.523 371.949 101.819 371.804 100.944 371.804H97.6371V387H95.0036ZM110.151 387V373.909H112.614V375.989H112.75C112.989 375.284 113.409 374.73 114.011 374.327C114.619 373.918 115.307 373.713 116.074 373.713C116.233 373.713 116.42 373.719 116.636 373.73C116.858 373.741 117.031 373.756 117.156 373.773V376.21C117.054 376.182 116.872 376.151 116.611 376.116C116.349 376.077 116.088 376.057 115.827 376.057C115.224 376.057 114.688 376.185 114.216 376.44C113.75 376.69 113.381 377.04 113.108 377.489C112.835 377.932 112.699 378.437 112.699 379.006V387H110.151ZM119.362 387V373.909H121.91V387H119.362ZM120.648 371.889C120.205 371.889 119.825 371.741 119.506 371.446C119.194 371.145 119.038 370.787 119.038 370.372C119.038 369.952 119.194 369.594 119.506 369.298C119.825 368.997 120.205 368.847 120.648 368.847C121.092 368.847 121.469 368.997 121.782 369.298C122.1 369.594 122.259 369.952 122.259 370.372C122.259 370.787 122.1 371.145 121.782 371.446C121.469 371.741 121.092 371.889 120.648 371.889ZM136.537 373.909L131.79 387H129.062L124.307 373.909H127.043L130.358 383.983H130.494L133.801 373.909H136.537ZM142.366 387.29C141.537 387.29 140.787 387.136 140.116 386.83C139.446 386.517 138.915 386.065 138.523 385.474C138.136 384.884 137.943 384.159 137.943 383.301C137.943 382.562 138.085 381.955 138.369 381.477C138.653 381 139.037 380.622 139.52 380.344C140.003 380.065 140.543 379.855 141.139 379.713C141.736 379.571 142.344 379.463 142.963 379.389C143.747 379.298 144.384 379.224 144.872 379.168C145.361 379.105 145.716 379.006 145.938 378.869C146.159 378.733 146.27 378.511 146.27 378.205V378.145C146.27 377.401 146.06 376.824 145.639 376.415C145.224 376.006 144.605 375.801 143.781 375.801C142.923 375.801 142.247 375.991 141.753 376.372C141.264 376.747 140.926 377.165 140.739 377.625L138.344 377.08C138.628 376.284 139.043 375.642 139.588 375.153C140.139 374.659 140.773 374.301 141.489 374.08C142.205 373.852 142.957 373.739 143.747 373.739C144.27 373.739 144.824 373.801 145.409 373.926C146 374.045 146.551 374.267 147.062 374.591C147.58 374.915 148.003 375.378 148.332 375.98C148.662 376.577 148.827 377.352 148.827 378.307V387H146.338V385.21H146.236C146.071 385.54 145.824 385.864 145.494 386.182C145.165 386.5 144.741 386.764 144.224 386.974C143.707 387.185 143.088 387.29 142.366 387.29ZM142.92 385.244C143.625 385.244 144.227 385.105 144.727 384.827C145.233 384.548 145.616 384.185 145.878 383.736C146.145 383.281 146.278 382.795 146.278 382.278V380.591C146.188 380.682 146.011 380.767 145.75 380.847C145.494 380.92 145.202 380.986 144.872 381.043C144.543 381.094 144.222 381.142 143.909 381.188C143.597 381.227 143.335 381.261 143.125 381.29C142.631 381.352 142.179 381.457 141.77 381.605C141.366 381.753 141.043 381.966 140.798 382.244C140.56 382.517 140.44 382.881 140.44 383.335C140.44 383.966 140.673 384.443 141.139 384.767C141.605 385.085 142.199 385.244 142.92 385.244ZM158.332 373.909V375.955H151.181V373.909H158.332ZM153.099 370.773H155.647V383.156C155.647 383.651 155.721 384.023 155.869 384.273C156.016 384.517 156.207 384.685 156.44 384.776C156.678 384.861 156.937 384.903 157.215 384.903C157.42 384.903 157.599 384.889 157.752 384.861C157.906 384.832 158.025 384.81 158.11 384.793L158.57 386.898C158.423 386.955 158.212 387.011 157.94 387.068C157.667 387.131 157.326 387.165 156.917 387.17C156.246 387.182 155.621 387.062 155.042 386.812C154.462 386.562 153.994 386.176 153.636 385.653C153.278 385.131 153.099 384.474 153.099 383.685V370.773ZM166.652 387.264C165.362 387.264 164.251 386.989 163.32 386.438C162.393 385.881 161.678 385.099 161.172 384.094C160.672 383.082 160.422 381.898 160.422 380.54C160.422 379.199 160.672 378.017 161.172 376.994C161.678 375.972 162.382 375.173 163.286 374.599C164.195 374.026 165.257 373.739 166.473 373.739C167.212 373.739 167.928 373.861 168.621 374.105C169.314 374.349 169.936 374.733 170.487 375.256C171.038 375.778 171.473 376.457 171.791 377.293C172.109 378.122 172.268 379.131 172.268 380.318V381.222H161.862V379.312H169.771C169.771 378.642 169.635 378.048 169.362 377.531C169.089 377.009 168.706 376.597 168.212 376.295C167.723 375.994 167.149 375.844 166.49 375.844C165.774 375.844 165.149 376.02 164.615 376.372C164.087 376.719 163.678 377.173 163.388 377.736C163.104 378.293 162.962 378.898 162.962 379.551V381.043C162.962 381.918 163.115 382.662 163.422 383.276C163.734 383.889 164.169 384.358 164.726 384.682C165.283 385 165.933 385.159 166.678 385.159C167.161 385.159 167.601 385.091 167.999 384.955C168.396 384.812 168.74 384.602 169.03 384.324C169.32 384.045 169.541 383.702 169.695 383.293L172.107 383.727C171.913 384.437 171.567 385.06 171.067 385.594C170.572 386.122 169.95 386.534 169.2 386.83C168.456 387.119 167.607 387.264 166.652 387.264ZM44.5511 428.545V446H41.9176V428.545H44.5511ZM50.7301 438.227V446H48.1818V432.909H50.6278V435.04H50.7898C51.0909 434.347 51.5625 433.79 52.2045 433.369C52.8523 432.949 53.6676 432.739 54.6506 432.739C55.5426 432.739 56.3239 432.926 56.9943 433.301C57.6648 433.67 58.1847 434.222 58.554 434.955C58.9233 435.687 59.108 436.594 59.108 437.673V446H56.5597V437.98C56.5597 437.031 56.3125 436.29 55.8182 435.756C55.3239 435.216 54.6449 434.946 53.7812 434.946C53.1903 434.946 52.6648 435.074 52.2045 435.33C51.75 435.585 51.3892 435.96 51.1222 436.455C50.8608 436.943 50.7301 437.534 50.7301 438.227ZM68.6364 432.909V434.955H61.4858V432.909H68.6364ZM63.4034 429.773H65.9517V442.156C65.9517 442.651 66.0256 443.023 66.1733 443.273C66.321 443.517 66.5114 443.685 66.7443 443.776C66.983 443.861 67.2415 443.903 67.5199 443.903C67.7244 443.903 67.9034 443.889 68.0568 443.861C68.2102 443.832 68.3295 443.81 68.4148 443.793L68.875 445.898C68.7273 445.955 68.517 446.011 68.2443 446.068C67.9716 446.131 67.6307 446.165 67.2216 446.17C66.5511 446.182 65.9261 446.062 65.3466 445.812C64.767 445.562 64.2983 445.176 63.9403 444.653C63.5824 444.131 63.4034 443.474 63.4034 442.685V429.773ZM71.4553 446V432.909H73.9183V434.989H74.0547C74.2933 434.284 74.7138 433.73 75.3161 433.327C75.924 432.918 76.6115 432.713 77.3786 432.713C77.5376 432.713 77.7251 432.719 77.9411 432.73C78.1626 432.741 78.3359 432.756 78.4609 432.773V435.21C78.3587 435.182 78.1768 435.151 77.9155 435.116C77.6541 435.077 77.3928 435.057 77.1314 435.057C76.5291 435.057 75.9922 435.185 75.5206 435.44C75.0547 435.69 74.6854 436.04 74.4126 436.489C74.1399 436.932 74.0036 437.437 74.0036 438.006V446H71.4553ZM88.9588 440.571V432.909H91.5156V446H89.0099V443.733H88.8736C88.5724 444.432 88.0895 445.014 87.4247 445.48C86.7656 445.94 85.9446 446.17 84.9616 446.17C84.1207 446.17 83.3764 445.986 82.7287 445.616C82.0866 445.241 81.581 444.688 81.2116 443.955C80.848 443.222 80.6662 442.315 80.6662 441.236V432.909H83.2145V440.929C83.2145 441.821 83.4616 442.531 83.956 443.06C84.4503 443.588 85.0923 443.852 85.8821 443.852C86.3594 443.852 86.8338 443.733 87.3054 443.494C87.7827 443.256 88.1776 442.895 88.4901 442.412C88.8082 441.929 88.9645 441.315 88.9588 440.571ZM104.749 436.105L102.44 436.514C102.343 436.219 102.19 435.937 101.979 435.67C101.775 435.403 101.496 435.185 101.144 435.014C100.792 434.844 100.352 434.759 99.8232 434.759C99.1016 434.759 98.4993 434.92 98.0163 435.244C97.5334 435.562 97.2919 435.974 97.2919 436.48C97.2919 436.918 97.4538 437.27 97.7777 437.537C98.1016 437.804 98.6243 438.023 99.3459 438.193L101.425 438.67C102.63 438.949 103.528 439.378 104.119 439.957C104.71 440.537 105.005 441.29 105.005 442.216C105.005 443 104.778 443.699 104.323 444.312C103.874 444.92 103.246 445.398 102.44 445.744C101.638 446.091 100.71 446.264 99.6527 446.264C98.1868 446.264 96.9908 445.952 96.0646 445.327C95.1385 444.696 94.5703 443.801 94.3601 442.642L96.8232 442.267C96.9766 442.909 97.2919 443.395 97.7692 443.724C98.2464 444.048 98.8686 444.21 99.6357 444.21C100.471 444.21 101.138 444.037 101.638 443.69C102.138 443.338 102.388 442.909 102.388 442.403C102.388 441.994 102.235 441.651 101.928 441.372C101.627 441.094 101.164 440.884 100.539 440.741L98.3232 440.256C97.1016 439.977 96.1982 439.534 95.6129 438.926C95.0334 438.318 94.7436 437.548 94.7436 436.616C94.7436 435.844 94.9595 435.168 95.3913 434.588C95.8232 434.009 96.4197 433.557 97.1811 433.233C97.9425 432.903 98.8146 432.739 99.7976 432.739C101.212 432.739 102.326 433.045 103.138 433.659C103.951 434.267 104.488 435.082 104.749 436.105ZM107.807 446V432.909H110.355V446H107.807ZM109.094 430.889C108.651 430.889 108.27 430.741 107.952 430.446C107.639 430.145 107.483 429.787 107.483 429.372C107.483 428.952 107.639 428.594 107.952 428.298C108.27 427.997 108.651 427.847 109.094 427.847C109.537 427.847 109.915 427.997 110.227 428.298C110.545 428.594 110.705 428.952 110.705 429.372C110.705 429.787 110.545 430.145 110.227 430.446C109.915 430.741 109.537 430.889 109.094 430.889ZM124.982 432.909L120.235 446H117.508L112.752 432.909H115.488L118.803 442.983H118.94L122.246 432.909H124.982ZM132.574 446.264C131.284 446.264 130.173 445.989 129.241 445.438C128.315 444.881 127.599 444.099 127.094 443.094C126.594 442.082 126.344 440.898 126.344 439.54C126.344 438.199 126.594 437.017 127.094 435.994C127.599 434.972 128.304 434.173 129.207 433.599C130.116 433.026 131.179 432.739 132.395 432.739C133.134 432.739 133.849 432.861 134.543 433.105C135.236 433.349 135.858 433.733 136.409 434.256C136.96 434.778 137.395 435.457 137.713 436.293C138.031 437.122 138.19 438.131 138.19 439.318V440.222H127.784V438.312H135.693C135.693 437.642 135.557 437.048 135.284 436.531C135.011 436.009 134.628 435.597 134.134 435.295C133.645 434.994 133.071 434.844 132.412 434.844C131.696 434.844 131.071 435.02 130.537 435.372C130.009 435.719 129.599 436.173 129.31 436.736C129.026 437.293 128.884 437.898 128.884 438.551V440.043C128.884 440.918 129.037 441.662 129.344 442.276C129.656 442.889 130.091 443.358 130.648 443.682C131.205 444 131.855 444.159 132.599 444.159C133.082 444.159 133.523 444.091 133.92 443.955C134.318 443.812 134.662 443.602 134.952 443.324C135.241 443.045 135.463 442.702 135.616 442.293L138.028 442.727C137.835 443.437 137.489 444.06 136.989 444.594C136.494 445.122 135.872 445.534 135.122 445.83C134.378 446.119 133.528 446.264 132.574 446.264ZM43.392 505.162C42.9261 505.162 42.5256 504.997 42.1903 504.668C41.8551 504.332 41.6875 503.929 41.6875 503.457C41.6875 502.991 41.8551 502.594 42.1903 502.264C42.5256 501.929 42.9261 501.761 43.392 501.761C43.858 501.761 44.2585 501.929 44.5938 502.264C44.929 502.594 45.0966 502.991 45.0966 503.457C45.0966 503.77 45.017 504.057 44.858 504.318C44.7045 504.574 44.5 504.778 44.2443 504.932C43.9886 505.085 43.7045 505.162 43.392 505.162ZM50.1889 505.162C49.723 505.162 49.3224 504.997 48.9872 504.668C48.652 504.332 48.4844 503.929 48.4844 503.457C48.4844 502.991 48.652 502.594 48.9872 502.264C49.3224 501.929 49.723 501.761 50.1889 501.761C50.6548 501.761 51.0554 501.929 51.3906 502.264C51.7259 502.594 51.8935 502.991 51.8935 503.457C51.8935 503.77 51.8139 504.057 51.6548 504.318C51.5014 504.574 51.2969 504.778 51.0412 504.932C50.7855 505.085 50.5014 505.162 50.1889 505.162ZM56.9858 505.162C56.5199 505.162 56.1193 504.997 55.7841 504.668C55.4489 504.332 55.2812 503.929 55.2812 503.457C55.2812 502.991 55.4489 502.594 55.7841 502.264C56.1193 501.929 56.5199 501.761 56.9858 501.761C57.4517 501.761 57.8523 501.929 58.1875 502.264C58.5227 502.594 58.6903 502.991 58.6903 503.457C58.6903 503.77 58.6108 504.057 58.4517 504.318C58.2983 504.574 58.0938 504.778 57.8381 504.932C57.5824 505.085 57.2983 505.162 56.9858 505.162Z" fill="white"/>
<path d="M444.918 269V251.545H455.741V253.812H447.551V259.131H454.966V261.389H447.551V269H444.918ZM458.612 269V255.909H461.075V257.989H461.211C461.45 257.284 461.87 256.73 462.472 256.327C463.08 255.918 463.768 255.713 464.535 255.713C464.694 255.713 464.881 255.719 465.097 255.73C465.319 255.741 465.492 255.756 465.617 255.773V258.21C465.515 258.182 465.333 258.151 465.072 258.116C464.81 258.077 464.549 258.057 464.288 258.057C463.685 258.057 463.148 258.185 462.677 258.44C462.211 258.69 461.842 259.04 461.569 259.489C461.296 259.932 461.16 260.437 461.16 261.006V269H458.612ZM472.996 269.264C471.706 269.264 470.595 268.989 469.663 268.438C468.737 267.881 468.021 267.099 467.516 266.094C467.016 265.082 466.766 263.898 466.766 262.54C466.766 261.199 467.016 260.017 467.516 258.994C468.021 257.972 468.726 257.173 469.629 256.599C470.538 256.026 471.601 255.739 472.817 255.739C473.555 255.739 474.271 255.861 474.964 256.105C475.658 256.349 476.28 256.733 476.831 257.256C477.382 257.778 477.817 258.457 478.135 259.293C478.453 260.122 478.612 261.131 478.612 262.318V263.222H468.206V261.312H476.115C476.115 260.642 475.979 260.048 475.706 259.531C475.433 259.009 475.05 258.597 474.555 258.295C474.067 257.994 473.493 257.844 472.834 257.844C472.118 257.844 471.493 258.02 470.959 258.372C470.43 258.719 470.021 259.173 469.732 259.736C469.447 260.293 469.305 260.898 469.305 261.551V263.043C469.305 263.918 469.459 264.662 469.766 265.276C470.078 265.889 470.513 266.358 471.07 266.682C471.626 267 472.277 267.159 473.021 267.159C473.504 267.159 473.945 267.091 474.342 266.955C474.74 266.812 475.084 266.602 475.374 266.324C475.663 266.045 475.885 265.702 476.038 265.293L478.45 265.727C478.257 266.437 477.911 267.06 477.411 267.594C476.916 268.122 476.294 268.534 475.544 268.83C474.8 269.119 473.95 269.264 472.996 269.264ZM487.082 269.264C485.792 269.264 484.681 268.989 483.749 268.438C482.823 267.881 482.107 267.099 481.602 266.094C481.102 265.082 480.852 263.898 480.852 262.54C480.852 261.199 481.102 260.017 481.602 258.994C482.107 257.972 482.812 257.173 483.715 256.599C484.624 256.026 485.687 255.739 486.903 255.739C487.641 255.739 488.357 255.861 489.05 256.105C489.744 256.349 490.366 256.733 490.917 257.256C491.468 257.778 491.903 258.457 492.221 259.293C492.539 260.122 492.698 261.131 492.698 262.318V263.222H482.292V261.312H490.201C490.201 260.642 490.065 260.048 489.792 259.531C489.519 259.009 489.136 258.597 488.641 258.295C488.153 257.994 487.579 257.844 486.92 257.844C486.204 257.844 485.579 258.02 485.045 258.372C484.516 258.719 484.107 259.173 483.817 259.736C483.533 260.293 483.391 260.898 483.391 261.551V263.043C483.391 263.918 483.545 264.662 483.852 265.276C484.164 265.889 484.599 266.358 485.156 266.682C485.712 267 486.363 267.159 487.107 267.159C487.59 267.159 488.031 267.091 488.428 266.955C488.826 266.812 489.17 266.602 489.46 266.324C489.749 266.045 489.971 265.702 490.124 265.293L492.536 265.727C492.343 266.437 491.996 267.06 491.496 267.594C491.002 268.122 490.38 268.534 489.63 268.83C488.886 269.119 488.036 269.264 487.082 269.264ZM459.415 316.222H456.756C456.653 315.653 456.463 315.153 456.185 314.722C455.906 314.29 455.565 313.923 455.162 313.622C454.759 313.321 454.307 313.094 453.807 312.94C453.313 312.787 452.787 312.71 452.23 312.71C451.224 312.71 450.324 312.963 449.528 313.469C448.739 313.974 448.114 314.716 447.653 315.693C447.199 316.67 446.972 317.864 446.972 319.273C446.972 320.693 447.199 321.892 447.653 322.869C448.114 323.847 448.741 324.585 449.537 325.085C450.332 325.585 451.227 325.835 452.222 325.835C452.773 325.835 453.295 325.761 453.79 325.614C454.29 325.46 454.741 325.236 455.145 324.94C455.548 324.645 455.889 324.284 456.168 323.858C456.452 323.426 456.648 322.932 456.756 322.375L459.415 322.384C459.273 323.241 458.997 324.031 458.588 324.753C458.185 325.469 457.665 326.088 457.028 326.611C456.398 327.128 455.676 327.528 454.864 327.812C454.051 328.097 453.165 328.239 452.205 328.239C450.693 328.239 449.347 327.881 448.165 327.165C446.983 326.443 446.051 325.412 445.369 324.071C444.693 322.73 444.355 321.131 444.355 319.273C444.355 317.409 444.696 315.81 445.378 314.474C446.06 313.134 446.991 312.105 448.173 311.389C449.355 310.668 450.699 310.307 452.205 310.307C453.131 310.307 453.994 310.44 454.795 310.707C455.602 310.969 456.327 311.355 456.969 311.866C457.611 312.372 458.142 312.991 458.562 313.724C458.983 314.452 459.267 315.284 459.415 316.222ZM467.876 328.264C466.648 328.264 465.577 327.983 464.663 327.42C463.748 326.858 463.038 326.071 462.532 325.06C462.026 324.048 461.773 322.866 461.773 321.514C461.773 320.156 462.026 318.969 462.532 317.952C463.038 316.935 463.748 316.145 464.663 315.582C465.577 315.02 466.648 314.739 467.876 314.739C469.103 314.739 470.174 315.02 471.089 315.582C472.004 316.145 472.714 316.935 473.219 317.952C473.725 318.969 473.978 320.156 473.978 321.514C473.978 322.866 473.725 324.048 473.219 325.06C472.714 326.071 472.004 326.858 471.089 327.42C470.174 327.983 469.103 328.264 467.876 328.264ZM467.884 326.125C468.68 326.125 469.339 325.915 469.862 325.494C470.384 325.074 470.771 324.514 471.021 323.815C471.276 323.116 471.404 322.347 471.404 321.506C471.404 320.67 471.276 319.903 471.021 319.205C470.771 318.5 470.384 317.935 469.862 317.509C469.339 317.082 468.68 316.869 467.884 316.869C467.083 316.869 466.418 317.082 465.89 317.509C465.367 317.935 464.978 318.5 464.722 319.205C464.472 319.903 464.347 320.67 464.347 321.506C464.347 322.347 464.472 323.116 464.722 323.815C464.978 324.514 465.367 325.074 465.89 325.494C466.418 325.915 467.083 326.125 467.884 326.125ZM479.371 320.227V328H476.822V314.909H479.268V317.04H479.43C479.732 316.347 480.203 315.79 480.845 315.369C481.493 314.949 482.308 314.739 483.291 314.739C484.183 314.739 484.964 314.926 485.635 315.301C486.305 315.67 486.825 316.222 487.195 316.955C487.564 317.687 487.749 318.594 487.749 319.673V328H485.2V319.98C485.2 319.031 484.953 318.29 484.459 317.756C483.964 317.216 483.286 316.946 482.422 316.946C481.831 316.946 481.305 317.074 480.845 317.33C480.391 317.585 480.03 317.96 479.763 318.455C479.501 318.943 479.371 319.534 479.371 320.227ZM501.896 314.909L497.149 328H494.422L489.666 314.909H492.402L495.717 324.983H495.854L499.161 314.909H501.896ZM509.488 328.264C508.198 328.264 507.087 327.989 506.156 327.438C505.229 326.881 504.513 326.099 504.008 325.094C503.508 324.082 503.258 322.898 503.258 321.54C503.258 320.199 503.508 319.017 504.008 317.994C504.513 316.972 505.218 316.173 506.121 315.599C507.031 315.026 508.093 314.739 509.309 314.739C510.048 314.739 510.763 314.861 511.457 315.105C512.15 315.349 512.772 315.733 513.323 316.256C513.874 316.778 514.309 317.457 514.627 318.293C514.945 319.122 515.104 320.131 515.104 321.318V322.222H504.698V320.312H512.607C512.607 319.642 512.471 319.048 512.198 318.531C511.925 318.009 511.542 317.597 511.048 317.295C510.559 316.994 509.985 316.844 509.326 316.844C508.61 316.844 507.985 317.02 507.451 317.372C506.923 317.719 506.513 318.173 506.224 318.736C505.94 319.293 505.798 319.898 505.798 320.551V322.043C505.798 322.918 505.951 323.662 506.258 324.276C506.57 324.889 507.005 325.358 507.562 325.682C508.119 326 508.769 326.159 509.513 326.159C509.996 326.159 510.437 326.091 510.835 325.955C511.232 325.812 511.576 325.602 511.866 325.324C512.156 325.045 512.377 324.702 512.531 324.293L514.942 324.727C514.749 325.437 514.403 326.06 513.903 326.594C513.408 327.122 512.786 327.534 512.036 327.83C511.292 328.119 510.442 328.264 509.488 328.264ZM520.48 320.227V328H517.932V314.909H520.378V317.04H520.54C520.841 316.347 521.313 315.79 521.955 315.369C522.602 314.949 523.418 314.739 524.401 314.739C525.293 314.739 526.074 314.926 526.744 315.301C527.415 315.67 527.935 316.222 528.304 316.955C528.673 317.687 528.858 318.594 528.858 319.673V328H526.31V319.98C526.31 319.031 526.063 318.29 525.568 317.756C525.074 317.216 524.395 316.946 523.531 316.946C522.94 316.946 522.415 317.074 521.955 317.33C521.5 317.585 521.139 317.96 520.872 318.455C520.611 318.943 520.48 319.534 520.48 320.227ZM532.276 328V314.909H534.824V328H532.276ZM533.562 312.889C533.119 312.889 532.739 312.741 532.42 312.446C532.108 312.145 531.952 311.787 531.952 311.372C531.952 310.952 532.108 310.594 532.42 310.298C532.739 309.997 533.119 309.847 533.562 309.847C534.006 309.847 534.384 309.997 534.696 310.298C535.014 310.594 535.173 310.952 535.173 311.372C535.173 311.787 535.014 312.145 534.696 312.446C534.384 312.741 534.006 312.889 533.562 312.889ZM543.894 328.264C542.604 328.264 541.494 327.989 540.562 327.438C539.636 326.881 538.92 326.099 538.414 325.094C537.914 324.082 537.664 322.898 537.664 321.54C537.664 320.199 537.914 319.017 538.414 317.994C538.92 316.972 539.624 316.173 540.528 315.599C541.437 315.026 542.499 314.739 543.715 314.739C544.454 314.739 545.17 314.861 545.863 315.105C546.556 315.349 547.178 315.733 547.729 316.256C548.281 316.778 548.715 317.457 549.033 318.293C549.352 319.122 549.511 320.131 549.511 321.318V322.222H539.104V320.312H547.013C547.013 319.642 546.877 319.048 546.604 318.531C546.332 318.009 545.948 317.597 545.454 317.295C544.965 316.994 544.391 316.844 543.732 316.844C543.016 316.844 542.391 317.02 541.857 317.372C541.329 317.719 540.92 318.173 540.63 318.736C540.346 319.293 540.204 319.898 540.204 320.551V322.043C540.204 322.918 540.357 323.662 540.664 324.276C540.977 324.889 541.411 325.358 541.968 325.682C542.525 326 543.175 326.159 543.92 326.159C544.403 326.159 544.843 326.091 545.241 325.955C545.638 325.812 545.982 325.602 546.272 325.324C546.562 325.045 546.783 324.702 546.937 324.293L549.349 324.727C549.156 325.437 548.809 326.06 548.309 326.594C547.815 327.122 547.192 327.534 546.442 327.83C545.698 328.119 544.849 328.264 543.894 328.264ZM554.886 320.227V328H552.338V314.909H554.784V317.04H554.946C555.247 316.347 555.719 315.79 556.361 315.369C557.009 314.949 557.824 314.739 558.807 314.739C559.699 314.739 560.48 314.926 561.151 315.301C561.821 315.67 562.341 316.222 562.71 316.955C563.08 317.687 563.264 318.594 563.264 319.673V328H560.716V319.98C560.716 319.031 560.469 318.29 559.974 317.756C559.48 317.216 558.801 316.946 557.938 316.946C557.347 316.946 556.821 317.074 556.361 317.33C555.906 317.585 555.545 317.96 555.278 318.455C555.017 318.943 554.886 319.534 554.886 320.227ZM572.793 314.909V316.955H565.642V314.909H572.793ZM567.56 311.773H570.108V324.156C570.108 324.651 570.182 325.023 570.33 325.273C570.477 325.517 570.668 325.685 570.901 325.776C571.139 325.861 571.398 325.903 571.676 325.903C571.881 325.903 572.06 325.889 572.213 325.861C572.366 325.832 572.486 325.81 572.571 325.793L573.031 327.898C572.884 327.955 572.673 328.011 572.401 328.068C572.128 328.131 571.787 328.165 571.378 328.17C570.707 328.182 570.082 328.062 569.503 327.812C568.923 327.562 568.455 327.176 568.097 326.653C567.739 326.131 567.56 325.474 567.56 324.685V311.773ZM444.918 387V369.545H451.139C452.497 369.545 453.622 369.793 454.514 370.287C455.406 370.781 456.074 371.457 456.517 372.315C456.96 373.168 457.182 374.128 457.182 375.196C457.182 376.27 456.957 377.236 456.509 378.094C456.065 378.946 455.395 379.622 454.497 380.122C453.605 380.616 452.483 380.864 451.131 380.864H446.852V378.631H450.892C451.75 378.631 452.446 378.483 452.98 378.188C453.514 377.886 453.906 377.477 454.156 376.96C454.406 376.443 454.531 375.855 454.531 375.196C454.531 374.537 454.406 373.952 454.156 373.44C453.906 372.929 453.511 372.528 452.972 372.239C452.438 371.949 451.733 371.804 450.858 371.804H447.551V387H444.918ZM460.065 387V373.909H462.528V375.989H462.664C462.903 375.284 463.323 374.73 463.925 374.327C464.533 373.918 465.221 373.713 465.988 373.713C466.147 373.713 466.335 373.719 466.55 373.73C466.772 373.741 466.945 373.756 467.07 373.773V376.21C466.968 376.182 466.786 376.151 466.525 376.116C466.263 376.077 466.002 376.057 465.741 376.057C465.138 376.057 464.602 376.185 464.13 376.44C463.664 376.69 463.295 377.04 463.022 377.489C462.749 377.932 462.613 378.437 462.613 379.006V387H460.065ZM469.276 387V373.909H471.824V387H469.276ZM470.562 371.889C470.119 371.889 469.739 371.741 469.42 371.446C469.108 371.145 468.952 370.787 468.952 370.372C468.952 369.952 469.108 369.594 469.42 369.298C469.739 368.997 470.119 368.847 470.562 368.847C471.006 368.847 471.384 368.997 471.696 369.298C472.014 369.594 472.173 369.952 472.173 370.372C472.173 370.787 472.014 371.145 471.696 371.446C471.384 371.741 471.006 371.889 470.562 371.889ZM486.451 373.909L481.704 387H478.977L474.221 373.909H476.957L480.272 383.983H480.408L483.715 373.909H486.451ZM492.281 387.29C491.451 387.29 490.701 387.136 490.031 386.83C489.36 386.517 488.829 386.065 488.437 385.474C488.05 384.884 487.857 384.159 487.857 383.301C487.857 382.562 487.999 381.955 488.283 381.477C488.567 381 488.951 380.622 489.434 380.344C489.917 380.065 490.457 379.855 491.053 379.713C491.65 379.571 492.258 379.463 492.877 379.389C493.661 379.298 494.298 379.224 494.786 379.168C495.275 379.105 495.63 379.006 495.852 378.869C496.073 378.733 496.184 378.511 496.184 378.205V378.145C496.184 377.401 495.974 376.824 495.553 376.415C495.138 376.006 494.519 375.801 493.695 375.801C492.837 375.801 492.161 375.991 491.667 376.372C491.178 376.747 490.84 377.165 490.653 377.625L488.258 377.08C488.542 376.284 488.957 375.642 489.502 375.153C490.053 374.659 490.687 374.301 491.403 374.08C492.119 373.852 492.871 373.739 493.661 373.739C494.184 373.739 494.738 373.801 495.323 373.926C495.914 374.045 496.465 374.267 496.977 374.591C497.494 374.915 497.917 375.378 498.246 375.98C498.576 376.577 498.741 377.352 498.741 378.307V387H496.252V385.21H496.15C495.985 385.54 495.738 385.864 495.408 386.182C495.079 386.5 494.656 386.764 494.138 386.974C493.621 387.185 493.002 387.29 492.281 387.29ZM492.835 385.244C493.539 385.244 494.141 385.105 494.641 384.827C495.147 384.548 495.531 384.185 495.792 383.736C496.059 383.281 496.192 382.795 496.192 382.278V380.591C496.102 380.682 495.925 380.767 495.664 380.847C495.408 380.92 495.116 380.986 494.786 381.043C494.457 381.094 494.136 381.142 493.823 381.188C493.511 381.227 493.249 381.261 493.039 381.29C492.545 381.352 492.093 381.457 491.684 381.605C491.281 381.753 490.957 381.966 490.712 382.244C490.474 382.517 490.354 382.881 490.354 383.335C490.354 383.966 490.587 384.443 491.053 384.767C491.519 385.085 492.113 385.244 492.835 385.244ZM508.246 373.909V375.955H501.095V373.909H508.246ZM503.013 370.773H505.561V383.156C505.561 383.651 505.635 384.023 505.783 384.273C505.93 384.517 506.121 384.685 506.354 384.776C506.592 384.861 506.851 384.903 507.129 384.903C507.334 384.903 507.513 384.889 507.666 384.861C507.82 384.832 507.939 384.81 508.024 384.793L508.484 386.898C508.337 386.955 508.126 387.011 507.854 387.068C507.581 387.131 507.24 387.165 506.831 387.17C506.161 387.182 505.536 387.062 504.956 386.812C504.376 386.562 503.908 386.176 503.55 385.653C503.192 385.131 503.013 384.474 503.013 383.685V370.773ZM516.566 387.264C515.276 387.264 514.165 386.989 513.234 386.438C512.308 385.881 511.592 385.099 511.086 384.094C510.586 383.082 510.336 381.898 510.336 380.54C510.336 379.199 510.586 378.017 511.086 376.994C511.592 375.972 512.296 375.173 513.2 374.599C514.109 374.026 515.171 373.739 516.387 373.739C517.126 373.739 517.842 373.861 518.535 374.105C519.228 374.349 519.85 374.733 520.401 375.256C520.952 375.778 521.387 376.457 521.705 377.293C522.023 378.122 522.183 379.131 522.183 380.318V381.222H511.776V379.312H519.685C519.685 378.642 519.549 378.048 519.276 377.531C519.004 377.009 518.62 376.597 518.126 376.295C517.637 375.994 517.063 375.844 516.404 375.844C515.688 375.844 515.063 376.02 514.529 376.372C514.001 376.719 513.592 377.173 513.302 377.736C513.018 378.293 512.876 378.898 512.876 379.551V381.043C512.876 381.918 513.029 382.662 513.336 383.276C513.648 383.889 514.083 384.358 514.64 384.682C515.197 385 515.847 385.159 516.592 385.159C517.075 385.159 517.515 385.091 517.913 384.955C518.31 384.812 518.654 384.602 518.944 384.324C519.234 384.045 519.455 383.702 519.609 383.293L522.021 383.727C521.827 384.437 521.481 385.06 520.981 385.594C520.487 386.122 519.864 386.534 519.114 386.83C518.37 387.119 517.521 387.264 516.566 387.264ZM460.08 437.273C460.08 439.136 459.739 440.739 459.057 442.08C458.375 443.415 457.44 444.443 456.253 445.165C455.071 445.881 453.727 446.239 452.222 446.239C450.71 446.239 449.361 445.881 448.173 445.165C446.991 444.443 446.06 443.412 445.378 442.071C444.696 440.73 444.355 439.131 444.355 437.273C444.355 435.409 444.696 433.81 445.378 432.474C446.06 431.134 446.991 430.105 448.173 429.389C449.361 428.668 450.71 428.307 452.222 428.307C453.727 428.307 455.071 428.668 456.253 429.389C457.44 430.105 458.375 431.134 459.057 432.474C459.739 433.81 460.08 435.409 460.08 437.273ZM457.472 437.273C457.472 435.852 457.241 434.656 456.781 433.685C456.327 432.707 455.702 431.969 454.906 431.469C454.116 430.963 453.222 430.71 452.222 430.71C451.216 430.71 450.318 430.963 449.528 431.469C448.739 431.969 448.114 432.707 447.653 433.685C447.199 434.656 446.972 435.852 446.972 437.273C446.972 438.693 447.199 439.892 447.653 440.869C448.114 441.841 448.739 442.58 449.528 443.085C450.318 443.585 451.216 443.835 452.222 443.835C453.222 443.835 454.116 443.585 454.906 443.085C455.702 442.58 456.327 441.841 456.781 440.869C457.241 439.892 457.472 438.693 457.472 437.273ZM465.707 438.227V446H463.158V432.909H465.604V435.04H465.766C466.067 434.347 466.539 433.79 467.181 433.369C467.829 432.949 468.644 432.739 469.627 432.739C470.519 432.739 471.3 432.926 471.971 433.301C472.641 433.67 473.161 434.222 473.531 434.955C473.9 435.687 474.085 436.594 474.085 437.673V446H471.536V437.98C471.536 437.031 471.289 436.29 470.795 435.756C470.3 435.216 469.621 434.946 468.758 434.946C468.167 434.946 467.641 435.074 467.181 435.33C466.727 435.585 466.366 435.96 466.099 436.455C465.837 436.943 465.707 437.534 465.707 438.227ZM485.215 437.52V439.727H477.477V437.52H485.215ZM503.313 434.222H500.654C500.552 433.653 500.362 433.153 500.083 432.722C499.805 432.29 499.464 431.923 499.06 431.622C498.657 431.321 498.205 431.094 497.705 430.94C497.211 430.787 496.685 430.71 496.129 430.71C495.123 430.71 494.222 430.963 493.427 431.469C492.637 431.974 492.012 432.716 491.552 433.693C491.097 434.67 490.87 435.864 490.87 437.273C490.87 438.693 491.097 439.892 491.552 440.869C492.012 441.847 492.64 442.585 493.435 443.085C494.231 443.585 495.126 443.835 496.12 443.835C496.671 443.835 497.194 443.761 497.688 443.614C498.188 443.46 498.64 443.236 499.043 442.94C499.447 442.645 499.788 442.284 500.066 441.858C500.35 441.426 500.546 440.932 500.654 440.375L503.313 440.384C503.171 441.241 502.896 442.031 502.487 442.753C502.083 443.469 501.563 444.088 500.927 444.611C500.296 445.128 499.575 445.528 498.762 445.812C497.95 446.097 497.063 446.239 496.103 446.239C494.592 446.239 493.245 445.881 492.063 445.165C490.881 444.443 489.95 443.412 489.268 442.071C488.592 440.73 488.254 439.131 488.254 437.273C488.254 435.409 488.594 433.81 489.276 432.474C489.958 431.134 490.89 430.105 492.072 429.389C493.254 428.668 494.597 428.307 496.103 428.307C497.029 428.307 497.893 428.44 498.694 428.707C499.501 428.969 500.225 429.355 500.867 429.866C501.509 430.372 502.04 430.991 502.461 431.724C502.881 432.452 503.165 433.284 503.313 434.222ZM508.808 438.227V446H506.26V428.545H508.774V435.04H508.936C509.243 434.335 509.712 433.776 510.342 433.361C510.973 432.946 511.797 432.739 512.814 432.739C513.712 432.739 514.496 432.923 515.166 433.293C515.842 433.662 516.365 434.213 516.734 434.946C517.109 435.673 517.297 436.582 517.297 437.673V446H514.749V437.98C514.749 437.02 514.501 436.276 514.007 435.747C513.513 435.213 512.825 434.946 511.945 434.946C511.342 434.946 510.803 435.074 510.325 435.33C509.854 435.585 509.482 435.96 509.209 436.455C508.942 436.943 508.808 437.534 508.808 438.227ZM524.507 446.29C523.678 446.29 522.928 446.136 522.257 445.83C521.587 445.517 521.055 445.065 520.663 444.474C520.277 443.884 520.084 443.159 520.084 442.301C520.084 441.562 520.226 440.955 520.51 440.477C520.794 440 521.178 439.622 521.661 439.344C522.143 439.065 522.683 438.855 523.28 438.713C523.876 438.571 524.484 438.463 525.104 438.389C525.888 438.298 526.524 438.224 527.013 438.168C527.501 438.105 527.857 438.006 528.078 437.869C528.3 437.733 528.411 437.511 528.411 437.205V437.145C528.411 436.401 528.2 435.824 527.78 435.415C527.365 435.006 526.746 434.801 525.922 434.801C525.064 434.801 524.388 434.991 523.893 435.372C523.405 435.747 523.067 436.165 522.879 436.625L520.484 436.08C520.768 435.284 521.183 434.642 521.729 434.153C522.28 433.659 522.913 433.301 523.629 433.08C524.345 432.852 525.098 432.739 525.888 432.739C526.411 432.739 526.964 432.801 527.55 432.926C528.141 433.045 528.692 433.267 529.203 433.591C529.72 433.915 530.143 434.378 530.473 434.98C530.803 435.577 530.967 436.352 530.967 437.307V446H528.479V444.21H528.376C528.212 444.54 527.964 444.864 527.635 445.182C527.305 445.5 526.882 445.764 526.365 445.974C525.848 446.185 525.229 446.29 524.507 446.29ZM525.061 444.244C525.766 444.244 526.368 444.105 526.868 443.827C527.374 443.548 527.757 443.185 528.018 442.736C528.286 442.281 528.419 441.795 528.419 441.278V439.591C528.328 439.682 528.152 439.767 527.891 439.847C527.635 439.92 527.342 439.986 527.013 440.043C526.683 440.094 526.362 440.142 526.05 440.188C525.737 440.227 525.476 440.261 525.266 440.29C524.771 440.352 524.32 440.457 523.911 440.605C523.507 440.753 523.183 440.966 522.939 441.244C522.7 441.517 522.581 441.881 522.581 442.335C522.581 442.966 522.814 443.443 523.28 443.767C523.746 444.085 524.339 444.244 525.061 444.244ZM534.362 446V432.909H536.91V446H534.362ZM535.648 430.889C535.205 430.889 534.825 430.741 534.506 430.446C534.194 430.145 534.038 429.787 534.038 429.372C534.038 428.952 534.194 428.594 534.506 428.298C534.825 427.997 535.205 427.847 535.648 427.847C536.092 427.847 536.469 427.997 536.782 428.298C537.1 428.594 537.259 428.952 537.259 429.372C537.259 429.787 537.1 430.145 536.782 430.446C536.469 430.741 536.092 430.889 535.648 430.889ZM542.886 438.227V446H540.338V432.909H542.784V435.04H542.946C543.247 434.347 543.719 433.79 544.361 433.369C545.009 432.949 545.824 432.739 546.807 432.739C547.699 432.739 548.48 432.926 549.151 433.301C549.821 433.67 550.341 434.222 550.71 434.955C551.08 435.687 551.264 436.594 551.264 437.673V446H548.716V437.98C548.716 437.031 548.469 436.29 547.974 435.756C547.48 435.216 546.801 434.946 545.938 434.946C545.347 434.946 544.821 435.074 544.361 435.33C543.906 435.585 543.545 435.96 543.278 436.455C543.017 436.943 542.886 437.534 542.886 438.227ZM446.392 505.162C445.926 505.162 445.526 504.997 445.19 504.668C444.855 504.332 444.688 503.929 444.688 503.457C444.688 502.991 444.855 502.594 445.19 502.264C445.526 501.929 445.926 501.761 446.392 501.761C446.858 501.761 447.259 501.929 447.594 502.264C447.929 502.594 448.097 502.991 448.097 503.457C448.097 503.77 448.017 504.057 447.858 504.318C447.705 504.574 447.5 504.778 447.244 504.932C446.989 505.085 446.705 505.162 446.392 505.162ZM453.189 505.162C452.723 505.162 452.322 504.997 451.987 504.668C451.652 504.332 451.484 503.929 451.484 503.457C451.484 502.991 451.652 502.594 451.987 502.264C452.322 501.929 452.723 501.761 453.189 501.761C453.655 501.761 454.055 501.929 454.391 502.264C454.726 502.594 454.893 502.991 454.893 503.457C454.893 503.77 454.814 504.057 454.655 504.318C454.501 504.574 454.297 504.778 454.041 504.932C453.786 505.085 453.501 505.162 453.189 505.162ZM459.986 505.162C459.52 505.162 459.119 504.997 458.784 504.668C458.449 504.332 458.281 503.929 458.281 503.457C458.281 502.991 458.449 502.594 458.784 502.264C459.119 501.929 459.52 501.761 459.986 501.761C460.452 501.761 460.852 501.929 461.188 502.264C461.523 502.594 461.69 502.991 461.69 503.457C461.69 503.77 461.611 504.057 461.452 504.318C461.298 504.574 461.094 504.778 460.838 504.932C460.582 505.085 460.298 505.162 459.986 505.162Z" fill="black"/>
<defs>
<filter id="filter0_d_268_1409" x="14" y="0" width="172" height="213.5" filterUnits="userSpaceOnUse" color-interpolation-filters="sRGB">
<feFlood flood-opacity="0" result="BackgroundImageFix"/>
<feColorMatrix in="SourceAlpha" type="matrix" values="0 0 0 0 0 0 0 0 0 0 0 0 0 0 0 0 0 0 127 0" result="hardAlpha"/>
<feOffset dy="-4"/>
<feGaussianBlur stdDeviation="13"/>
<feComposite in2="hardAlpha" operator="out"/>
<feColorMatrix type="matrix" values="0 0 0 0 0 0 0 0 0 0 0 0 0 0 0 0 0 0 0.15 0"/>
<feBlend mode="normal" in2="BackgroundImageFix" result="effect1_dropShadow_268_1409"/>
<feBlend mode="normal" in="SourceGraphic" in2="effect1_dropShadow_268_1409" result="shape"/>
</filter>
<filter id="filter1_d_268_1409" x="417" y="0" width="172" height="213.5" filterUnits="userSpaceOnUse" color-interpolation-filters="sRGB">
<feFlood flood-opacity="0" result="BackgroundImageFix"/>
<feColorMatrix in="SourceAlpha" type="matrix" values="0 0 0 0 0 0 0 0 0 0 0 0 0 0 0 0 0 0 127 0" result="hardAlpha"/>
<feOffset dy="-4"/>
<feGaussianBlur stdDeviation="13"/>
<feComposite in2="hardAlpha" operator="out"/>
<feColorMatrix type="matrix" values="0 0 0 0 0 0 0 0 0 0 0 0 0 0 0 0 0 0 0.15 0"/>
<feBlend mode="normal" in2="BackgroundImageFix" result="effect1_dropShadow_268_1409"/>
<feBlend mode="normal" in="SourceGraphic" in2="effect1_dropShadow_268_1409" result="shape"/>
</filter>
</defs>
</svg>
